{
.appVersion = "1056";
customParameters = (
{
name = Axes;
value = (
{
Name = Weight;
Tag = wght;
}
);
}
);
date = "2018-09-15 09:11:05 +0000";
designer = "Alexandre Texier & Mael Sinic";
familyName = "24x36";
featurePrefixes = (
{
automatic = 1;
code = "languagesystem DFLT dflt;\012";
name = Languagesystems;
}
);
features = (
{
automatic = 1;
code = "feature lnum;\012feature onum;\012feature salt;\012feature ss01;\012feature ss02;\012";
name = aalt;
},
{
automatic = 1;
code = "sub zero.osf by zero;\012sub one.osf by one;\012sub two.osf by two;\012sub three.osf by three;\012sub four.osf by four;\012sub five.osf by five;\012sub six.osf by six;\012sub seven.osf by seven;\012sub eight.osf by eight;\012sub nine.osf by nine;\012";
name = lnum;
},
{
automatic = 1;
code = "sub zero by zero.osf;\012sub one by one.osf;\012sub two by two.osf;\012sub three by three.osf;\012sub four by four.osf;\012sub five by five.osf;\012sub six by six.osf;\012sub seven by seven.osf;\012sub eight by eight.osf;\012sub nine by nine.osf;\012";
name = onum;
},
{
automatic = 1;
code = "sub f t by f_t;\012";
name = dlig;
},
{
automatic = 1;
code = "sub f f l by f_f_l;\012sub f f by f_f;\012";
name = liga;
},
{
automatic = 1;
code = "sub C by C.ss01;\012sub a by a.ss01;\012sub m by m.ss01;\012sub n by n.ss01;\012sub p by p.ss01;\012sub r by r.ss01;\012sub y by y.ss01;\012";
name = salt;
},
{
automatic = 1;
code = "sub C by C.ss01;\012sub a by a.ss01;\012sub m by m.ss01;\012sub n by n.ss01;\012sub p by p.ss01;\012sub r by r.ss01;\012sub y by y.ss01;\012";
name = ss01;
},
{
automatic = 1;
code = "sub C by C.ss02;\012sub a by a.ss02;\012sub m by m.ss02;\012";
name = ss02;
}
);
fontMaster = (
{
ascender = 700;
capHeight = 700;
customParameters = (
{
name = Filter;
value = "Noodler; 0; 1; 1";
},
{
name = "Color Palettes";
value = (
(
"200,16,46,255",
"0,150,57,255",
"255,158,27,255",
"78,195,224,255"
)
);
}
);
descender = -200;
guideLines = (
{
position = "{-100, 500}";
},
{
position = "{-100, 700}";

glyphs = (
{
color = 4;
glyphname = A;
lastChange = "2018-11-05 12:04:47 +0000";
layers = (
{
layerId = "25139FCF-725A-49A6-A058-8DCF5AC16622";
paths = (
{
closed = 0;
nodes = (
"547 0 LINE",
"284 800 LINE",
"20 0 LINE"
);
},
{
closed = 0;
nodes = (
"138 321 LINE",
"434 321 LINE"
);
}
);
width = 567;
},
{
layerId = "1AB63056-1127-463F-B001-FB2AC81901C9";
paths = (
{
closed = 0;
nodes = (
"547 0 LINE",
"284 800 LINE",
"20 0 LINE"
);
},
{
closed = 0;
nodes = (
"138 321 LINE",
"434 321 LINE"
);
}
);
width = 567;
},
{
associatedMasterId = "6F4F10D2-8254-4335-A627-9F8D8891324D";
layerId = "EAEE0337-7CC5-4CD4-8F2F-E2D84841D1E3";
name = path;
paths = (
{
closed = 0;
nodes = (
"481 0 LINE",
"251 700 LINE",
"20 0 LINE"
);
},
{
closed = 0;
nodes = (
"123 281 LINE",
"382 281 LINE"
);
}
);
width = 567;
},
{
layerId = "6F4F10D2-8254-4335-A627-9F8D8891324D";
paths = (
{
closed = 1;
nodes = (
"40.282 -45 OFFCURVE",
"57.428 -31.583 OFFCURVE",
"63.05 -13.14 CURVE SMOOTH",
"145.267 236 LINE",
"356.091 236 LINE",
"437.932 -13.082 LINE SMOOTH",
"443.535 -31.554 OFFCURVE",
"460.697 -45 OFFCURVE",
"481 -45 CURVE SMOOTH",
"505.853 -45 OFFCURVE",
"526 -24.853 OFFCURVE",
"526 0 CURVE SMOOTH",
"526 5.276 OFFCURVE",
"525.092 10.339 OFFCURVE",
"523.424 15.043 CURVE SMOOTH",
"305.871 677.159 LINE SMOOTH",
"297.641 702.208 OFFCURVE",
"281.29 714.055 OFFCURVE",
"254.923 714.072 CURVE SMOOTH",
"247.095 714.077 LINE SMOOTH",
"220.728 714.094 OFFCURVE",
"204.362 702.268 OFFCURVE",
"196.099 677.23 CURVE SMOOTH",
"-22.408 15.087 LINE SMOOTH",
"-24.086 10.37 OFFCURVE",
"-25 5.292 OFFCURVE",
"-25 0 CURVE SMOOTH",
"-25 -24.853 OFFCURVE",
"-4.853 -45 OFFCURVE",
"20 -45 CURVE SMOOTH"
);
},
{
closed = 1;
nodes = (
"250.907 556.123 LINE",
"326.519 326 LINE",
"174.967 326 LINE"
);
}
);
visible = 1;
width = 567;
},
{
associatedMasterId = "6F4F10D2-8254-4335-A627-9F8D8891324D";
layerId = "DB4B084F-5831-43EE-A697-EBE7336D2D01";
name = path;
paths = (
{
closed = 0;
nodes = (
"547 0 LINE",
"284 800 LINE",
"20 0 LINE"
);
},
{
closed = 0;
nodes = (
"138 321 LINE",
"434 321 LINE"
);
}
);
width = 567;
}
);
unicode = 0041;
},
{
color = 1;
glyphname = B;
lastChange = "2018-11-05 12:04:25 +0000";
layers = (
{
layerId = "6F4F10D2-8254-4335-A627-9F8D8891324D";
paths = (
{
closed = 1;
nodes = (
"180 -45 LINE SMOOTH",
"371.613 -45 OFFCURVE",
"465 30.514 OFFCURVE",
"465 193 CURVE SMOOTH",
"465 278.941 OFFCURVE",
"424.852 343.197 OFFCURVE",
"352.447 382.034 CURVE",
"399.569 416.941 OFFCURVE",
"425 470.488 OFFCURVE",
"425 540 CURVE SMOOTH",
"425 670.739 OFFCURVE",
"335.041 745 OFFCURVE",
"180 745 CURVE SMOOTH",
"52.534 745 LINE SMOOTH",
"29.411 745 OFFCURVE",
"13.491 738.491 OFFCURVE",
"-2.5 722.5 CURVE SMOOTH",
"-18.491 706.509 OFFCURVE",
"-25 690.589 OFFCURVE",
"-25 667.466 CURVE SMOOTH",
"-25 32.534 LINE SMOOTH",
"-25 9.411 OFFCURVE",
"-18.491 -6.509 OFFCURVE",
"-2.5 -22.5 CURVE SMOOTH",
"13.491 -38.491 OFFCURVE",
"29.411 -45 OFFCURVE",
"52.534 -45 CURVE SMOOTH"
);
},
{
closed = 1;
nodes = (
"65 335 LINE",
"147 335 LINE SMOOTH",
"294.063 335 OFFCURVE",
"375 287.768 OFFCURVE",
"375 193 CURVE SMOOTH",
"375 83.872 OFFCURVE",
"322.913 45 OFFCURVE",
"180 45 CURVE SMOOTH",
"65 45 LINE"
);
},
{
closed = 1;
nodes = (
"169.259 424.731 OFFCURVE",
"158.257 425 OFFCURVE",
"147 425 CURVE SMOOTH",
"65 425 LINE",
"65 655 LINE",
"180 655 LINE SMOOTH",
"287.47 655 OFFCURVE",
"335 617.435 OFFCURVE",
"335 540 CURVE SMOOTH",
"335 462.565 OFFCURVE",
"287.47 425 OFFCURVE",
"180 425 CURVE",
"180 424.196 LINE"
);
}
);
width = 440;
},
{
layerId = "25139FCF-725A-49A6-A058-8DCF5AC16622";
paths = (
{
closed = 0;
nodes = (
"180 440 LINE",
"300 440 OFFCURVE",
"380 520 OFFCURVE",
"380 640 CURVE SMOOTH",
"380 800 OFFCURVE",
"220 800 OFFCURVE",
"140 800 CURVE SMOOTH",
"20 800 LINE",
"20 0 LINE",
"145 0 LINE SMOOTH",
"217 0 OFFCURVE",
"420 0 OFFCURVE",
"420 200 CURVE SMOOTH",
"420 440 OFFCURVE",
"220 440 OFFCURVE",
"147 440 CURVE SMOOTH",
"34 440 LINE"
);
}
);
width = 440;
},
{
layerId = "1AB63056-1127-463F-B001-FB2AC81901C9";
paths = (
{
closed = 0;
nodes = (
"180 440 LINE",
"300 440 OFFCURVE",
"380 520 OFFCURVE",
"380 640 CURVE SMOOTH",
"380 800 OFFCURVE",
"220 800 OFFCURVE",
"140 800 CURVE SMOOTH",
"20 800 LINE",
"20 0 LINE",
"145 0 LINE SMOOTH",
"217 0 OFFCURVE",
"420 0 OFFCURVE",
"420 200 CURVE SMOOTH",
"420 440 OFFCURVE",
"220 440 OFFCURVE",
"147 440 CURVE SMOOTH",
"34 440 LINE"
);
}
);
width = 440;
},
{
associatedMasterId = "6F4F10D2-8254-4335-A627-9F8D8891324D";
layerId = "8A367D76-A199-48AE-9DB0-368DCFD5F25A";
name = path;
paths = (
{
closed = 0;
nodes = (
"180 380 LINE",
"290 380 OFFCURVE",
"380 420 OFFCURVE",
"380 540 CURVE SMOOTH",
"380 660 OFFCURVE",
"290 700 OFFCURVE",
"180 700 CURVE SMOOTH",
"20 700 LINE",
"20 0 LINE",
"180 0 LINE SMOOTH",
"290 0 OFFCURVE",
"420 18 OFFCURVE",
"420 193 CURVE SMOOTH",
"420 368 OFFCURVE",
"220 380 OFFCURVE",
"147 380 CURVE SMOOTH",
"34 380 LINE"
);
}
);
visible = 1;
width = 440;
},
{
associatedMasterId = "6F4F10D2-8254-4335-A627-9F8D8891324D";
layerId = "CF7DDA0E-FC34-422B-913D-B4FDAEC86090";
name = path;
paths = (
{
closed = 0;
nodes = (
"180 440 LINE",
"300 440 OFFCURVE",
"380 520 OFFCURVE",
"380 640 CURVE SMOOTH",
"380 800 OFFCURVE",
"220 800 OFFCURVE",
"140 800 CURVE SMOOTH",
"20 800 LINE",
"20 0 LINE",
"145 0 LINE SMOOTH",
"217 0 OFFCURVE",
"420 0 OFFCURVE",
"420 200 CURVE SMOOTH",
"420 440 OFFCURVE",
"220 440 OFFCURVE",
"147 440 CURVE SMOOTH",
"34 440 LINE"
);
}
);
width = 440;
}
);
unicode = 0042;
},
{
color = 1;
glyphname = C;
lastChange = "2018-11-05 12:05:07 +0000";
layers = (
{
layerId = "6F4F10D2-8254-4335-A627-9F8D8891324D";
paths = (
{
closed = 1;
nodes = (
"375.387 -45 OFFCURVE",
"457.718 1.22 OFFCURVE",
"506.108 89.724 CURVE SMOOTH",
"509.857 96.292 OFFCURVE",
"512 103.896 OFFCURVE",
"512 112 CURVE SMOOTH",
"512 136.853 OFFCURVE",
"491.853 157 OFFCURVE",
"467 157 CURVE SMOOTH",
"449.632 157 OFFCURVE",
"434.563 147.161 OFFCURVE",
"427.061 132.753 CURVE SMOOTH",
"394.552 73.395 OFFCURVE",
"343.197 45 OFFCURVE",
"267 45 CURVE SMOOTH",
"121.805 45 OFFCURVE",
"65 129.926 OFFCURVE",
"65 350 CURVE SMOOTH",
"65 566.376 OFFCURVE",
"124.58 655 OFFCURVE",
"267 655 CURVE SMOOTH",
"342.515 655 OFFCURVE",
"394.593 625.245 OFFCURVE",
"427.921 563.517 CURVE SMOOTH",
"435.375 548.962 OFFCURVE",
"450.524 539 OFFCURVE",
"468 539 CURVE SMOOTH",
"492.853 539 OFFCURVE",
"513 559.147 OFFCURVE",
"513 584 CURVE SMOOTH",
"513 592.008 OFFCURVE",
"510.908 599.528 OFFCURVE",
"507.241 606.042 CURVE SMOOTH",
"458.218 697.005 OFFCURVE",
"375.065 745 OFFCURVE",
"267 745 CURVE SMOOTH",
"69.036 745 OFFCURVE",
"-25 613.695 OFFCURVE",
"-25 350 CURVE SMOOTH",
"-25 82.306 OFFCURVE",
"66.173 -45 OFFCURVE",
"267 -45 CURVE SMOOTH"
);
}
);
width = 552;
},
{
layerId = "25139FCF-725A-49A6-A058-8DCF5AC16622";
paths = (
{
closed = 0;
nodes = (
"532 667 LINE",
"489 749 OFFCURVE",
"415 800 OFFCURVE",
"302 800 CURVE SMOOTH",
"63 800 OFFCURVE",
"20 603 OFFCURVE",
"20 400 CURVE SMOOTH",
"20 186 OFFCURVE",
"63 0 OFFCURVE",
"302 0 CURVE SMOOTH",
"414 0 OFFCURVE",
"487 48 OFFCURVE",
"531 128 CURVE"
);
}
);
width = 552;
},
{
layerId = "1AB63056-1127-463F-B001-FB2AC81901C9";
paths = (
{
closed = 0;
nodes = (
"532 667 LINE",
"489 749 OFFCURVE",
"415 800 OFFCURVE",
"302 800 CURVE SMOOTH",
"63 800 OFFCURVE",
"20 603 OFFCURVE",
"20 400 CURVE SMOOTH",
"20 186 OFFCURVE",
"63 0 OFFCURVE",
"302 0 CURVE SMOOTH",
"414 0 OFFCURVE",
"487 48 OFFCURVE",
"531 128 CURVE"
);
}
);
width = 552;
},
{
associatedMasterId = "6F4F10D2-8254-4335-A627-9F8D8891324D";
layerId = "A24DD931-A4BF-412C-96B5-53B3DA73CE2E";
name = path;
paths = (
{
closed = 0;
nodes = (
"468 584 LINE",
"430 655 OFFCURVE",
"366 700 OFFCURVE",
"267 700 CURVE SMOOTH",
"58 700 OFFCURVE",
"20 528 OFFCURVE",
"20 350 CURVE SMOOTH",
"20 163 OFFCURVE",
"58 0 OFFCURVE",
"267 0 CURVE SMOOTH",
"365 0 OFFCURVE",
"429 42 OFFCURVE",
"467 112 CURVE"
);
}
);
visible = 1;
width = 552;
},
{
associatedMasterId = "6F4F10D2-8254-4335-A627-9F8D8891324D";
layerId = "ED1132E6-0F91-48D4-A789-FB50DFD807F4";
name = path;
paths = (
{
closed = 0;
nodes = (
"532 667 LINE",
"489 749 OFFCURVE",
"415 800 OFFCURVE",
"302 800 CURVE SMOOTH",
"63 800 OFFCURVE",
"20 603 OFFCURVE",
"20 400 CURVE SMOOTH",
"20 186 OFFCURVE",
"63 0 OFFCURVE",
"302 0 CURVE SMOOTH",
"414 0 OFFCURVE",
"487 48 OFFCURVE",
"531 128 CURVE"
);
}
);
width = 552;
}
);
unicode = 0043;
},
{
color = 1;
glyphname = D;
lastChange = "2018-11-05 12:05:29 +0000";
layers = (
{
layerId = "6F4F10D2-8254-4335-A627-9F8D8891324D";
paths = (
{
closed = 1;
nodes = (
"129 -45 LINE SMOOTH",
"341.429 -45 OFFCURVE",
"464 99.762 OFFCURVE",
"464 350 CURVE SMOOTH",
"464 602.779 OFFCURVE",
"340.298 745 OFFCURVE",
"119 745 CURVE SMOOTH",
"52.534 745 LINE SMOOTH",
"29.411 745 OFFCURVE",
"13.491 738.491 OFFCURVE",
"-2.5 722.5 CURVE SMOOTH",
"-18.491 706.509 OFFCURVE",
"-25 690.589 OFFCURVE",
"-25 667.466 CURVE SMOOTH",
"-25 32.534 LINE SMOOTH",
"-25 9.411 OFFCURVE",
"-18.491 -6.509 OFFCURVE",
"-2.5 -22.5 CURVE SMOOTH",
"13.491 -38.491 OFFCURVE",
"29.411 -45 OFFCURVE",
"52.534 -45 CURVE SMOOTH"
);
},
{
closed = 1;
nodes = (
"65 655 LINE",
"119 655 LINE SMOOTH",
"288.754 655 OFFCURVE",
"374 553.685 OFFCURVE",
"374 350 CURVE SMOOTH",
"374 148.884 OFFCURVE",
"289.968 45 OFFCURVE",
"129 45 CURVE SMOOTH",
"65 45 LINE"
);
}
);
width = 496;
},
{
layerId = "25139FCF-725A-49A6-A058-8DCF5AC16622";
paths = (
{
closed = 1;
nodes = (
"20 0 LINE",
"145 0 LINE SMOOTH",
"300 0 OFFCURVE",
"476 80 OFFCURVE",
"476 400 CURVE SMOOTH",
"476 720 OFFCURVE",
"300 800 OFFCURVE",
"133 800 CURVE SMOOTH",
"20 800 LINE"
);
}
);
width = 496;
},
{
layerId = "1AB63056-1127-463F-B001-FB2AC81901C9";
paths = (
{
closed = 1;
nodes = (
"20 0 LINE",
"145 0 LINE SMOOTH",
"300 0 OFFCURVE",
"476 80 OFFCURVE",
"476 400 CURVE SMOOTH",
"476 720 OFFCURVE",
"300 800 OFFCURVE",
"133 800 CURVE SMOOTH",
"20 800 LINE"
);
}
);
width = 496;
},
{
associatedMasterId = "6F4F10D2-8254-4335-A627-9F8D8891324D";
layerId = "85BC1AA6-C1D3-4630-B584-06F73A38B585";
name = path;
paths = (
{
closed = 1;
nodes = (
"20 0 LINE",
"129 0 LINE SMOOTH",
"265 0 OFFCURVE",
"419 70 OFFCURVE",
"419 350 CURVE SMOOTH",
"419 630 OFFCURVE",
"265 700 OFFCURVE",
"119 700 CURVE SMOOTH",
"20 700 LINE"
);
}
);
width = 496;
},
{
associatedMasterId = "6F4F10D2-8254-4335-A627-9F8D8891324D";
layerId = "CD6E020E-105A-472A-9A63-E4543D9F98B2";
name = path;
paths = (
{
closed = 1;
nodes = (
"20 0 LINE",
"145 0 LINE SMOOTH",
"300 0 OFFCURVE",
"476 80 OFFCURVE",
"476 400 CURVE SMOOTH",
"476 720 OFFCURVE",
"300 800 OFFCURVE",
"133 800 CURVE SMOOTH",
"20 800 LINE"
);
}
);
width = 496;
}
);
unicode = 0044;
},
{
color = 1;
glyphname = E;
lastChange = "2018-11-05 12:05:45 +0000";
layers = (
{
layerId = "6F4F10D2-8254-4335-A627-9F8D8891324D";
paths = (
{
closed = 1;
nodes = (
"366 -45 LINE SMOOTH",
"390.853 -45 OFFCURVE",
"411 -24.853 OFFCURVE",
"411 0 CURVE SMOOTH",
"411 24.853 OFFCURVE",
"390.853 45 OFFCURVE",
"366 45 CURVE SMOOTH",
"65 45 LINE",
"65 305 LINE",
"286 305 LINE SMOOTH",
"310.853 305 OFFCURVE",
"331 325.147 OFFCURVE",
"331 350 CURVE SMOOTH",
"331 374.853 OFFCURVE",
"310.853 395 OFFCURVE",
"286 395 CURVE SMOOTH",
"65 395 LINE",
"65 655 LINE",
"366 655 LINE SMOOTH",
"390.853 655 OFFCURVE",
"411 675.147 OFFCURVE",
"411 700 CURVE SMOOTH",
"411 724.853 OFFCURVE",
"390.853 745 OFFCURVE",
"366 745 CURVE SMOOTH",
"52.534 745 LINE SMOOTH",
"29.411 745 OFFCURVE",
"13.491 738.491 OFFCURVE",
"-2.5 722.5 CURVE SMOOTH",
"-18.491 706.509 OFFCURVE",
"-25 690.589 OFFCURVE",
"-25 667.466 CURVE SMOOTH",
"-25 32.534 LINE SMOOTH",
"-25 9.411 OFFCURVE",
"-18.491 -6.509 OFFCURVE",
"-2.5 -22.5 CURVE SMOOTH",
"13.491 -38.491 OFFCURVE",
"29.411 -45 OFFCURVE",
"52.534 -45 CURVE SMOOTH"
);
}
);
width = 435;
},
{
layerId = "25139FCF-725A-49A6-A058-8DCF5AC16622";
paths = (
{
closed = 0;
nodes = (
"415 800 LINE",
"20 800 LINE",
"20 0 LINE",
"415 0 LINE"
);
},
{
closed = 0;
nodes = (
"324 400 LINE",
"20 400 LINE"
);
}
);
width = 435;
},
{
layerId = "1AB63056-1127-463F-B001-FB2AC81901C9";
paths = (
{
closed = 0;
nodes = (
"415 800 LINE",
"20 800 LINE",
"20 0 LINE",
"415 0 LINE"
);
},
{
closed = 0;
nodes = (
"324 400 LINE",
"20 400 LINE"
);
}
);
width = 435;
},
{
associatedMasterId = "6F4F10D2-8254-4335-A627-9F8D8891324D";
layerId = "318F8A7B-26DD-4F17-BC4A-3BF14152A499";
name = path;
paths = (
{
closed = 0;
nodes = (
"366 700 LINE",
"20 700 LINE",
"20 0 LINE",
"366 0 LINE"
);
},
{
closed = 0;
nodes = (
"286 350 LINE",
"20 350 LINE"
);
}
);
visible = 1;
width = 435;
},
{
associatedMasterId = "6F4F10D2-8254-4335-A627-9F8D8891324D";
layerId = "9B516011-045B-414A-B133-2CB1FFDB927A";
name = path;
paths = (
{
closed = 0;
nodes = (
"415 800 LINE",
"20 800 LINE",
"20 0 LINE",
"415 0 LINE"
);
},
{
closed = 0;
nodes = (
"324 400 LINE",
"20 400 LINE"
);
}
);
width = 435;
}
);
unicode = 0045;
},
{
color = 1;
glyphname = F;
lastChange = "2018-11-05 12:06:05 +0000";
layers = (
{
layerId = "6F4F10D2-8254-4335-A627-9F8D8891324D";
paths = (
{
closed = 1;
nodes = (
"44.853 -45 OFFCURVE",
"65 -24.853 OFFCURVE",
"65 0 CURVE SMOOTH",
"65 305 LINE",
"286 305 LINE SMOOTH",
"310.853 305 OFFCURVE",
"331 325.147 OFFCURVE",
"331 350 CURVE SMOOTH",
"331 374.853 OFFCURVE",
"310.853 395 OFFCURVE",
"286 395 CURVE SMOOTH",
"65 395 LINE",
"65 655 LINE",
"367 655 LINE SMOOTH",
"391.853 655 OFFCURVE",
"412 675.147 OFFCURVE",
"412 700 CURVE SMOOTH",
"412 724.853 OFFCURVE",
"391.853 745 OFFCURVE",
"367 745 CURVE SMOOTH",
"52.534 745 LINE SMOOTH",
"29.411 745 OFFCURVE",
"13.491 738.491 OFFCURVE",
"-2.5 722.5 CURVE SMOOTH",
"-18.491 706.509 OFFCURVE",
"-25 690.589 OFFCURVE",
"-25 667.466 CURVE SMOOTH",
"-25 0 LINE SMOOTH",
"-25 -24.853 OFFCURVE",
"-4.853 -45 OFFCURVE",
"20 -45 CURVE SMOOTH"
);
}
);
width = 437;
},
{
layerId = "25139FCF-725A-49A6-A058-8DCF5AC16622";
paths = (
{
closed = 0;
nodes = (
"417 800 LINE",
"20 800 LINE",
"20 0 LINE"
);
},
{
closed = 0;
nodes = (
"324 400 LINE",
"20 400 LINE"
);
}
);
width = 437;
},
{
layerId = "1AB63056-1127-463F-B001-FB2AC81901C9";
paths = (
{
closed = 0;
nodes = (
"417 800 LINE",
"20 800 LINE",
"20 0 LINE"
);
},
{
closed = 0;
nodes = (
"324 400 LINE",
"20 400 LINE"
);
}
);
width = 437;
},
{
associatedMasterId = "6F4F10D2-8254-4335-A627-9F8D8891324D";
layerId = "3631285E-E3C7-4A6F-9383-73F4C77534C8";
name = path;
paths = (
{
closed = 0;
nodes = (
"367 700 LINE",
"20 700 LINE",
"20 0 LINE"
);
},
{
closed = 0;
nodes = (
"286 350 LINE",
"20 350 LINE"
);
}
);
visible = 1;
width = 437;
},
{
associatedMasterId = "6F4F10D2-8254-4335-A627-9F8D8891324D";
layerId = "C385AC63-352F-4A11-803F-6B6F7FF6C763";
name = path;
paths = (
{
closed = 0;
nodes = (
"417 800 LINE",
"20 800 LINE",
"20 0 LINE"
);
},
{
closed = 0;
nodes = (
"324 400 LINE",
"20 400 LINE"
);
}
);
width = 437;
}
);
unicode = 0046;
},
{
glyphname = G;
lastChange = "2018-11-05 12:06:32 +0000";
layers = (
{
layerId = "6F4F10D2-8254-4335-A627-9F8D8891324D";
paths = (
{
closed = 1;
nodes = (
"367.398 -45 OFFCURVE",
"470.696 1.809 OFFCURVE",
"520.231 68.013 CURVE SMOOTH",
"532.351 84.652 OFFCURVE",
"535.567 93.923 OFFCURVE",
"537.448 101.592 CURVE SMOOTH",
"539.331 109.27 OFFCURVE",
"540 119.226 OFFCURVE",
"540 139.546 CURVE SMOOTH",
"540 274.466 LINE SMOOTH",
"540 297.589 OFFCURVE",
"533.491 313.509 OFFCURVE",
"517.5 329.5 CURVE SMOOTH",
"501.509 345.491 OFFCURVE",
"485.589 352 OFFCURVE",
"462.466 352 CURVE SMOOTH",
"294 352 LINE SMOOTH",
"269.147 352 OFFCURVE",
"249 331.853 OFFCURVE",
"249 307 CURVE SMOOTH",
"249 282.147 OFFCURVE",
"269.147 262 OFFCURVE",
"294 262 CURVE SMOOTH",
"450 262 LINE",
"450 124.353 LINE",
"420.209 80.855 OFFCURVE",
"340.46 45 OFFCURVE",
"267 45 CURVE SMOOTH",
"121.805 45 OFFCURVE",
"65 129.926 OFFCURVE",
"65 350 CURVE SMOOTH",
"65 566.376 OFFCURVE",
"124.58 655 OFFCURVE",
"267 655 CURVE SMOOTH",
"342.515 655 OFFCURVE",
"394.593 625.245 OFFCURVE",
"427.921 563.517 CURVE SMOOTH",
"435.375 548.962 OFFCURVE",
"450.524 539 OFFCURVE",
"468 539 CURVE SMOOTH",
"492.853 539 OFFCURVE",
"513 559.147 OFFCURVE",
"513 584 CURVE SMOOTH",
"513 592.008 OFFCURVE",
"510.908 599.528 OFFCURVE",
"507.241 606.042 CURVE SMOOTH",
"458.218 697.005 OFFCURVE",
"375.065 745 OFFCURVE",
"267 745 CURVE SMOOTH",
"69.036 745 OFFCURVE",
"-25 613.695 OFFCURVE",
"-25 350 CURVE SMOOTH",
"-25 82.306 OFFCURVE",
"66.173 -45 OFFCURVE",
"267 -45 CURVE SMOOTH"
);
}
);
width = 583;
},
{
layerId = "25139FCF-725A-49A6-A058-8DCF5AC16622";
paths = (
{
closed = 0;
nodes = (
"532 667 LINE",
"489 749 OFFCURVE",
"415 800 OFFCURVE",
"302 800 CURVE SMOOTH",
"63 800 OFFCURVE",
"20 603 OFFCURVE",
"20 400 CURVE SMOOTH",
"20 186 OFFCURVE",
"63 0 OFFCURVE",
"302 0 CURVE SMOOTH",
"399 0 OFFCURVE",
"522 49 OFFCURVE",
"563 128 CURVE",
"563 351 LINE",
"333 351 LINE"
);
}
);
width = 583;
},
{
layerId = "1AB63056-1127-463F-B001-FB2AC81901C9";
paths = (
{
closed = 0;
nodes = (
"532 667 LINE",
"489 749 OFFCURVE",
"415 800 OFFCURVE",
"302 800 CURVE SMOOTH",
"63 800 OFFCURVE",
"20 603 OFFCURVE",
"20 400 CURVE SMOOTH",
"20 186 OFFCURVE",
"63 0 OFFCURVE",
"302 0 CURVE SMOOTH",
"399 0 OFFCURVE",
"522 49 OFFCURVE",
"563 128 CURVE",
"563 351 LINE",
"333 351 LINE"
);
}
);
width = 583;
},
{
associatedMasterId = "6F4F10D2-8254-4335-A627-9F8D8891324D";
layerId = "FC98F0E2-EADE-40FC-8203-C765818E7099";
name = path;
paths = (
{
closed = 0;
nodes = (
"468 584 LINE",
"430 655 OFFCURVE",
"366 700 OFFCURVE",
"267 700 CURVE SMOOTH",
"58 700 OFFCURVE",
"20 528 OFFCURVE",
"20 350 CURVE SMOOTH",
"20 163 OFFCURVE",
"58 0 OFFCURVE",
"267 0 CURVE SMOOTH",
"352 0 OFFCURVE",
"459 43 OFFCURVE",
"495 112 CURVE",
"495 307 LINE",
"294 307 LINE"
);
}
);
visible = 1;
width = 583;
},
{
associatedMasterId = "6F4F10D2-8254-4335-A627-9F8D8891324D";
layerId = "39057D74-2CF7-4622-9EF6-2B96468F0349";
name = "50";
paths = (
{
closed = 1;
nodes = (
"404.465 -25 OFFCURVE",
"500.208 25.342 OFFCURVE",
"547.688 103.178 CURVE SMOOTH",
"553.555 112.99 OFFCURVE",
"555.559 117.996 OFFCURVE",
"556.595 122.242 CURVE SMOOTH",
"557.632 126.49 OFFCURVE",
"558 132.012 OFFCURVE",
"558 143.298 CURVE SMOOTH",
"558 281.925 LINE SMOOTH",
"558 294.772 OFFCURVE",
"554.384 303.616 OFFCURVE",
"545.5 312.5 CURVE SMOOTH",
"536.616 321.384 OFFCURVE",
"527.772 325 OFFCURVE",
"514.925 325 CURVE SMOOTH",
"333 325 LINE SMOOTH",
"319.193 325 OFFCURVE",
"308 313.807 OFFCURVE",
"308 300 CURVE SMOOTH",
"308 286.193 OFFCURVE",
"319.193 275 OFFCURVE",
"333 275 CURVE SMOOTH",
"508 275 LINE",
"508 134.32 LINE",
"470.78 68.173 OFFCURVE",
"390.127 25 OFFCURVE",
"302 25 CURVE SMOOTH",
"138.083 25 OFFCURVE",
"65 126.464 OFFCURVE",
"65 350 CURVE SMOOTH",
"65 451.839 OFFCURVE",
"85.78 675 OFFCURVE",
"302 675 CURVE SMOOTH",
"398.898 675 OFFCURVE",
"467.757 635.381 OFFCURVE",
"509.656 555.776 CURVE SMOOTH",
"513.768 547.606 OFFCURVE",
"522.229 542 OFFCURVE",
"532 542 CURVE SMOOTH",
"545.807 542 OFFCURVE",
"557 553.193 OFFCURVE",
"557 567 CURVE SMOOTH",
"557 571.366 OFFCURVE",
"555.88 575.471 OFFCURVE",
"553.913 579.043 CURVE SMOOTH",
"503.427 674.974 OFFCURVE",
"416.948 725 OFFCURVE",
"302 725 CURVE SMOOTH",
"118.528 725 OFFCURVE",
"15 585.072 OFFCURVE",
"15 350 CURVE SMOOTH",
"15 208.635 OFFCURVE",
"40.589 -25 OFFCURVE",
"302 -25 CURVE SMOOTH"
);
}
);
width = 583;
},
{
associatedMasterId = "6F4F10D2-8254-4335-A627-9F8D8891324D";
layerId = "2D83411B-4E6B-4769-87C4-933289F2ABCB";
name = "70";
paths = (
{
closed = 1;
nodes = (
"405.991 -35 OFFCURVE",
"503.106 15.091 OFFCURVE",
"553.34 93.358 CURVE SMOOTH",
"561.866 106.936 OFFCURVE",
"564.582 113.994 OFFCURVE",
"566.033 119.938 CURVE SMOOTH",
"567.484 125.886 OFFCURVE",
"568 133.617 OFFCURVE",
"568 149.418 CURVE SMOOTH",
"568 274.696 LINE SMOOTH",
"568 292.68 OFFCURVE",
"562.938 305.062 OFFCURVE",
"550.5 317.5 CURVE SMOOTH",
"538.062 329.938 OFFCURVE",
"525.68 335 OFFCURVE",
"507.696 335 CURVE SMOOTH",
"333 335 LINE SMOOTH",
"313.67 335 OFFCURVE",
"298 319.33 OFFCURVE",
"298 300 CURVE SMOOTH",
"298 280.67 OFFCURVE",
"313.67 265 OFFCURVE",
"333 265 CURVE SMOOTH",
"498 265 LINE",
"498 136.981 LINE",
"462.041 75.347 OFFCURVE",
"385.502 35 OFFCURVE",
"302 35 CURVE SMOOTH",
"143.724 35 OFFCURVE",
"75 132.205 OFFCURVE",
"75 350 CURVE SMOOTH",
"75 451.374 OFFCURVE",
"94.892 665 OFFCURVE",
"302 665 CURVE SMOOTH",
"395.106 665 OFFCURVE",
"460.575 627.412 OFFCURVE",
"500.707 551.307 CURVE SMOOTH",
"506.46 539.857 OFFCURVE",
"518.312 532 OFFCURVE",
"532 532 CURVE SMOOTH",
"551.33 532 OFFCURVE",
"567 547.67 OFFCURVE",
"567 567 CURVE SMOOTH",
"567 573.121 OFFCURVE",
"565.428 578.874 OFFCURVE",
"562.667 583.88 CURVE SMOOTH",
"510.537 682.786 OFFCURVE",
"420.306 735 OFFCURVE",
"302 735 CURVE SMOOTH",
"112.774 735 OFFCURVE",
"5 590.555 OFFCURVE",
"5 350 CURVE SMOOTH",
"5 208.089 OFFCURVE",
"31.624 -35 OFFCURVE",
"302 -35 CURVE SMOOTH"
);
}
);
width = 583;
},
{
associatedMasterId = "6F4F10D2-8254-4335-A627-9F8D8891324D";
layerId = "EA2B6CA7-031E-4770-A695-6BE83B7201C4";
name = "90";
paths = (
{
closed = 1;
nodes = (
"407.542 -45 OFFCURVE",
"506.04 4.889 OFFCURVE",
"558.894 83.592 CURVE SMOOTH",
"570.216 100.855 OFFCURVE",
"573.606 109.994 OFFCURVE",
"575.47 117.636 CURVE SMOOTH",
"577.337 125.282 OFFCURVE",
"578 135.222 OFFCURVE",
"578 155.537 CURVE SMOOTH",
"578 267.466 LINE SMOOTH",
"578 290.589 OFFCURVE",
"571.491 306.509 OFFCURVE",
"555.5 322.5 CURVE SMOOTH",
"539.509 338.491 OFFCURVE",
"523.589 345 OFFCURVE",
"500.466 345 CURVE SMOOTH",
"333 345 LINE SMOOTH",
"308.147 345 OFFCURVE",
"288 324.853 OFFCURVE",
"288 300 CURVE SMOOTH",
"288 275.147 OFFCURVE",
"308.147 255 OFFCURVE",
"333 255 CURVE SMOOTH",
"488 255 LINE",
"488 139.73 LINE",
"453.321 82.544 OFFCURVE",
"380.91 45 OFFCURVE",
"302 45 CURVE SMOOTH",
"149.714 45 OFFCURVE",
"85 138.26 OFFCURVE",
"85 350 CURVE SMOOTH",
"85 546.724 OFFCURVE",
"159.929 655 OFFCURVE",
"302 655 CURVE SMOOTH",
"391.331 655 OFFCURVE",
"453.391 619.449 OFFCURVE",
"491.758 546.84 CURVE SMOOTH",
"499.152 532.11 OFFCURVE",
"514.395 522 OFFCURVE",
"532 522 CURVE SMOOTH",
"556.853 522 OFFCURVE",
"577 542.147 OFFCURVE",
"577 567 CURVE SMOOTH",
"577 574.876 OFFCURVE",
"574.976 582.278 OFFCURVE",
"571.421 588.718 CURVE SMOOTH",
"517.49 690.902 OFFCURVE",
"424.012 745 OFFCURVE",
"302 745 CURVE SMOOTH",
"107.033 745 OFFCURVE",
"-5 596.039 OFFCURVE",
"-5 350 CURVE SMOOTH",
"-5 207.543 OFFCURVE",
"22.659 -45 OFFCURVE",
"302 -45 CURVE SMOOTH"
);
}
);
width = 583;
},
{
associatedMasterId = "6F4F10D2-8254-4335-A627-9F8D8891324D";
layerId = "716B9A3D-AA8E-4B1A-B788-DEB2AC29AD3D";
name = "110";
paths = (
{
closed = 1;
nodes = (
"409.113 -55 OFFCURVE",
"509.006 -5.272 OFFCURVE",
"564.362 73.875 CURVE SMOOTH",
"578.597 94.748 OFFCURVE",
"582.63 105.994 OFFCURVE",
"584.909 115.333 CURVE SMOOTH",
"587.189 124.678 OFFCURVE",
"588 136.827 OFFCURVE",
"588 161.657 CURVE SMOOTH",
"588 260.236 LINE SMOOTH",
"588 288.497 OFFCURVE",
"580.045 307.955 OFFCURVE",
"560.5 327.5 CURVE SMOOTH",
"540.955 347.045 OFFCURVE",
"521.497 355 OFFCURVE",
"493.236 355 CURVE SMOOTH",
"333 355 LINE SMOOTH",
"302.624 355 OFFCURVE",
"278 330.376 OFFCURVE",
"278 300 CURVE SMOOTH",
"278 269.624 OFFCURVE",
"302.624 245 OFFCURVE",
"333 245 CURVE SMOOTH",
"478 245 LINE",
"478 142.574 LINE",
"444.623 89.768 OFFCURVE",
"376.349 55 OFFCURVE",
"302 55 CURVE SMOOTH",
"156.078 55 OFFCURVE",
"95 143.328 OFFCURVE",
"95 350 CURVE SMOOTH",
"95 540.591 OFFCURVE",
"165.835 645 OFFCURVE",
"302 645 CURVE SMOOTH",
"387.576 645 OFFCURVE",
"446.209 611.49 OFFCURVE",
"482.813 542.364 CURVE SMOOTH",
"491.849 524.358 OFFCURVE",
"510.481 512 OFFCURVE",
"532 512 CURVE SMOOTH",
"562.376 512 OFFCURVE",
"587 536.624 OFFCURVE",
"587 567 CURVE SMOOTH",
"587 576.637 OFFCURVE",
"584.522 585.694 OFFCURVE",
"580.168 593.571 CURVE SMOOTH",
"524.432 699.028 OFFCURVE",
"427.722 755 OFFCURVE",
"302 755 CURVE SMOOTH",
"101.303 755 OFFCURVE",
"-15 602.183 OFFCURVE",
"-15 350 CURVE SMOOTH",
"-15 83.096 OFFCURVE",
"90.584 -55 OFFCURVE",
"302 -55 CURVE SMOOTH"
);
}
);
width = 583;
},
{
associatedMasterId = "6F4F10D2-8254-4335-A627-9F8D8891324D";
layerId = "7AC067FC-8A53-413A-A6F7-81BE2D846EF7";
name = "130";
paths = (
{
closed = 1;
nodes = (
"410.365 -65 OFFCURVE",
"511.993 -15.186 OFFCURVE",
"569.737 64.216 CURVE SMOOTH",
"587.009 88.611 OFFCURVE",
"591.654 101.994 OFFCURVE",
"594.346 113.029 CURVE SMOOTH",
"597.042 124.073 OFFCURVE",
"598 138.432 OFFCURVE",
"598 167.776 CURVE SMOOTH",
"598 253.006 LINE SMOOTH",
"598 286.406 OFFCURVE",
"588.599 309.401 OFFCURVE",
"565.5 332.5 CURVE SMOOTH",
"542.401 355.599 OFFCURVE",
"519.406 365 OFFCURVE",
"486.006 365 CURVE SMOOTH",
"333 365 LINE SMOOTH",
"297.101 365 OFFCURVE",
"268 335.899 OFFCURVE",
"268 300 CURVE SMOOTH",
"268 264.101 OFFCURVE",
"297.101 235 OFFCURVE",
"333 235 CURVE SMOOTH",
"468 235 LINE",
"468 145.524 LINE",
"435.951 97.021 OFFCURVE",
"371.825 65 OFFCURVE",
"302 65 CURVE SMOOTH",
"162.141 65 OFFCURVE",
"105 148.711 OFFCURVE",
"105 350 CURVE SMOOTH",
"105 534.776 OFFCURVE",
"171.458 635 OFFCURVE",
"302 635 CURVE SMOOTH",
"383.849 635 OFFCURVE",
"439.036 603.532 OFFCURVE",
"473.878 537.868 CURVE SMOOTH",
"484.56 516.597 OFFCURVE",
"506.575 502 OFFCURVE",
"532 502 CURVE SMOOTH",
"567.899 502 OFFCURVE",
"597 531.101 OFFCURVE",
"597 567 CURVE SMOOTH",
"597 578.394 OFFCURVE",
"594.068 589.103 OFFCURVE",
"588.918 598.414 CURVE SMOOTH",
"531.531 706.854 OFFCURVE",
"431.098 765 OFFCURVE",
"302 765 CURVE SMOOTH",
"95.585 765 OFFCURVE",
"-25 607.668 OFFCURVE",
"-25 350 CURVE SMOOTH",
"-25 77.667 OFFCURVE",
"84.816 -65 OFFCURVE",
"302 -65 CURVE SMOOTH"
);
}
);
width = 583;
},
{
associatedMasterId = "6F4F10D2-8254-4335-A627-9F8D8891324D";
layerId = "CA3EF84C-06EB-4DC1-95FE-1B8D0D78F5AA";
name = "150";
paths = (
{
closed = 1;
nodes = (
"411.971 -75 OFFCURVE",
"514.996 -25.285 OFFCURVE",
"575.062 54.585 CURVE SMOOTH",
"595.439 82.454 OFFCURVE",
"600.678 97.995 OFFCURVE",
"603.784 110.726 CURVE SMOOTH",
"606.894 123.469 OFFCURVE",
"608 140.037 OFFCURVE",
"608 173.896 CURVE SMOOTH",
"608 245.776 LINE SMOOTH",
"608 284.315 OFFCURVE",
"597.152 310.848 OFFCURVE",
"570.5 337.5 CURVE SMOOTH",
"543.848 364.152 OFFCURVE",
"517.315 375 OFFCURVE",
"478.776 375 CURVE SMOOTH",
"333 375 LINE SMOOTH",
"291.579 375 OFFCURVE",
"258 341.421 OFFCURVE",
"258 300 CURVE SMOOTH",
"258 258.579 OFFCURVE",
"291.579 225 OFFCURVE",
"333 225 CURVE SMOOTH",
"458 225 LINE",
"458 148.587 LINE",
"427.311 104.307 OFFCURVE",
"367.338 75 OFFCURVE",
"302 75 CURVE SMOOTH",
"168.571 75 OFFCURVE",
"115 153.752 OFFCURVE",
"115 350 CURVE SMOOTH",
"115 529.307 OFFCURVE",
"177.423 625 OFFCURVE",
"302 625 CURVE SMOOTH",
"380.162 625 OFFCURVE",
"431.886 595.566 OFFCURVE",
"464.966 533.327 CURVE SMOOTH",
"477.303 508.816 OFFCURVE",
"502.688 492 OFFCURVE",
"532 492 CURVE SMOOTH",
"573.421 492 OFFCURVE",
"607 525.579 OFFCURVE",
"607 567 CURVE SMOOTH",
"607 580.135 OFFCURVE",
"603.623 592.481 OFFCURVE",
"597.691 603.218 CURVE SMOOTH",
"538.497 714.971 OFFCURVE",
"434.842 775 OFFCURVE",
"302 775 CURVE SMOOTH",
"89.876 775 OFFCURVE",
"-35 613.154 OFFCURVE",
"-35 350 CURVE SMOOTH",
"-35 72.236 OFFCURVE",
"79.062 -75 OFFCURVE",
"302 -75 CURVE SMOOTH"
);
}
);
width = 583;
},
{
associatedMasterId = "6F4F10D2-8254-4335-A627-9F8D8891324D";
layerId = "FAE50D67-DF93-4582-89B0-291549CC1587";
name = "Oct 3 18, 17:44";
paths = (
{
closed = 0;
nodes = (
"532 567 LINE",
"489 649 OFFCURVE",
"415 700 OFFCURVE",
"302 700 CURVE SMOOTH",
"63 700 OFFCURVE",
"40 453 OFFCURVE",
"40 350 CURVE SMOOTH",
"40 210 OFFCURVE",
"63 0 OFFCURVE",
"302 0 CURVE SMOOTH",
"399 0 OFFCURVE",
"492 49 OFFCURVE",
"533 128 CURVE",
"533 300 LINE",
"333 300 LINE"
);
}
);
width = 583;
},
{
associatedMasterId = "6F4F10D2-8254-4335-A627-9F8D8891324D";
layerId = "BCA7A78E-90AC-4395-B7E1-8EDA546F6786";
name = path;
paths = (
{
closed = 0;
nodes = (
"532 667 LINE",
"489 749 OFFCURVE",
"415 800 OFFCURVE",
"302 800 CURVE SMOOTH",
"63 800 OFFCURVE",
"20 603 OFFCURVE",
"20 400 CURVE SMOOTH",
"20 186 OFFCURVE",
"63 0 OFFCURVE",
"302 0 CURVE SMOOTH",
"399 0 OFFCURVE",
"522 49 OFFCURVE",
"563 128 CURVE",
"563 351 LINE",
"333 351 LINE"
);
}
);
width = 583;
},
{
associatedMasterId = "6F4F10D2-8254-4335-A627-9F8D8891324D";
layerId = "BCB15317-AD6D-412C-BCD4-7882F28C5A1A";
name = "50";
paths = (
{
closed = 1;
nodes = (
"404.465 -25 OFFCURVE",
"500.208 25.342 OFFCURVE",
"547.688 103.178 CURVE SMOOTH",
"553.555 112.99 OFFCURVE",
"555.559 117.996 OFFCURVE",
"556.595 122.242 CURVE SMOOTH",
"557.632 126.49 OFFCURVE",
"558 132.012 OFFCURVE",
"558 143.298 CURVE SMOOTH",
"558 281.925 LINE SMOOTH",
"558 294.772 OFFCURVE",
"554.384 303.616 OFFCURVE",
"545.5 312.5 CURVE SMOOTH",
"536.616 321.384 OFFCURVE",
"527.772 325 OFFCURVE",
"514.925 325 CURVE SMOOTH",
"333 325 LINE SMOOTH",
"319.193 325 OFFCURVE",
"308 313.807 OFFCURVE",
"308 300 CURVE SMOOTH",
"308 286.193 OFFCURVE",
"319.193 275 OFFCURVE",
"333 275 CURVE SMOOTH",
"508 275 LINE",
"508 134.32 LINE",
"470.78 68.173 OFFCURVE",
"390.127 25 OFFCURVE",
"302 25 CURVE SMOOTH",
"138.083 25 OFFCURVE",
"65 126.464 OFFCURVE",
"65 350 CURVE SMOOTH",
"65 451.839 OFFCURVE",
"85.78 675 OFFCURVE",
"302 675 CURVE SMOOTH",
"398.898 675 OFFCURVE",
"467.757 635.381 OFFCURVE",
"509.656 555.776 CURVE SMOOTH",
"513.768 547.606 OFFCURVE",
"522.229 542 OFFCURVE",
"532 542 CURVE SMOOTH",
"545.807 542 OFFCURVE",
"557 553.193 OFFCURVE",
"557 567 CURVE SMOOTH",
"557 571.366 OFFCURVE",
"555.88 575.471 OFFCURVE",
"553.913 579.043 CURVE SMOOTH",
"503.427 674.974 OFFCURVE",
"416.948 725 OFFCURVE",
"302 725 CURVE SMOOTH",
"118.528 725 OFFCURVE",
"15 585.072 OFFCURVE",
"15 350 CURVE SMOOTH",
"15 208.635 OFFCURVE",
"40.589 -25 OFFCURVE",
"302 -25 CURVE SMOOTH"
);
}
);
width = 583;
},
{
associatedMasterId = "6F4F10D2-8254-4335-A627-9F8D8891324D";
layerId = "3B7B80C0-5C4A-42D1-9C2D-BE67B30D5DD9";
name = "70";
paths = (
{
closed = 1;
nodes = (
"405.991 -35 OFFCURVE",
"503.106 15.091 OFFCURVE",
"553.34 93.358 CURVE SMOOTH",
"561.866 106.936 OFFCURVE",
"564.582 113.994 OFFCURVE",
"566.033 119.938 CURVE SMOOTH",
"567.484 125.886 OFFCURVE",
"568 133.617 OFFCURVE",
"568 149.418 CURVE SMOOTH",
"568 274.696 LINE SMOOTH",
"568 292.68 OFFCURVE",
"562.938 305.062 OFFCURVE",
"550.5 317.5 CURVE SMOOTH",
"538.062 329.938 OFFCURVE",
"525.68 335 OFFCURVE",
"507.696 335 CURVE SMOOTH",
"333 335 LINE SMOOTH",
"313.67 335 OFFCURVE",
"298 319.33 OFFCURVE",
"298 300 CURVE SMOOTH",
"298 280.67 OFFCURVE",
"313.67 265 OFFCURVE",
"333 265 CURVE SMOOTH",
"498 265 LINE",
"498 136.981 LINE",
"462.041 75.347 OFFCURVE",
"385.502 35 OFFCURVE",
"302 35 CURVE SMOOTH",
"143.724 35 OFFCURVE",
"75 132.205 OFFCURVE",
"75 350 CURVE SMOOTH",
"75 451.374 OFFCURVE",
"94.892 665 OFFCURVE",
"302 665 CURVE SMOOTH",
"395.106 665 OFFCURVE",
"460.575 627.412 OFFCURVE",
"500.707 551.307 CURVE SMOOTH",
"506.46 539.857 OFFCURVE",
"518.312 532 OFFCURVE",
"532 532 CURVE SMOOTH",
"551.33 532 OFFCURVE",
"567 547.67 OFFCURVE",
"567 567 CURVE SMOOTH",
"567 573.121 OFFCURVE",
"565.428 578.874 OFFCURVE",
"562.667 583.88 CURVE SMOOTH",
"510.537 682.786 OFFCURVE",
"420.306 735 OFFCURVE",
"302 735 CURVE SMOOTH",
"112.774 735 OFFCURVE",
"5 590.555 OFFCURVE",
"5 350 CURVE SMOOTH",
"5 208.089 OFFCURVE",
"31.624 -35 OFFCURVE",
"302 -35 CURVE SMOOTH"
);
}
);
width = 583;
},
{
associatedMasterId = "6F4F10D2-8254-4335-A627-9F8D8891324D";
layerId = "054E8B16-19B4-470F-AAA6-AABEEB51BF11";
name = "90";
paths = (
{
closed = 1;
nodes = (
"407.542 -45 OFFCURVE",
"506.04 4.889 OFFCURVE",
"558.894 83.592 CURVE SMOOTH",
"570.216 100.855 OFFCURVE",
"573.606 109.994 OFFCURVE",
"575.47 117.636 CURVE SMOOTH",
"577.337 125.282 OFFCURVE",
"578 135.222 OFFCURVE",
"578 155.537 CURVE SMOOTH",
"578 267.466 LINE SMOOTH",
"578 290.589 OFFCURVE",
"571.491 306.509 OFFCURVE",
"555.5 322.5 CURVE SMOOTH",
"539.509 338.491 OFFCURVE",
"523.589 345 OFFCURVE",
"500.466 345 CURVE SMOOTH",
"333 345 LINE SMOOTH",
"308.147 345 OFFCURVE",
"288 324.853 OFFCURVE",
"288 300 CURVE SMOOTH",
"288 275.147 OFFCURVE",
"308.147 255 OFFCURVE",
"333 255 CURVE SMOOTH",
"488 255 LINE",
"488 139.73 LINE",
"453.321 82.544 OFFCURVE",
"380.91 45 OFFCURVE",
"302 45 CURVE SMOOTH",
"149.714 45 OFFCURVE",
"85 138.26 OFFCURVE",
"85 350 CURVE SMOOTH",
"85 546.724 OFFCURVE",
"159.929 655 OFFCURVE",
"302 655 CURVE SMOOTH",
"391.331 655 OFFCURVE",
"453.391 619.449 OFFCURVE",
"491.758 546.84 CURVE SMOOTH",
"499.152 532.11 OFFCURVE",
"514.395 522 OFFCURVE",
"532 522 CURVE SMOOTH",
"556.853 522 OFFCURVE",
"577 542.147 OFFCURVE",
"577 567 CURVE SMOOTH",
"577 574.876 OFFCURVE",
"574.976 582.278 OFFCURVE",
"571.421 588.718 CURVE SMOOTH",
"517.49 690.902 OFFCURVE",
"424.012 745 OFFCURVE",
"302 745 CURVE SMOOTH",
"107.033 745 OFFCURVE",
"-5 596.039 OFFCURVE",
"-5 350 CURVE SMOOTH",
"-5 207.543 OFFCURVE",
"22.659 -45 OFFCURVE",
"302 -45 CURVE SMOOTH"
);
}
);
width = 583;
},
{
associatedMasterId = "6F4F10D2-8254-4335-A627-9F8D8891324D";
layerId = "E1030D1D-29BE-4B4C-8FCC-5D4FF47A4F73";
name = "110";
paths = (
{
closed = 1;
nodes = (
"409.113 -55 OFFCURVE",
"509.006 -5.272 OFFCURVE",
"564.362 73.875 CURVE SMOOTH",
"578.597 94.748 OFFCURVE",
"582.63 105.994 OFFCURVE",
"584.909 115.333 CURVE SMOOTH",
"587.189 124.678 OFFCURVE",
"588 136.827 OFFCURVE",
"588 161.657 CURVE SMOOTH",
"588 260.236 LINE SMOOTH",
"588 288.497 OFFCURVE",
"580.045 307.955 OFFCURVE",
"560.5 327.5 CURVE SMOOTH",
"540.955 347.045 OFFCURVE",
"521.497 355 OFFCURVE",
"493.236 355 CURVE SMOOTH",
"333 355 LINE SMOOTH",
"302.624 355 OFFCURVE",
"278 330.376 OFFCURVE",
"278 300 CURVE SMOOTH",
"278 269.624 OFFCURVE",
"302.624 245 OFFCURVE",
"333 245 CURVE SMOOTH",
"478 245 LINE",
"478 142.574 LINE",
"444.623 89.768 OFFCURVE",
"376.349 55 OFFCURVE",
"302 55 CURVE SMOOTH",
"156.078 55 OFFCURVE",
"95 143.328 OFFCURVE",
"95 350 CURVE SMOOTH",
"95 540.591 OFFCURVE",
"165.835 645 OFFCURVE",
"302 645 CURVE SMOOTH",
"387.576 645 OFFCURVE",
"446.209 611.49 OFFCURVE",
"482.813 542.364 CURVE SMOOTH",
"491.849 524.358 OFFCURVE",
"510.481 512 OFFCURVE",
"532 512 CURVE SMOOTH",
"562.376 512 OFFCURVE",
"587 536.624 OFFCURVE",
"587 567 CURVE SMOOTH",
"587 576.637 OFFCURVE",
"584.522 585.694 OFFCURVE",
"580.168 593.571 CURVE SMOOTH",
"524.432 699.028 OFFCURVE",
"427.722 755 OFFCURVE",
"302 755 CURVE SMOOTH",
"101.303 755 OFFCURVE",
"-15 602.183 OFFCURVE",
"-15 350 CURVE SMOOTH",
"-15 83.096 OFFCURVE",
"90.584 -55 OFFCURVE",
"302 -55 CURVE SMOOTH"
);
}
);
width = 583;
},
{
associatedMasterId = "6F4F10D2-8254-4335-A627-9F8D8891324D";
layerId = "653E0B5D-5302-43C7-811E-314FCE2141E6";
name = "130";
paths = (
{
closed = 1;
nodes = (
"410.365 -65 OFFCURVE",
"511.993 -15.186 OFFCURVE",
"569.737 64.216 CURVE SMOOTH",
"587.009 88.611 OFFCURVE",
"591.654 101.994 OFFCURVE",
"594.346 113.029 CURVE SMOOTH",
"597.042 124.073 OFFCURVE",
"598 138.432 OFFCURVE",
"598 167.776 CURVE SMOOTH",
"598 253.006 LINE SMOOTH",
"598 286.406 OFFCURVE",
"588.599 309.401 OFFCURVE",
"565.5 332.5 CURVE SMOOTH",
"542.401 355.599 OFFCURVE",
"519.406 365 OFFCURVE",
"486.006 365 CURVE SMOOTH",
"333 365 LINE SMOOTH",
"297.101 365 OFFCURVE",
"268 335.899 OFFCURVE",
"268 300 CURVE SMOOTH",
"268 264.101 OFFCURVE",
"297.101 235 OFFCURVE",
"333 235 CURVE SMOOTH",
"468 235 LINE",
"468 145.524 LINE",
"435.951 97.021 OFFCURVE",
"371.825 65 OFFCURVE",
"302 65 CURVE SMOOTH",
"162.141 65 OFFCURVE",
"105 148.711 OFFCURVE",
"105 350 CURVE SMOOTH",
"105 534.776 OFFCURVE",
"171.458 635 OFFCURVE",
"302 635 CURVE SMOOTH",
"383.849 635 OFFCURVE",
"439.036 603.532 OFFCURVE",
"473.878 537.868 CURVE SMOOTH",
"484.56 516.597 OFFCURVE",
"506.575 502 OFFCURVE",
"532 502 CURVE SMOOTH",
"567.899 502 OFFCURVE",
"597 531.101 OFFCURVE",
"597 567 CURVE SMOOTH",
"597 578.394 OFFCURVE",
"594.068 589.103 OFFCURVE",
"588.918 598.414 CURVE SMOOTH",
"531.531 706.854 OFFCURVE",
"431.098 765 OFFCURVE",
"302 765 CURVE SMOOTH",
"95.585 765 OFFCURVE",
"-25 607.668 OFFCURVE",
"-25 350 CURVE SMOOTH",
"-25 77.667 OFFCURVE",
"84.816 -65 OFFCURVE",
"302 -65 CURVE SMOOTH"
);
}
);
width = 583;
},
{
associatedMasterId = "6F4F10D2-8254-4335-A627-9F8D8891324D";
layerId = "D9D2E533-4AF5-4BD6-8966-75361DF1BE22";
name = "150";
paths = (
{
closed = 1;
nodes = (
"411.971 -75 OFFCURVE",
"514.996 -25.285 OFFCURVE",
"575.062 54.585 CURVE SMOOTH",
"595.439 82.454 OFFCURVE",
"600.678 97.995 OFFCURVE",
"603.784 110.726 CURVE SMOOTH",
"606.894 123.469 OFFCURVE",
"608 140.037 OFFCURVE",
"608 173.896 CURVE SMOOTH",
"608 245.776 LINE SMOOTH",
"608 284.315 OFFCURVE",
"597.152 310.848 OFFCURVE",
"570.5 337.5 CURVE SMOOTH",
"543.848 364.152 OFFCURVE",
"517.315 375 OFFCURVE",
"478.776 375 CURVE SMOOTH",
"333 375 LINE SMOOTH",
"291.579 375 OFFCURVE",
"258 341.421 OFFCURVE",
"258 300 CURVE SMOOTH",
"258 258.579 OFFCURVE",
"291.579 225 OFFCURVE",
"333 225 CURVE SMOOTH",
"458 225 LINE",
"458 148.587 LINE",
"427.311 104.307 OFFCURVE",
"367.338 75 OFFCURVE",
"302 75 CURVE SMOOTH",
"168.571 75 OFFCURVE",
"115 153.752 OFFCURVE",
"115 350 CURVE SMOOTH",
"115 529.307 OFFCURVE",
"177.423 625 OFFCURVE",
"302 625 CURVE SMOOTH",
"380.162 625 OFFCURVE",
"431.886 595.566 OFFCURVE",
"464.966 533.327 CURVE SMOOTH",
"477.303 508.816 OFFCURVE",
"502.688 492 OFFCURVE",
"532 492 CURVE SMOOTH",
"573.421 492 OFFCURVE",
"607 525.579 OFFCURVE",
"607 567 CURVE SMOOTH",
"607 580.135 OFFCURVE",
"603.623 592.481 OFFCURVE",
"597.691 603.218 CURVE SMOOTH",
"538.497 714.971 OFFCURVE",
"434.842 775 OFFCURVE",
"302 775 CURVE SMOOTH",
"89.876 775 OFFCURVE",
"-35 613.154 OFFCURVE",
"-35 350 CURVE SMOOTH",
"-35 72.236 OFFCURVE",
"79.062 -75 OFFCURVE",
"302 -75 CURVE SMOOTH"
);
}
);
width = 583;
},
{
associatedMasterId = "6F4F10D2-8254-4335-A627-9F8D8891324D";
layerId = "FC9016B4-D654-47E0-855C-8C969FAA6039";
name = "Oct 3 18, 17:44";
paths = (
{
closed = 0;
nodes = (
"532 567 LINE",
"489 649 OFFCURVE",
"415 700 OFFCURVE",
"302 700 CURVE SMOOTH",
"63 700 OFFCURVE",
"40 453 OFFCURVE",
"40 350 CURVE SMOOTH",
"40 210 OFFCURVE",
"63 0 OFFCURVE",
"302 0 CURVE SMOOTH",
"399 0 OFFCURVE",
"492 49 OFFCURVE",
"533 128 CURVE",
"533 300 LINE",
"333 300 LINE"
);
}
);
width = 583;
}
);
unicode = 0047;
},
{
glyphname = H;
lastChange = "2018-11-05 12:06:52 +0000";
layers = (
{
layerId = "6F4F10D2-8254-4335-A627-9F8D8891324D";
paths = (
{
closed = 1;
nodes = (
"44.853 -45 OFFCURVE",
"65 -24.853 OFFCURVE",
"65 0 CURVE SMOOTH",
"65 305 LINE",
"381 305 LINE",
"381 0 LINE SMOOTH",
"381 -24.853 OFFCURVE",
"401.147 -45 OFFCURVE",
"426 -45 CURVE SMOOTH",
"450.853 -45 OFFCURVE",
"471 -24.853 OFFCURVE",
"471 0 CURVE SMOOTH",
"471 700 LINE SMOOTH",
"471 724.853 OFFCURVE",
"450.853 745 OFFCURVE",
"426 745 CURVE SMOOTH",
"401.147 745 OFFCURVE",
"381 724.853 OFFCURVE",
"381 700 CURVE SMOOTH",
"381 395 LINE",
"65 395 LINE",
"65 700 LINE SMOOTH",
"65 724.853 OFFCURVE",
"44.853 745 OFFCURVE",
"20 745 CURVE SMOOTH",
"-4.853 745 OFFCURVE",
"-25 724.853 OFFCURVE",
"-25 700 CURVE SMOOTH",
"-25 0 LINE SMOOTH",
"-25 -24.853 OFFCURVE",
"-4.853 -45 OFFCURVE",
"20 -45 CURVE SMOOTH"
);
}
);
width = 504;
},
{
layerId = "25139FCF-725A-49A6-A058-8DCF5AC16622";
paths = (
{
closed = 0;
nodes = (
"20 800 LINE",
"20 0 LINE"
);
},
{
closed = 0;
nodes = (
"484 800 LINE",
"484 0 LINE"
);
},
{
closed = 0;
nodes = (
"20 400 LINE",
"484 400 LINE"
);
}
);
width = 504;
},
{
layerId = "1AB63056-1127-463F-B001-FB2AC81901C9";
paths = (
{
closed = 0;
nodes = (
"20 800 LINE",
"20 0 LINE"
);
},
{
closed = 0;
nodes = (
"484 800 LINE",
"484 0 LINE"
);
},
{
closed = 0;
nodes = (
"20 400 LINE",
"484 400 LINE"
);
}
);
width = 504;
},
{
associatedMasterId = "6F4F10D2-8254-4335-A627-9F8D8891324D";
layerId = "F5E1098B-A28C-48AF-934F-359502CD6880";
name = path;
paths = (
{
closed = 0;
nodes = (
"20 700 LINE",
"20 0 LINE"
);
},
{
closed = 0;
nodes = (
"426 700 LINE",
"426 0 LINE"
);
},
{
closed = 0;
nodes = (
"20 350 LINE",
"426 350 LINE"
);
}
);
visible = 1;
width = 504;
},
{
associatedMasterId = "6F4F10D2-8254-4335-A627-9F8D8891324D";
layerId = "766BC8F0-7652-4D5A-AC65-4357CF58A07A";
name = path;
paths = (
{
closed = 0;
nodes = (
"20 800 LINE",
"20 0 LINE"
);
},
{
closed = 0;
nodes = (
"484 800 LINE",
"484 0 LINE"
);
},
{
closed = 0;
nodes = (
"20 400 LINE",
"484 400 LINE"
);
}
);
width = 504;
}
);
unicode = 0048;
},
{
glyphname = I;
lastChange = "2018-11-05 12:07:33 +0000";
layers = (
{
layerId = "6F4F10D2-8254-4335-A627-9F8D8891324D";
paths = (
{
closed = 1;
nodes = (
"44.853 -45 OFFCURVE",
"65 -24.853 OFFCURVE",
"65 0 CURVE SMOOTH",
"65 700 LINE SMOOTH",
"65 724.853 OFFCURVE",
"44.853 745 OFFCURVE",
"20 745 CURVE SMOOTH",
"-4.853 745 OFFCURVE",
"-25 724.853 OFFCURVE",
"-25 700 CURVE SMOOTH",
"-25 0 LINE SMOOTH",
"-25 -24.853 OFFCURVE",
"-4.853 -45 OFFCURVE",
"20 -45 CURVE SMOOTH"
);
}
);
width = 40;
},
{
layerId = "25139FCF-725A-49A6-A058-8DCF5AC16622";
paths = (
{
closed = 0;
nodes = (
"20 800 LINE",
"20 0 LINE"
);
}
);
width = 40;
},
{
layerId = "1AB63056-1127-463F-B001-FB2AC81901C9";
paths = (
{
closed = 0;
nodes = (
"20 800 LINE",
"20 0 LINE"
);
}
);
width = 40;
},
{
associatedMasterId = "6F4F10D2-8254-4335-A627-9F8D8891324D";
layerId = "8EE5B634-C740-4753-9E93-40991081FEAB";
name = path;
paths = (
{
closed = 0;
nodes = (
"20 700 LINE",
"20 0 LINE"
);
}
);
visible = 1;
width = 40;
},
{
associatedMasterId = "6F4F10D2-8254-4335-A627-9F8D8891324D";
layerId = "351423B3-7BF3-4274-9CFA-5465706AAE7F";
name = path;
paths = (
{
closed = 0;
nodes = (
"20 800 LINE",
"20 0 LINE"
);
}
);
width = 40;
}
);
unicode = 0049;
},
{
color = 1;
glyphname = J;
lastChange = "2018-11-05 12:08:40 +0000";
layers = (
{
layerId = "6F4F10D2-8254-4335-A627-9F8D8891324D";
paths = (
{
closed = 1;
nodes = (
"326.751 -45 OFFCURVE",
"415 41.929 OFFCURVE",
"415 175 CURVE SMOOTH",
"415 700 LINE SMOOTH",
"415 724.853 OFFCURVE",
"394.853 745 OFFCURVE",
"370 745 CURVE SMOOTH",
"345.147 745 OFFCURVE",
"325 724.853 OFFCURVE",
"325 700 CURVE SMOOTH",
"325 175 LINE SMOOTH",
"325 91.839 OFFCURVE",
"276.841 45 OFFCURVE",
"195 45 CURVE SMOOTH",
"113.159 45 OFFCURVE",
"65 91.839 OFFCURVE",
"65 175 CURVE SMOOTH",
"65 199.853 OFFCURVE",
"44.853 220 OFFCURVE",
"20 220 CURVE SMOOTH",
"-4.853 220 OFFCURVE",
"-25 199.853 OFFCURVE",
"-25 175 CURVE SMOOTH",
"-25 41.929 OFFCURVE",
"63.249 -45 OFFCURVE",
"195 -45 CURVE SMOOTH"
);
}
);
width = 440;
},
{
layerId = "25139FCF-725A-49A6-A058-8DCF5AC16622";
paths = (
{
closed = 0;
nodes = (
"420 800 LINE",
"420 160 LINE SMOOTH",
"420 40 OFFCURVE",
"300 0 OFFCURVE",
"220 0 CURVE SMOOTH",
"140 0 OFFCURVE",
"20 40 OFFCURVE",
"20 200 CURVE"
);
}
);
width = 440;
},
{
layerId = "1AB63056-1127-463F-B001-FB2AC81901C9";
paths = (
{
closed = 0;
nodes = (
"420 800 LINE",
"420 160 LINE SMOOTH",
"420 40 OFFCURVE",
"300 0 OFFCURVE",
"220 0 CURVE SMOOTH",
"140 0 OFFCURVE",
"20 40 OFFCURVE",
"20 200 CURVE"
);
}
);
width = 440;
},
{
associatedMasterId = "6F4F10D2-8254-4335-A627-9F8D8891324D";
layerId = "2E527735-7AED-488C-A9D2-3D18EE3C0A9E";
name = path;
paths = (
{
closed = 0;
nodes = (
"370 700 LINE",
"370 175 LINE SMOOTH",
"370 35 OFFCURVE",
"265 0 OFFCURVE",
"195 0 CURVE SMOOTH",
"125 0 OFFCURVE",
"20 35 OFFCURVE",
"20 175 CURVE"
);
}
);
visible = 1;
width = 440;
},
{
associatedMasterId = "6F4F10D2-8254-4335-A627-9F8D8891324D";
layerId = "A4B36DC4-F5AE-4FB9-AF6D-07DCEA226F2C";
name = path;
paths = (
{
closed = 0;
nodes = (
"420 800 LINE",
"420 160 LINE SMOOTH",
"420 40 OFFCURVE",
"300 0 OFFCURVE",
"220 0 CURVE SMOOTH",
"140 0 OFFCURVE",
"20 40 OFFCURVE",
"20 200 CURVE"
);
}
);
width = 440;
}
);
unicode = 004A;
},
{
color = 4;
glyphname = K;
lastChange = "2018-11-05 12:09:13 +0000";
layers = (
{
layerId = "25139FCF-725A-49A6-A058-8DCF5AC16622";
paths = (
{
closed = 0;
nodes = (
"20 799 LINE",
"20 1 LINE"
);
},
{
closed = 0;
nodes = (
"20 318 LINE",
"454 800 LINE"
);
},
{
closed = 0;
nodes = (
"116 415 LINE",
"454 0 LINE"
);
}
);
width = 474;
},
{
layerId = "1AB63056-1127-463F-B001-FB2AC81901C9";
paths = (
{
closed = 0;
nodes = (
"20 799 LINE",
"20 1 LINE"
);
},
{
closed = 0;
nodes = (
"20 318 LINE",
"454 800 LINE"
);
},
{
closed = 0;
nodes = (
"116 415 LINE",
"454 0 LINE"
);
}
);
width = 474;
},
{
associatedMasterId = "6F4F10D2-8254-4335-A627-9F8D8891324D";
layerId = "457C2936-8C35-4B45-9D28-CE91441009F2";
name = path;
paths = (
{
closed = 0;
nodes = (
"20 700 LINE",
"20 1 LINE"
);
},
{
closed = 0;
nodes = (
"20 278 LINE",
"400 700 LINE"
);
},
{
closed = 0;
nodes = (
"122 363 LINE",
"417 0 LINE"
);
}
);
visible = 1;
width = 474;
},
{
layerId = "6F4F10D2-8254-4335-A627-9F8D8891324D";
paths = (
{
closed = 1;
nodes = (
"441.853 -45 OFFCURVE",
"462 -24.853 OFFCURVE",
"462 0 CURVE SMOOTH",
"462 10.889 OFFCURVE",
"458.133 20.874 OFFCURVE",
"451.697 28.657 CURVE SMOOTH",
"169.127 376.361 LINE",
"433.286 669.717 LINE SMOOTH",
"440.563 677.711 OFFCURVE",
"445 688.338 OFFCURVE",
"445 700 CURVE SMOOTH",
"445 724.853 OFFCURVE",
"424.853 745 OFFCURVE",
"400 745 CURVE SMOOTH",
"386.696 745 OFFCURVE",
"374.742 739.227 OFFCURVE",
"366.503 730.049 CURVE SMOOTH",
"65 395.222 LINE",
"65 700 LINE SMOOTH",
"65 724.853 OFFCURVE",
"44.853 745 OFFCURVE",
"20 745 CURVE SMOOTH",
"-4.853 745 OFFCURVE",
"-25 724.853 OFFCURVE",
"-25 700 CURVE SMOOTH",
"-25 1 LINE SMOOTH",
"-25 -23.853 OFFCURVE",
"-4.853 -44 OFFCURVE",
"20 -44 CURVE SMOOTH",
"44.853 -44 OFFCURVE",
"65 -23.853 OFFCURVE",
"65 1 CURVE SMOOTH",
"65 260.726 LINE",
"108.17 308.667 LINE",
"381.849 -28.098 LINE SMOOTH",
"390.095 -38.401 OFFCURVE",
"402.777 -45 OFFCURVE",
"417 -45 CURVE SMOOTH"
);
}
);
width = 474;
},
{
associatedMasterId = "6F4F10D2-8254-4335-A627-9F8D8891324D";
layerId = "BF58FAD0-54FA-4747-9573-76CFE3EBDE1C";
name = path;
paths = (
{
closed = 0;
nodes = (
"20 799 LINE",
"20 1 LINE"
);
},
{
closed = 0;
nodes = (
"20 318 LINE",
"454 800 LINE"
);
},
{
closed = 0;
nodes = (
"136 415 LINE",
"474 0 LINE"
);
}
);
width = 474;
}
);
unicode = 004B;
},
{
glyphname = L;
lastChange = "2018-11-05 12:09:44 +0000";
layers = (
{
layerId = "6F4F10D2-8254-4335-A627-9F8D8891324D";
paths = (
{
closed = 1;
nodes = (
"339 -45 LINE SMOOTH",
"363.853 -45 OFFCURVE",
"384 -24.853 OFFCURVE",
"384 0 CURVE SMOOTH",
"384 24.853 OFFCURVE",
"363.853 45 OFFCURVE",
"339 45 CURVE SMOOTH",
"65 45 LINE",
"65 700 LINE SMOOTH",
"65 724.853 OFFCURVE",
"44.853 745 OFFCURVE",
"20 745 CURVE SMOOTH",
"-4.853 745 OFFCURVE",
"-25 724.853 OFFCURVE",
"-25 700 CURVE SMOOTH",
"-25 32.534 LINE SMOOTH",
"-25 9.411 OFFCURVE",
"-18.491 -6.509 OFFCURVE",
"-2.5 -22.5 CURVE SMOOTH",
"13.491 -38.491 OFFCURVE",
"29.411 -45 OFFCURVE",
"52.534 -45 CURVE SMOOTH"
);
}
);
width = 405;
},
{
layerId = "25139FCF-725A-49A6-A058-8DCF5AC16622";
paths = (
{
closed = 0;
nodes = (
"20 800 LINE",
"20 0 LINE",
"385 0 LINE"
);
}
);
width = 405;
},
{
layerId = "1AB63056-1127-463F-B001-FB2AC81901C9";
paths = (
{
closed = 0;
nodes = (
"20 800 LINE",
"20 0 LINE",
"385 0 LINE"
);
}
);
width = 405;
},
{
associatedMasterId = "6F4F10D2-8254-4335-A627-9F8D8891324D";
layerId = "5E2C3B7B-09B2-44BF-84C0-910C6FABEBCE";
name = path;
paths = (
{
closed = 0;
nodes = (
"20 700 LINE",
"20 0 LINE",
"339 0 LINE"
);
}
);
visible = 1;
width = 405;
},
{
associatedMasterId = "6F4F10D2-8254-4335-A627-9F8D8891324D";
layerId = "226242C9-6C44-4A08-A563-A9CBEF05FF4E";
name = path;
paths = (
{
closed = 0;
nodes = (
"20 800 LINE",
"20 0 LINE",
"385 0 LINE"
);
}
);
width = 405;
}
);
unicode = 004C;
},
{
color = 1;
glyphname = M;
lastChange = "2018-11-05 12:10:03 +0000";
layers = (
{
layerId = "6F4F10D2-8254-4335-A627-9F8D8891324D";
paths = (
{
closed = 1;
nodes = (
"44.853 -45 OFFCURVE",
"65 -24.853 OFFCURVE",
"65 0 CURVE SMOOTH",
"65 515.456 LINE",
"243.305 171.582 LINE SMOOTH",
"254.878 149.262 OFFCURVE",
"271.288 139.286 OFFCURVE",
"296.43 139.286 CURVE SMOOTH",
"303.57 139.286 LINE SMOOTH",
"328.712 139.286 OFFCURVE",
"345.122 149.262 OFFCURVE",
"356.695 171.582 CURVE SMOOTH",
"535 515.456 LINE",
"535 0 LINE SMOOTH",
"535 -24.853 OFFCURVE",
"555.147 -45 OFFCURVE",
"580 -45 CURVE SMOOTH",
"604.853 -45 OFFCURVE",
"625 -24.853 OFFCURVE",
"625 0 CURVE SMOOTH",
"625 659.824 LINE SMOOTH",
"625 686.844 OFFCURVE",
"612.219 703.117 OFFCURVE",
"585.967 709.518 CURVE SMOOTH",
"579.084 711.196 LINE SMOOTH",
"552.832 717.597 OFFCURVE",
"533.995 709.035 OFFCURVE",
"521.557 685.047 CURVE SMOOTH",
"300 257.759 LINE",
"78.443 685.047 LINE SMOOTH",
"66.005 709.035 OFFCURVE",
"47.168 717.597 OFFCURVE",
"20.916 711.196 CURVE SMOOTH",
"14.033 709.518 LINE SMOOTH",
"-12.219 703.117 OFFCURVE",
"-25 686.844 OFFCURVE",
"-25 659.824 CURVE SMOOTH",
"-25 0 LINE SMOOTH",
"-25 -24.853 OFFCURVE",
"-4.853 -45 OFFCURVE",
"20 -45 CURVE SMOOTH"
);
}
);
width = 680;
},
{
layerId = "25139FCF-725A-49A6-A058-8DCF5AC16622";
paths = (
{
closed = 0;
nodes = (
"660 0 LINE",
"660 800 LINE",
"340 183 LINE",
"20 800 LINE",
"20 0 LINE"
);
}
);
width = 680;
},
{
layerId = "1AB63056-1127-463F-B001-FB2AC81901C9";
paths = (
{
closed = 0;
nodes = (
"660 0 LINE",
"660 800 LINE",
"340 183 LINE",
"20 800 LINE",
"20 0 LINE"
);
}
);
width = 680;
},
{
associatedMasterId = "6F4F10D2-8254-4335-A627-9F8D8891324D";
layerId = "689F0889-A0B2-44AE-9B6B-11589C1C2C02";
name = path;
paths = (
{
closed = 0;
nodes = (
"580 0 LINE",
"580 700 LINE",
"300 160 LINE",
"20 700 LINE",
"20 0 LINE"
);
}
);
visible = 1;
width = 680;
},
{
associatedMasterId = "6F4F10D2-8254-4335-A627-9F8D8891324D";
layerId = "0153D6A8-DFB5-49EB-ACB2-D48FDD051A62";
name = path;
paths = (
{
closed = 0;
nodes = (
"660 0 LINE",
"660 800 LINE",
"340 183 LINE",
"20 800 LINE",
"20 0 LINE"
);
}
);
width = 680;
}
);
unicode = 004D;
},
{
glyphname = N;
lastChange = "2018-11-05 12:10:20 +0000";
layers = (
{
layerId = "6F4F10D2-8254-4335-A627-9F8D8891324D";
paths = (
{
closed = 1;
nodes = (
"44.853 -45 OFFCURVE",
"65 -24.853 OFFCURVE",
"65 0 CURVE SMOOTH",
"65 532.005 LINE",
"365.14 11.96 LINE SMOOTH",
"378.552 -11.278 OFFCURVE",
"397.534 -19.143 OFFCURVE",
"423.451 -12.201 CURVE SMOOTH",
"430.574 -10.293 LINE SMOOTH",
"456.491 -3.351 OFFCURVE",
"469 12.95 OFFCURVE",
"469 39.78 CURVE SMOOTH",
"469 700 LINE SMOOTH",
"469 724.853 OFFCURVE",
"448.853 745 OFFCURVE",
"424 745 CURVE SMOOTH",
"399.147 745 OFFCURVE",
"379 724.853 OFFCURVE",
"379 700 CURVE SMOOTH",
"379 167.995 LINE",
"78.86 688.04 LINE SMOOTH",
"65.448 711.278 OFFCURVE",
"46.466 719.143 OFFCURVE",
"20.549 712.201 CURVE SMOOTH",
"13.426 710.293 LINE SMOOTH",
"-12.491 703.351 OFFCURVE",
"-25 687.05 OFFCURVE",
"-25 660.22 CURVE SMOOTH",
"-25 0 LINE SMOOTH",
"-25 -24.853 OFFCURVE",
"-4.853 -45 OFFCURVE",
"20 -45 CURVE SMOOTH"
);
}
);
width = 502;
},
{
layerId = "25139FCF-725A-49A6-A058-8DCF5AC16622";
paths = (
{
closed = 0;
nodes = (
"20 0 LINE",
"20 800 LINE",
"482 0 LINE",
"482 800 LINE"
);
}
);
width = 502;
},
{
layerId = "1AB63056-1127-463F-B001-FB2AC81901C9";
paths = (
{
closed = 0;
nodes = (
"20 0 LINE",
"20 800 LINE",
"482 0 LINE",
"482 800 LINE"
);
}
);
width = 502;
},
{
associatedMasterId = "6F4F10D2-8254-4335-A627-9F8D8891324D";
layerId = "4BF1856C-120C-42A7-83AB-FB28D17EA55C";
name = path;
paths = (
{
closed = 0;
nodes = (
"20 0 LINE",
"20 700 LINE",
"424 0 LINE",
"424 700 LINE"
);
}
);
visible = 1;
width = 502;
},
{
associatedMasterId = "6F4F10D2-8254-4335-A627-9F8D8891324D";
layerId = "F119E06C-57E9-4284-918C-449A531315A6";
name = path;
paths = (
{
closed = 0;
nodes = (
"20 0 LINE",
"20 800 LINE",
"482 0 LINE",
"482 800 LINE"
);
}
);
width = 502;
}
);
unicode = 004E;
},
{
glyphname = O;
lastChange = "2018-11-05 12:10:34 +0000";
layers = (
{
layerId = "6F4F10D2-8254-4335-A627-9F8D8891324D";
paths = (
{
closed = 1;
nodes = (
"435.242 -45 OFFCURVE",
"533 97.276 OFFCURVE",
"533 351 CURVE SMOOTH",
"533 599.808 OFFCURVE",
"432.181 745 OFFCURVE",
"254 745 CURVE SMOOTH",
"6.101 745 OFFCURVE",
"-25 532.272 OFFCURVE",
"-25 350 CURVE SMOOTH",
"-25 96.377 OFFCURVE",
"72.387 -45 OFFCURVE",
"254 -45 CURVE SMOOTH"
);
},
{
closed = 1;
nodes = (
"128.178 45 OFFCURVE",
"65 144.751 OFFCURVE",
"65 350 CURVE SMOOTH",
"65 574.454 OFFCURVE",
"113.843 655 OFFCURVE",
"254 655 CURVE SMOOTH",
"376.946 655 OFFCURVE",
"443 550.743 OFFCURVE",
"443 351 CURVE SMOOTH",
"443 144.921 OFFCURVE",
"378.843 45 OFFCURVE",
"254 45 CURVE SMOOTH"
);
}
);
width = 575;
},
{
layerId = "25139FCF-725A-49A6-A058-8DCF5AC16622";
paths = (
{
closed = 1;
nodes = (
"555 186 OFFCURVE",
"492 0 OFFCURVE",
"287 0 CURVE SMOOTH",
"82 0 OFFCURVE",
"20 186 OFFCURVE",
"20 400 CURVE SMOOTH",
"20 605 OFFCURVE",
"49 800 OFFCURVE",
"287 800 CURVE SMOOTH",
"492 800 OFFCURVE",
"555 605 OFFCURVE",
"555 401 CURVE SMOOTH"
);
}
);
width = 575;
},
{
layerId = "1AB63056-1127-463F-B001-FB2AC81901C9";
paths = (
{
closed = 1;
nodes = (
"555 186 OFFCURVE",
"492 0 OFFCURVE",
"287 0 CURVE SMOOTH",
"82 0 OFFCURVE",
"20 186 OFFCURVE",
"20 400 CURVE SMOOTH",
"20 605 OFFCURVE",
"49 800 OFFCURVE",
"287 800 CURVE SMOOTH",
"492 800 OFFCURVE",
"555 605 OFFCURVE",
"555 401 CURVE SMOOTH"
);
}
);
width = 575;
},
{
associatedMasterId = "6F4F10D2-8254-4335-A627-9F8D8891324D";
layerId = "83D1E95C-34F0-4735-9F17-5029666BFD0C";
name = path;
paths = (
{
closed = 1;
nodes = (
"488 163 OFFCURVE",
"433 0 OFFCURVE",
"254 0 CURVE SMOOTH",
"74 0 OFFCURVE",
"20 163 OFFCURVE",
"20 350 CURVE SMOOTH",
"20 529 OFFCURVE",
"45 700 OFFCURVE",
"254 700 CURVE SMOOTH",
"433 700 OFFCURVE",
"488 529 OFFCURVE",
"488 351 CURVE SMOOTH"
);
}
);
visible = 1;
width = 575;
},
{
associatedMasterId = "6F4F10D2-8254-4335-A627-9F8D8891324D";
layerId = "37A4A655-FD7E-49E8-8CC6-F59214322C75";
name = path;
paths = (
{
closed = 1;
nodes = (
"555 186 OFFCURVE",
"492 0 OFFCURVE",
"287 0 CURVE SMOOTH",
"82 0 OFFCURVE",
"20 186 OFFCURVE",
"20 400 CURVE SMOOTH",
"20 605 OFFCURVE",
"49 800 OFFCURVE",
"287 800 CURVE SMOOTH",
"492 800 OFFCURVE",
"555 605 OFFCURVE",
"555 401 CURVE SMOOTH"
);
}
);
width = 575;
}
);
unicode = 004F;
},
{
glyphname = OE;
lastChange = "2018-11-05 12:10:51 +0000";
layers = (
{
layerId = "6F4F10D2-8254-4335-A627-9F8D8891324D";
paths = (
{
closed = 1;
nodes = (
"333.439 -45 OFFCURVE",
"396.839 -17.667 OFFCURVE",
"443 34.402 CURVE",
"443 17.201 LINE SMOOTH",
"443 4.976 OFFCURVE",
"449.509 -6.509 OFFCURVE",
"465.5 -22.5 CURVE SMOOTH",
"481.491 -38.491 OFFCURVE",
"497.411 -45 OFFCURVE",
"520.534 -45 CURVE SMOOTH",
"834 -45 LINE SMOOTH",
"858.853 -45 OFFCURVE",
"879 -24.853 OFFCURVE",
"879 0 CURVE SMOOTH",
"879 24.853 OFFCURVE",
"858.853 45 OFFCURVE",
"834 45 CURVE SMOOTH",
"533 45 LINE",
"533 306 LINE",
"753 306 LINE SMOOTH",
"777.853 306 OFFCURVE",
"798 326.147 OFFCURVE",
"798 351 CURVE SMOOTH",
"798 375.853 OFFCURVE",
"777.853 396 OFFCURVE",
"753 396 CURVE SMOOTH",
"533 396 LINE",
"533 655 LINE",
"834 655 LINE SMOOTH",
"858.853 655 OFFCURVE",
"879 675.147 OFFCURVE",
"879 700 CURVE SMOOTH",
"879 724.853 OFFCURVE",
"858.853 745 OFFCURVE",
"834 745 CURVE SMOOTH",
"520.534 745 LINE SMOOTH",
"497.411 745 OFFCURVE",
"481.491 738.491 OFFCURVE",
"465.5 722.5 CURVE SMOOTH",
"449.509 706.509 OFFCURVE",
"443 690.589 OFFCURVE",
"443 667.466 CURVE SMOOTH",
"443 663.381 LINE",
"396.488 716.594 OFFCURVE",
"332.812 745 OFFCURVE",
"254 745 CURVE SMOOTH",
"6.101 745 OFFCURVE",
"-25 532.272 OFFCURVE",
"-25 350 CURVE SMOOTH",
"-25 95.599 OFFCURVE",
"71.838 -45 OFFCURVE",
"254 -45 CURVE SMOOTH"
);
},
{
closed = 1;
nodes = (
"127.074 45 OFFCURVE",
"65 144.693 OFFCURVE",
"65 350 CURVE SMOOTH",
"65 574.454 OFFCURVE",
"113.843 655 OFFCURVE",
"254 655 CURVE SMOOTH",
"376.946 655 OFFCURVE",
"443 550.743 OFFCURVE",
"443 351 CURVE SMOOTH",
"443 144.921 OFFCURVE",
"378.843 45 OFFCURVE",
"254 45 CURVE SMOOTH"
);
}
);
width = 970;
},
{
layerId = "25139FCF-725A-49A6-A058-8DCF5AC16622";
paths = (
{
closed = 0;
nodes = (
"950 800 LINE",
"555 800 LINE",
"555 0 LINE",
"950 0 LINE"
);
},
{
closed = 0;
nodes = (
"858 401 LINE",
"555 401 LINE"
);
},
{
closed = 1;
nodes = (
"555 186 OFFCURVE",
"492 0 OFFCURVE",
"287 0 CURVE SMOOTH",
"81 0 OFFCURVE",
"20 186 OFFCURVE",
"20 400 CURVE SMOOTH",
"20 605 OFFCURVE",
"49 800 OFFCURVE",
"287 800 CURVE SMOOTH",
"492 800 OFFCURVE",
"555 605 OFFCURVE",
"555 401 CURVE SMOOTH"
);
}
);
width = 970;
},
{
layerId = "1AB63056-1127-463F-B001-FB2AC81901C9";
paths = (
{
closed = 0;
nodes = (
"950 800 LINE",
"555 800 LINE",
"555 0 LINE",
"950 0 LINE"
);
},
{
closed = 0;
nodes = (
"858 401 LINE",
"555 401 LINE"
);
},
{
closed = 1;
nodes = (
"555 186 OFFCURVE",
"492 0 OFFCURVE",
"287 0 CURVE SMOOTH",
"81 0 OFFCURVE",
"20 186 OFFCURVE",
"20 400 CURVE SMOOTH",
"20 605 OFFCURVE",
"49 800 OFFCURVE",
"287 800 CURVE SMOOTH",
"492 800 OFFCURVE",
"555 605 OFFCURVE",
"555 401 CURVE SMOOTH"
);
}
);
width = 970;
},
{
associatedMasterId = "6F4F10D2-8254-4335-A627-9F8D8891324D";
layerId = "0C90DAC8-C23D-4CD9-B5F3-608DC915B053";
name = path;
paths = (
{
closed = 0;
nodes = (
"834 700 LINE",
"488 700 LINE",
"488 0 LINE",
"834 0 LINE"
);
},
{
closed = 0;
nodes = (
"753 351 LINE",
"488 351 LINE"
);
},
{
closed = 1;
nodes = (
"488 163 OFFCURVE",
"433 0 OFFCURVE",
"254 0 CURVE SMOOTH",
"73 0 OFFCURVE",
"20 163 OFFCURVE",
"20 350 CURVE SMOOTH",
"20 529 OFFCURVE",
"45 700 OFFCURVE",
"254 700 CURVE SMOOTH",
"433 700 OFFCURVE",
"488 529 OFFCURVE",
"488 351 CURVE SMOOTH"
);
}
);
visible = 1;
width = 970;
},
{
associatedMasterId = "6F4F10D2-8254-4335-A627-9F8D8891324D";
layerId = "95F0B4CA-E2B8-4EF7-8356-D177FAC2EF91";
name = path;
paths = (
{
closed = 0;
nodes = (
"950 800 LINE",
"555 800 LINE",
"555 0 LINE",
"950 0 LINE"
);
},
{
closed = 0;
nodes = (
"858 401 LINE",
"555 401 LINE"
);
},
{
closed = 1;
nodes = (
"555 186 OFFCURVE",
"492 0 OFFCURVE",
"287 0 CURVE SMOOTH",
"81 0 OFFCURVE",
"20 186 OFFCURVE",
"20 400 CURVE SMOOTH",
"20 605 OFFCURVE",
"49 800 OFFCURVE",
"287 800 CURVE SMOOTH",
"492 800 OFFCURVE",
"555 605 OFFCURVE",
"555 401 CURVE SMOOTH"
);
}
);
width = 970;
}
);
unicode = 0152;
},
{
glyphname = P;
lastChange = "2018-11-05 12:11:34 +0000";
layers = (
{
layerId = "6F4F10D2-8254-4335-A627-9F8D8891324D";
paths = (
{
closed = 1;
nodes = (
"44.853 -45 OFFCURVE",
"65 -24.853 OFFCURVE",
"65 0 CURVE SMOOTH",
"65 303 LINE",
"235 303 LINE SMOOTH",
"251 303 OFFCURVE",
"442 304.307 OFFCURVE",
"442 527 CURVE SMOOTH",
"442 662.237 OFFCURVE",
"360.128 745 OFFCURVE",
"226 745 CURVE SMOOTH",
"52.534 745 LINE SMOOTH",
"29.411 745 OFFCURVE",
"13.491 738.491 OFFCURVE",
"-2.5 722.5 CURVE SMOOTH",
"-18.491 706.509 OFFCURVE",
"-25 690.589 OFFCURVE",
"-25 667.466 CURVE SMOOTH",
"-25 0 LINE SMOOTH",
"-25 -24.853 OFFCURVE",
"-4.853 -45 OFFCURVE",
"20 -45 CURVE SMOOTH"
);
},
{
closed = 1;
nodes = (
"65 655 LINE",
"226 655 LINE SMOOTH",
"310.211 655 OFFCURVE",
"352 612.403 OFFCURVE",
"352 527 CURVE SMOOTH",
"352 441.539 OFFCURVE",
"309.616 392.995 OFFCURVE",
"235 393 CURVE SMOOTH",
"65 393 LINE"
);
}
);
width = 470;
},
{
layerId = "25139FCF-725A-49A6-A058-8DCF5AC16622";
paths = (
{
closed = 0;
nodes = (
"20 0 LINE",
"20 800 LINE",
"255 800 LINE SMOOTH",
"284 800 OFFCURVE",
"450 800 OFFCURVE",
"450 602 CURVE SMOOTH",
"450 399 OFFCURVE",
"284 398 OFFCURVE",
"266 398 CURVE SMOOTH",
"42 398 LINE"
);
}
);
width = 470;
},
{
layerId = "1AB63056-1127-463F-B001-FB2AC81901C9";
paths = (
{
closed = 0;
nodes = (
"20 0 LINE",
"20 800 LINE",
"255 800 LINE SMOOTH",
"284 800 OFFCURVE",
"450 800 OFFCURVE",
"450 602 CURVE SMOOTH",
"450 399 OFFCURVE",
"284 398 OFFCURVE",
"266 398 CURVE SMOOTH",
"42 398 LINE"
);
}
);
width = 470;
},
{
associatedMasterId = "6F4F10D2-8254-4335-A627-9F8D8891324D";
layerId = "B6BE8936-30B5-4252-96B7-8EBED16B661B";
name = path;
paths = (
{
closed = 0;
nodes = (
"20 0 LINE",
"20 700 LINE",
"226 700 LINE SMOOTH",
"251 700 OFFCURVE",
"397 700 OFFCURVE",
"397 527 CURVE SMOOTH",
"397 349 OFFCURVE",
"251 348 OFFCURVE",
"235 348 CURVE SMOOTH",
"39 348 LINE"
);
}
);
visible = 1;
width = 471;
},
{
associatedMasterId = "6F4F10D2-8254-4335-A627-9F8D8891324D";
layerId = "FD2896B9-79C0-4C77-BA0E-B09A0BC09BC5";
name = path;
paths = (
{
closed = 0;
nodes = (
"20 0 LINE",
"20 800 LINE",
"255 800 LINE SMOOTH",
"284 800 OFFCURVE",
"450 800 OFFCURVE",
"450 602 CURVE SMOOTH",
"450 399 OFFCURVE",
"284 398 OFFCURVE",
"266 398 CURVE SMOOTH",
"42 398 LINE"
);
}
);
width = 470;
}
);
unicode = 0050;
},
{
glyphname = Q;
lastChange = "2018-11-05 12:11:50 +0000";
layers = (
{
layerId = "6F4F10D2-8254-4335-A627-9F8D8891324D";
paths = (
{
closed = 1;
nodes = (
"490.853 -158 OFFCURVE",
"511 -137.853 OFFCURVE",
"511 -113 CURVE SMOOTH",
"511 -104.518 OFFCURVE",
"508.653 -96.584 OFFCURVE",
"504.573 -89.812 CURVE SMOOTH",
"443.051 16.452 LINE",
"507.38 83.561 OFFCURVE",
"541 195.151 OFFCURVE",
"541 345 CURVE SMOOTH",
"541 597.556 OFFCURVE",
"438.681 745 OFFCURVE",
"258 745 CURVE SMOOTH",
"6.003 745 OFFCURVE",
"-25 529.216 OFFCURVE",
"-25 343 CURVE SMOOTH",
"-25 86.03 OFFCURVE",
"73.73 -57 OFFCURVE",
"258 -57 CURVE SMOOTH",
"299.361 -57 OFFCURVE",
"336.44 -49.676 OFFCURVE",
"369.071 -35.39 CURVE",
"426.638 -134.826 LINE SMOOTH",
"434.319 -148.647 OFFCURVE",
"449.067 -158 OFFCURVE",
"466 -158 CURVE SMOOTH"
);
},
{
closed = 1;
nodes = (
"129.466 33 OFFCURVE",
"65 134.369 OFFCURVE",
"65 343 CURVE SMOOTH",
"65 572.877 OFFCURVE",
"114.732 655 OFFCURVE",
"258 655 CURVE SMOOTH",
"383.455 655 OFFCURVE",
"451 548.491 OFFCURVE",
"451 345 CURVE SMOOTH",
"451 232.623 OFFCURVE",
"432.241 150.938 OFFCURVE",
"395.027 99.404 CURVE",
"351.362 174.825 LINE SMOOTH",
"343.682 188.647 OFFCURVE",
"328.933 198 OFFCURVE",
"312 198 CURVE SMOOTH",
"287.147 198 OFFCURVE",
"267 177.853 OFFCURVE",
"267 153 CURVE SMOOTH",
"267 144.518 OFFCURVE",
"269.347 136.585 OFFCURVE",
"273.427 129.813 CURVE SMOOTH",
"323.212 43.819 LINE",
"303.689 36.599 OFFCURVE",
"281.947 33 OFFCURVE",
"258 33 CURVE SMOOTH"
);
}
);
width = 575;
},
{
layerId = "25139FCF-725A-49A6-A058-8DCF5AC16622";
paths = (
{
closed = 1;
nodes = (
"555 187 OFFCURVE",
"492 0 OFFCURVE",
"287 0 CURVE SMOOTH",
"82 0 OFFCURVE",
"20 186 OFFCURVE",
"20 399 CURVE SMOOTH",
"20 605 OFFCURVE",
"48 800 OFFCURVE",
"287 800 CURVE SMOOTH",
"492 800 OFFCURVE",
"555 605 OFFCURVE",
"555 401 CURVE SMOOTH"
);
},
{
closed = 0;
nodes = (
"348 186 LINE",
"521 -113 LINE"
);
}
);
width = 575;
},
{
layerId = "1AB63056-1127-463F-B001-FB2AC81901C9";
paths = (
{
closed = 1;
nodes = (
"555 187 OFFCURVE",
"492 0 OFFCURVE",
"287 0 CURVE SMOOTH",
"82 0 OFFCURVE",
"20 186 OFFCURVE",
"20 399 CURVE SMOOTH",
"20 605 OFFCURVE",
"48 800 OFFCURVE",
"287 800 CURVE SMOOTH",
"492 800 OFFCURVE",
"555 605 OFFCURVE",
"555 401 CURVE SMOOTH"
);
},
{
closed = 0;
nodes = (
"348 186 LINE",
"521 -113 LINE"
);
}
);
width = 575;
},
{
associatedMasterId = "6F4F10D2-8254-4335-A627-9F8D8891324D";
layerId = "3651E6E4-72CC-482B-B990-2CB145851F89";
name = path;
paths = (
{
closed = 1;
nodes = (
"496 154 OFFCURVE",
"440 -12 OFFCURVE",
"258 -12 CURVE SMOOTH",
"75 -12 OFFCURVE",
"20 153 OFFCURVE",
"20 343 CURVE SMOOTH",
"20 526 OFFCURVE",
"45 700 OFFCURVE",
"258 700 CURVE SMOOTH",
"440 700 OFFCURVE",
"496 526 OFFCURVE",
"496 345 CURVE SMOOTH"
);
},
{
closed = 0;
nodes = (
"312 153 LINE",
"466 -113 LINE"
);
}
);
visible = 1;
width = 575;
},
{
associatedMasterId = "6F4F10D2-8254-4335-A627-9F8D8891324D";
layerId = "73934EF4-B254-4E4A-81A0-F0501A49D3FF";
name = path;
paths = (
{
closed = 1;
nodes = (
"555 187 OFFCURVE",
"492 0 OFFCURVE",
"287 0 CURVE SMOOTH",
"82 0 OFFCURVE",
"20 186 OFFCURVE",
"20 399 CURVE SMOOTH",
"20 605 OFFCURVE",
"48 800 OFFCURVE",
"287 800 CURVE SMOOTH",
"492 800 OFFCURVE",
"555 605 OFFCURVE",
"555 401 CURVE SMOOTH"
);
},
{
closed = 0;
nodes = (
"348 186 LINE",
"521 -113 LINE"
);
}
);
width = 575;
}
);
unicode = 0051;
},
{
glyphname = R;
lastChange = "2018-11-05 12:12:04 +0000";
layers = (
{
layerId = "6F4F10D2-8254-4335-A627-9F8D8891324D";
paths = (
{
closed = 1;
nodes = (
"415.853 -45 OFFCURVE",
"436 -24.853 OFFCURVE",
"436 0 CURVE SMOOTH",
"436 6.906 OFFCURVE",
"434.444 13.448 OFFCURVE",
"431.664 19.296 CURVE SMOOTH",
"299.074 314.034 LINE",
"359.71 332.267 OFFCURVE",
"440 383.59 OFFCURVE",
"440 528 CURVE SMOOTH",
"440 662.875 OFFCURVE",
"358.76 745 OFFCURVE",
"225 745 CURVE SMOOTH",
"52.534 745 LINE SMOOTH",
"29.411 745 OFFCURVE",
"13.491 738.491 OFFCURVE",
"-2.5 722.5 CURVE SMOOTH",
"-18.491 706.509 OFFCURVE",
"-25 690.589 OFFCURVE",
"-25 667.466 CURVE SMOOTH",
"-25 2 LINE SMOOTH",
"-25 -22.853 OFFCURVE",
"-4.853 -43 OFFCURVE",
"20 -43 CURVE SMOOTH",
"44.853 -43 OFFCURVE",
"65 -22.853 OFFCURVE",
"65 2 CURVE SMOOTH",
"65 304 LINE",
"204.899 304 LINE",
"349.554 -17.557 LINE SMOOTH",
"356.395 -33.687 OFFCURVE",
"372.376 -45 OFFCURVE",
"391 -45 CURVE SMOOTH"
);
},
{
closed = 1;
nodes = (
"65 655 LINE",
"225 655 LINE SMOOTH",
"308.844 655 OFFCURVE",
"350 613.046 OFFCURVE",
"350 528 CURVE SMOOTH",
"350 395.379 OFFCURVE",
"250.687 394 OFFCURVE",
"234 394 CURVE SMOOTH",
"65 394 LINE"
);
}
);
width = 469;
},
{
layerId = "25139FCF-725A-49A6-A058-8DCF5AC16622";
paths = (
{
closed = 0;
nodes = (
"20 2 LINE",
"20 800 LINE",
"254 800 LINE SMOOTH",
"284 800 OFFCURVE",
"449 800 OFFCURVE",
"449 603 CURVE SMOOTH",
"449 401 OFFCURVE",
"284 399 OFFCURVE",
"265 399 CURVE SMOOTH",
"42 399 LINE"
);
},
{
closed = 0;
nodes = (
"444 0 LINE",
"265 399 LINE"
);
}
);
width = 469;
},
{
layerId = "1AB63056-1127-463F-B001-FB2AC81901C9";
paths = (
{
closed = 0;
nodes = (
"20 2 LINE",
"20 800 LINE",
"254 800 LINE SMOOTH",
"284 800 OFFCURVE",
"449 800 OFFCURVE",
"449 603 CURVE SMOOTH",
"449 401 OFFCURVE",
"284 399 OFFCURVE",
"265 399 CURVE SMOOTH",
"42 399 LINE"
);
},
{
closed = 0;
nodes = (
"444 0 LINE",
"265 399 LINE"
);
}
);
width = 469;
},
{
associatedMasterId = "6F4F10D2-8254-4335-A627-9F8D8891324D";
layerId = "34D026D8-AE78-4916-8D56-C0C850113180";
name = path;
paths = (
{
closed = 0;
nodes = (
"20 2 LINE",
"20 700 LINE",
"225 700 LINE SMOOTH",
"251 700 OFFCURVE",
"395 700 OFFCURVE",
"395 528 CURVE SMOOTH",
"395 351 OFFCURVE",
"251 349 OFFCURVE",
"234 349 CURVE SMOOTH",
"39 349 LINE"
);
},
{
closed = 0;
nodes = (
"391 0 LINE",
"234 349 LINE"
);
}
);
visible = 1;
width = 469;
},
{
associatedMasterId = "6F4F10D2-8254-4335-A627-9F8D8891324D";
layerId = "71C7A59F-8B5D-4A6C-AB0B-CE743C051B21";
name = path;
paths = (
{
closed = 0;
nodes = (
"20 2 LINE",
"20 800 LINE",
"254 800 LINE SMOOTH",
"284 800 OFFCURVE",
"449 800 OFFCURVE",
"449 603 CURVE SMOOTH",
"449 401 OFFCURVE",
"284 399 OFFCURVE",
"265 399 CURVE SMOOTH",
"42 399 LINE"
);
},
{
closed = 0;
nodes = (
"444 0 LINE",
"265 399 LINE"
);
}
);
width = 469;
}
);
unicode = 0052;
},
{
glyphname = S;
lastChange = "2018-11-05 12:14:43 +0000";
layers = (
{
layerId = "6F4F10D2-8254-4335-A627-9F8D8891324D";
paths = (
{
closed = 1;
nodes = (
"422.696 -45 OFFCURVE",
"521 32.703 OFFCURVE",
"521 174 CURVE SMOOTH",
"521 287.604 OFFCURVE",
"426.817 363.602 OFFCURVE",
"254.911 394.299 CURVE SMOOTH",
"125.21 417.46 OFFCURVE",
"65 461.925 OFFCURVE",
"65 525 CURVE SMOOTH",
"65 613.365 OFFCURVE",
"119.305 655 OFFCURVE",
"247 655 CURVE SMOOTH",
"386.984 655 OFFCURVE",
"427.499 555.939 OFFCURVE",
"431.323 545.691 CURVE SMOOTH",
"437.302 527.853 OFFCURVE",
"454.149 515 OFFCURVE",
"474 515 CURVE SMOOTH",
"498.853 515 OFFCURVE",
"519 535.147 OFFCURVE",
"519 560 CURVE SMOOTH",
"519 565.609 OFFCURVE",
"517.973 570.979 OFFCURVE",
"516.098 575.931 CURVE SMOOTH",
"511.651 588.266 OFFCURVE",
"451.021 745 OFFCURVE",
"247 745 CURVE SMOOTH",
"72.856 745 OFFCURVE",
"-25 667.842 OFFCURVE",
"-25 525 CURVE SMOOTH",
"-25 411.227 OFFCURVE",
"67.558 336.331 OFFCURVE",
"239.089 305.701 CURVE SMOOTH",
"369.019 282.499 OFFCURVE",
"431 236.928 OFFCURVE",
"431 174 CURVE SMOOTH",
"431 86.672 OFFCURVE",
"375.059 45 OFFCURVE",
"247 45 CURVE SMOOTH",
"107.138 45 OFFCURVE",
"67.459 143.941 OFFCURVE",
"63.759 154.061 CURVE SMOOTH",
"57.854 172.027 OFFCURVE",
"40.943 185 OFFCURVE",
"21 185 CURVE SMOOTH",
"-3.853 185 OFFCURVE",
"-24 164.853 OFFCURVE",
"-24 140 CURVE SMOOTH",
"-24 134.512 OFFCURVE",
"-23.017 129.254 OFFCURVE",
"-21.219 124.391 CURVE SMOOTH",
"-17.013 112.456 OFFCURVE",
"42.459 -45 OFFCURVE",
"247 -45 CURVE SMOOTH"
);
}
);
width = 561;
},
{
layerId = "25139FCF-725A-49A6-A058-8DCF5AC16622";
paths = (
{
closed = 0;
nodes = (
"539 640 LINE",
"539 640 OFFCURVE",
"490 800 OFFCURVE",
"279 800 CURVE SMOOTH",
"63 800 OFFCURVE",
"20 722 OFFCURVE",
"20 600 CURVE SMOOTH",
"20 477 OFFCURVE",
"118 429 OFFCURVE",
"279 400 CURVE SMOOTH",
"442 371 OFFCURVE",
"541 328 OFFCURVE",
"541 199 CURVE SMOOTH",
"541 75 OFFCURVE",
"497 0 OFFCURVE",
"279 0 CURVE SMOOTH",
"70 0 OFFCURVE",
"21 160 OFFCURVE",
"21 160 CURVE"
);
}
);
width = 561;
},
{
layerId = "1AB63056-1127-463F-B001-FB2AC81901C9";
paths = (
{
closed = 0;
nodes = (
"539 640 LINE",
"539 640 OFFCURVE",
"490 800 OFFCURVE",
"279 800 CURVE SMOOTH",
"63 800 OFFCURVE",
"20 722 OFFCURVE",
"20 600 CURVE SMOOTH",
"20 477 OFFCURVE",
"118 429 OFFCURVE",
"279 400 CURVE SMOOTH",
"442 371 OFFCURVE",
"541 328 OFFCURVE",
"541 199 CURVE SMOOTH",
"541 75 OFFCURVE",
"497 0 OFFCURVE",
"279 0 CURVE SMOOTH",
"70 0 OFFCURVE",
"21 160 OFFCURVE",
"21 160 CURVE"
);
}
);
width = 561;
},
{
associatedMasterId = "6F4F10D2-8254-4335-A627-9F8D8891324D";
layerId = "4D974AB7-DD30-4321-8E36-5993838640D6";
name = path;
paths = (
{
closed = 0;
nodes = (
"474 560 LINE",
"474 560 OFFCURVE",
"427 700 OFFCURVE",
"247 700 CURVE SMOOTH",
"77 700 OFFCURVE",
"20 625 OFFCURVE",
"20 525 CURVE SMOOTH",
"20 430 OFFCURVE",
"107 375 OFFCURVE",
"247 350 CURVE SMOOTH",
"387 325 OFFCURVE",
"476 269 OFFCURVE",
"476 174 CURVE SMOOTH",
"476 74 OFFCURVE",
"417 0 OFFCURVE",
"247 0 CURVE SMOOTH",
"67 0 OFFCURVE",
"21 140 OFFCURVE",
"21 140 CURVE"
);
}
);
visible = 1;
width = 561;
},
{
associatedMasterId = "6F4F10D2-8254-4335-A627-9F8D8891324D";
layerId = "ADD7DF0D-6401-4E2B-A306-241D2B466D6E";
name = path;
paths = (
{
closed = 0;
nodes = (
"539 640 LINE",
"539 640 OFFCURVE",
"490 800 OFFCURVE",
"279 800 CURVE SMOOTH",
"63 800 OFFCURVE",
"20 722 OFFCURVE",
"20 600 CURVE SMOOTH",
"20 477 OFFCURVE",
"118 429 OFFCURVE",
"279 400 CURVE SMOOTH",
"442 371 OFFCURVE",
"541 328 OFFCURVE",
"541 199 CURVE SMOOTH",
"541 75 OFFCURVE",
"497 0 OFFCURVE",
"279 0 CURVE SMOOTH",
"70 0 OFFCURVE",
"21 160 OFFCURVE",
"21 160 CURVE"
);
}
);
width = 561;
}
);
unicode = 0053;
},
{
glyphname = T;
lastChange = "2018-11-05 12:14:59 +0000";
layers = (
{
layerId = "6F4F10D2-8254-4335-A627-9F8D8891324D";
paths = (
{
closed = 1;
nodes = (
"306.853 -45 OFFCURVE",
"327 -24.853 OFFCURVE",
"327 0 CURVE SMOOTH",
"327 655 LINE",
"539 655 LINE SMOOTH",
"563.853 655 OFFCURVE",
"584 675.147 OFFCURVE",
"584 700 CURVE SMOOTH",
"584 724.853 OFFCURVE",
"563.853 745 OFFCURVE",
"539 745 CURVE SMOOTH",
"20 745 LINE SMOOTH",
"-4.853 745 OFFCURVE",
"-25 724.853 OFFCURVE",
"-25 700 CURVE SMOOTH",
"-25 675.147 OFFCURVE",
"-4.853 655 OFFCURVE",
"20 655 CURVE SMOOTH",
"237 655 LINE",
"237 0 LINE SMOOTH",
"237 -24.853 OFFCURVE",
"257.147 -45 OFFCURVE",
"282 -45 CURVE SMOOTH"
);
}
);
width = 633;
},
{
layerId = "25139FCF-725A-49A6-A058-8DCF5AC16622";
paths = (
{
closed = 0;
nodes = (
"20 800 LINE",
"613 800 LINE"
);
},
{
closed = 0;
nodes = (
"319 0 LINE",
"319 800 LINE"
);
}
);
width = 633;
},
{
layerId = "1AB63056-1127-463F-B001-FB2AC81901C9";
paths = (
{
closed = 0;
nodes = (
"20 800 LINE",
"613 800 LINE"
);
},
{
closed = 0;
nodes = (
"319 0 LINE",
"319 800 LINE"
);
}
);
width = 633;
},
{
associatedMasterId = "6F4F10D2-8254-4335-A627-9F8D8891324D";
layerId = "FFB98EB9-09D2-47C8-A383-23584B986005";
name = path;
paths = (
{
closed = 0;
nodes = (
"20 700 LINE",
"539 700 LINE"
);
},
{
closed = 0;
nodes = (
"282 0 LINE",
"282 700 LINE"
);
}
);
visible = 1;
width = 633;
},
{
associatedMasterId = "6F4F10D2-8254-4335-A627-9F8D8891324D";
layerId = "9ADBBCD6-56A1-44AC-BA9F-F23A59A4DF23";
name = path;
paths = (
{
closed = 0;
nodes = (
"20 800 LINE",
"613 800 LINE"
);
},
{
closed = 0;
nodes = (
"319 0 LINE",
"319 800 LINE"
);
}
);
width = 633;
}
);
unicode = 0054;
},
{
glyphname = U;
lastChange = "2018-11-05 12:15:12 +0000";
layers = (
{
layerId = "6F4F10D2-8254-4335-A627-9F8D8891324D";
paths = (
{
closed = 1;
nodes = (
"409.457 -45 OFFCURVE",
"513 57.883 OFFCURVE",
"513 224 CURVE SMOOTH",
"513 700 LINE SMOOTH",
"513 724.853 OFFCURVE",
"492.853 745 OFFCURVE",
"468 745 CURVE SMOOTH",
"443.147 745 OFFCURVE",
"423 724.853 OFFCURVE",
"423 700 CURVE SMOOTH",
"423 224 LINE SMOOTH",
"423 107.574 OFFCURVE",
"359.766 45 OFFCURVE",
"244 45 CURVE SMOOTH",
"128.744 45 OFFCURVE",
"65 108.084 OFFCURVE",
"65 224 CURVE SMOOTH",
"65 700 LINE SMOOTH",
"65 724.853 OFFCURVE",
"44.853 745 OFFCURVE",
"20 745 CURVE SMOOTH",
"-4.853 745 OFFCURVE",
"-25 724.853 OFFCURVE",
"-25 700 CURVE SMOOTH",
"-25 224 LINE SMOOTH",
"-25 58.373 OFFCURVE",
"79.033 -45 OFFCURVE",
"244 -45 CURVE SMOOTH"
);
}
);
width = 552;
},
{
layerId = "25139FCF-725A-49A6-A058-8DCF5AC16622";
paths = (
{
closed = 0;
nodes = (
"532 800 LINE",
"532 256 LINE SMOOTH",
"532 77 OFFCURVE",
"418 0 OFFCURVE",
"276 0 CURVE SMOOTH",
"135 0 OFFCURVE",
"20 77 OFFCURVE",
"20 256 CURVE SMOOTH",
"20 800 LINE"
);
}
);
width = 552;
},
{
layerId = "1AB63056-1127-463F-B001-FB2AC81901C9";
paths = (
{
closed = 0;
nodes = (
"532 800 LINE",
"532 256 LINE SMOOTH",
"532 77 OFFCURVE",
"418 0 OFFCURVE",
"276 0 CURVE SMOOTH",
"135 0 OFFCURVE",
"20 77 OFFCURVE",
"20 256 CURVE SMOOTH",
"20 800 LINE"
);
}
);
width = 552;
},
{
associatedMasterId = "6F4F10D2-8254-4335-A627-9F8D8891324D";
layerId = "848500F8-4464-46BF-B7F9-C2ECC4D78F25";
name = path;
paths = (
{
closed = 0;
nodes = (
"468 700 LINE",
"468 224 LINE SMOOTH",
"468 67 OFFCURVE",
"368 0 OFFCURVE",
"244 0 CURVE SMOOTH",
"121 0 OFFCURVE",
"20 67 OFFCURVE",
"20 224 CURVE SMOOTH",
"20 700 LINE"
);
}
);
visible = 1;
width = 552;
},
{
associatedMasterId = "6F4F10D2-8254-4335-A627-9F8D8891324D";
layerId = "8D24600A-F8FF-4701-A007-13A8675B54A6";
name = path;
paths = (
{
closed = 0;
nodes = (
"532 800 LINE",
"532 256 LINE SMOOTH",
"532 77 OFFCURVE",
"418 0 OFFCURVE",
"276 0 CURVE SMOOTH",
"135 0 OFFCURVE",
"20 77 OFFCURVE",
"20 256 CURVE SMOOTH",
"20 800 LINE"
);
}
);
width = 552;
}
);
unicode = 0055;
},
{
glyphname = V;
lastChange = "2018-11-05 12:15:35 +0000";
layers = (
{
layerId = "6F4F10D2-8254-4335-A627-9F8D8891324D";
paths = (
{
closed = 1;
nodes = (
"282.963 -15.615 LINE SMOOTH",
"309.04 -15.615 OFFCURVE",
"325.425 -4.207 OFFCURVE",
"334.474 20.25 CURVE SMOOTH",
"579.849 683.427 LINE SMOOTH",
"581.882 688.556 OFFCURVE",
"583 694.147 OFFCURVE",
"583 700 CURVE SMOOTH",
"583 724.853 OFFCURVE",
"562.853 745 OFFCURVE",
"538 745 CURVE SMOOTH",
"518.282 745 OFFCURVE",
"501.527 732.318 OFFCURVE",
"495.445 714.666 CURVE SMOOTH",
"279 129.68 LINE",
"62.555 714.666 LINE SMOOTH",
"56.473 732.318 OFFCURVE",
"39.718 745 OFFCURVE",
"20 745 CURVE SMOOTH",
"-4.853 745 OFFCURVE",
"-25 724.853 OFFCURVE",
"-25 700 CURVE SMOOTH",
"-25 694.147 OFFCURVE",
"-23.882 688.556 OFFCURVE",
"-21.849 683.427 CURVE SMOOTH",
"223.526 20.25 LINE SMOOTH",
"232.575 -4.207 OFFCURVE",
"248.96 -15.615 OFFCURVE",
"275.037 -15.615 CURVE SMOOTH"
);
}
);
width = 632;
},
{
layerId = "25139FCF-725A-49A6-A058-8DCF5AC16622";
paths = (
{
closed = 0;
nodes = (
"20 800 LINE",
"316 0 LINE",
"612 800 LINE"
);
}
);
width = 632;
},
{
layerId = "1AB63056-1127-463F-B001-FB2AC81901C9";
paths = (
{
closed = 0;
nodes = (
"20 800 LINE",
"316 0 LINE",
"612 800 LINE"
);
}
);
width = 632;
},
{
associatedMasterId = "6F4F10D2-8254-4335-A627-9F8D8891324D";
layerId = "E6AF7CDB-8A76-4B13-A4F4-D042B56D95D5";
name = path;
paths = (
{
closed = 0;
nodes = (
"20 700 LINE",
"279 0 LINE",
"538 700 LINE"
);
}
);
visible = 1;
width = 632;
},
{
associatedMasterId = "6F4F10D2-8254-4335-A627-9F8D8891324D";
layerId = "386FACA0-5B50-4576-8C9E-904D0E76537F";
name = path;
paths = (
{
closed = 0;
nodes = (
"20 800 LINE",
"316 0 LINE",
"612 800 LINE"
);
}
);
width = 632;
}
);
unicode = 0056;
},
{
glyphname = W;
lastChange = "2018-11-05 12:15:51 +0000";
layers = (
{
layerId = "6F4F10D2-8254-4335-A627-9F8D8891324D";
paths = (
{
closed = 1;
nodes = (
"266.877 -15.113 OFFCURVE",
"283.525 -3.766 OFFCURVE",
"292.54 20.951 CURVE SMOOTH",
"454 463.664 LINE",
"615.46 20.951 LINE SMOOTH",
"624.475 -3.766 OFFCURVE",
"641.123 -15.113 OFFCURVE",
"667.424 -14.467 CURVE SMOOTH",
"675.282 -14.275 LINE SMOOTH",
"701.583 -13.629 OFFCURVE",
"717.654 -1.478 OFFCURVE",
"725.445 23.652 CURVE SMOOTH",
"930.676 685.689 LINE SMOOTH",
"932.183 690.185 OFFCURVE",
"933 694.997 OFFCURVE",
"933 700 CURVE SMOOTH",
"933 724.853 OFFCURVE",
"912.853 745 OFFCURVE",
"888 745 CURVE SMOOTH",
"867.429 745 OFFCURVE",
"850.082 731.197 OFFCURVE",
"844.715 712.347 CURVE SMOOTH",
"667.542 140.819 LINE",
"509.404 574.422 LINE SMOOTH",
"500.457 598.955 OFFCURVE",
"484.074 610.418 OFFCURVE",
"457.96 610.418 CURVE SMOOTH",
"450.04 610.418 LINE SMOOTH",
"423.926 610.418 OFFCURVE",
"407.543 598.955 OFFCURVE",
"398.596 574.422 CURVE SMOOTH",
"240.458 140.819 LINE",
"63.285 712.346 LINE SMOOTH",
"57.919 731.196 OFFCURVE",
"40.571 745 OFFCURVE",
"20 745 CURVE SMOOTH",
"-4.853 745 OFFCURVE",
"-25 724.853 OFFCURVE",
"-25 700 CURVE SMOOTH",
"-25 694.997 OFFCURVE",
"-24.183 690.185 OFFCURVE",
"-22.676 685.689 CURVE SMOOTH",
"182.555 23.652 LINE SMOOTH",
"190.346 -1.478 OFFCURVE",
"206.417 -13.629 OFFCURVE",
"232.718 -14.275 CURVE SMOOTH",
"240.576 -14.467 LINE SMOOTH"
);
}
);
width = 1032;
},
{
layerId = "25139FCF-725A-49A6-A058-8DCF5AC16622";
paths = (
{
closed = 0;
nodes = (
"20 800 LINE",
"268 0 LINE",
"516 680 LINE",
"764 0 LINE",
"1012 800 LINE"
);
}
);
width = 1032;
},
{
layerId = "1AB63056-1127-463F-B001-FB2AC81901C9";
paths = (
{
closed = 0;
nodes = (
"20 800 LINE",
"268 0 LINE",
"516 680 LINE",
"764 0 LINE",
"1012 800 LINE"
);
}
);
width = 1032;
},
{
associatedMasterId = "6F4F10D2-8254-4335-A627-9F8D8891324D";
layerId = "295B7420-E1EE-4D34-A2D9-D878D5D7A03F";
name = path;
paths = (
{
closed = 0;
nodes = (
"20 700 LINE",
"237 0 LINE",
"454 595 LINE",
"671 0 LINE",
"888 700 LINE"
);
}
);
visible = 1;
width = 1032;
},
{
associatedMasterId = "6F4F10D2-8254-4335-A627-9F8D8891324D";
layerId = "D1D3015B-6061-4D31-8DE6-07B69ADB8AE0";
name = path;
paths = (
{
closed = 0;
nodes = (
"20 800 LINE",
"268 0 LINE",
"516 680 LINE",
"764 0 LINE",
"1012 800 LINE"
);
}
);
width = 1032;
}
);
unicode = 0057;
},
{
glyphname = X;
lastChange = "2018-11-05 12:16:07 +0000";
layers = (
{
layerId = "6F4F10D2-8254-4335-A627-9F8D8891324D";
paths = (
{
closed = 1;
nodes = (
"35 -45 OFFCURVE",
"48.285 -37.661 OFFCURVE",
"56.461 -26.378 CURVE SMOOTH",
"279 274.35 LINE",
"501.539 -26.379 LINE SMOOTH",
"509.716 -37.661 OFFCURVE",
"523 -45 OFFCURVE",
"538 -45 CURVE SMOOTH",
"562.853 -45 OFFCURVE",
"583 -24.853 OFFCURVE",
"583 0 CURVE SMOOTH",
"583 10.17 OFFCURVE",
"579.625 19.552 OFFCURVE",
"573.936 27.089 CURVE SMOOTH",
"334.981 350 LINE",
"573.936 672.912 LINE SMOOTH",
"579.626 680.448 OFFCURVE",
"583 689.83 OFFCURVE",
"583 700 CURVE SMOOTH",
"583 724.853 OFFCURVE",
"562.853 745 OFFCURVE",
"538 745 CURVE SMOOTH",
"523 745 OFFCURVE",
"509.716 737.661 OFFCURVE",
"501.539 726.379 CURVE SMOOTH",
"279 425.65 LINE",
"56.462 726.378 LINE SMOOTH",
"48.285 737.661 OFFCURVE",
"35 745 OFFCURVE",
"20 745 CURVE SMOOTH",
"-4.853 745 OFFCURVE",
"-25 724.853 OFFCURVE",
"-25 700 CURVE SMOOTH",
"-25 689.83 OFFCURVE",
"-21.626 680.448 OFFCURVE",
"-15.936 672.912 CURVE SMOOTH",
"223.019 350 LINE",
"-15.936 27.089 LINE SMOOTH",
"-21.625 19.552 OFFCURVE",
"-25 10.17 OFFCURVE",
"-25 0 CURVE SMOOTH",
"-25 -24.853 OFFCURVE",
"-4.853 -45 OFFCURVE",
"20 -45 CURVE SMOOTH"
);
}
);
width = 632;
},
{
layerId = "25139FCF-725A-49A6-A058-8DCF5AC16622";
paths = (
{
closed = 0;
nodes = (
"20 800 LINE",
"612 0 LINE"
);
},
{
closed = 0;
nodes = (
"20 0 LINE",
"612 800 LINE"
);
}
);
width = 632;
},
{
layerId = "1AB63056-1127-463F-B001-FB2AC81901C9";
paths = (
{
closed = 0;
nodes = (
"20 800 LINE",
"612 0 LINE"
);
},
{
closed = 0;
nodes = (
"20 0 LINE",
"612 800 LINE"
);
}
);
width = 632;
},
{
associatedMasterId = "6F4F10D2-8254-4335-A627-9F8D8891324D";
layerId = "CAFA34F1-9382-4A5C-9473-41DF82FCCCEA";
name = path;
paths = (
{
closed = 0;
nodes = (
"20 700 LINE",
"538 0 LINE"
);
},
{
closed = 0;
nodes = (
"20 0 LINE",
"538 700 LINE"
);
}
);
visible = 1;
width = 632;
},
{
associatedMasterId = "6F4F10D2-8254-4335-A627-9F8D8891324D";
layerId = "C559197E-4E94-4F18-B898-900521D59D85";
name = path;
paths = (
{
closed = 0;
nodes = (
"20 800 LINE",
"612 0 LINE"
);
},
{
closed = 0;
nodes = (
"20 0 LINE",
"612 800 LINE"
);
}
);
width = 632;
}
);
unicode = 0058;
},
{
glyphname = Y;
lastChange = "2018-11-05 12:16:18 +0000";
layers = (
{
layerId = "6F4F10D2-8254-4335-A627-9F8D8891324D";
paths = (
{
closed = 1;
nodes = (
"259.853 -45 OFFCURVE",
"280 -24.853 OFFCURVE",
"280 0 CURVE SMOOTH",
"280 316.952 LINE",
"487.6 676.858 LINE SMOOTH",
"491.663 683.62 OFFCURVE",
"494 691.537 OFFCURVE",
"494 700 CURVE SMOOTH",
"494 724.853 OFFCURVE",
"473.853 745 OFFCURVE",
"449 745 CURVE SMOOTH",
"432.037 745 OFFCURVE",
"417.267 735.614 OFFCURVE",
"409.598 721.753 CURVE SMOOTH",
"234.91 418.905 LINE",
"59.349 721.85 LINE SMOOTH",
"51.665 735.658 OFFCURVE",
"36.924 745 OFFCURVE",
"20 745 CURVE SMOOTH",
"-4.853 745 OFFCURVE",
"-25 724.853 OFFCURVE",
"-25 700 CURVE SMOOTH",
"-25 691.516 OFFCURVE",
"-22.652 683.581 OFFCURVE",
"-18.57 676.808 CURVE SMOOTH",
"190 316.903 LINE",
"190 0 LINE SMOOTH",
"190 -24.853 OFFCURVE",
"210.147 -45 OFFCURVE",
"235 -45 CURVE SMOOTH"
);
}
);
width = 530;
},
{
layerId = "25139FCF-725A-49A6-A058-8DCF5AC16622";
paths = (
{
closed = 0;
nodes = (
"20 800 LINE",
"266 376 LINE",
"510 800 LINE"
);
},
{
closed = 0;
nodes = (
"266 0 LINE",
"266 376 LINE"
);
}
);
width = 530;
},
{
layerId = "1AB63056-1127-463F-B001-FB2AC81901C9";
paths = (
{
closed = 0;
nodes = (
"20 800 LINE",
"266 376 LINE",
"510 800 LINE"
);
},
{
closed = 0;
nodes = (
"266 0 LINE",
"266 376 LINE"
);
}
);
width = 530;
},
{
associatedMasterId = "6F4F10D2-8254-4335-A627-9F8D8891324D";
layerId = "859D0C5D-ED0E-4E84-AD74-037CD6AF6B68";
name = path;
paths = (
{
closed = 0;
nodes = (
"20 700 LINE",
"235 329 LINE",
"449 700 LINE"
);
},
{
closed = 0;
nodes = (
"235 0 LINE",
"235 329 LINE"
);
}
);
visible = 1;
width = 530;
},
{
associatedMasterId = "6F4F10D2-8254-4335-A627-9F8D8891324D";
layerId = "1303DFF8-C57C-448C-A5A3-6D7B4E844343";
name = path;
paths = (
{
closed = 0;
nodes = (
"20 800 LINE",
"266 376 LINE",
"510 800 LINE"
);
},
{
closed = 0;
nodes = (
"266 0 LINE",
"266 376 LINE"
);
}
);
width = 530;
}
);
unicode = 0059;
},
{
glyphname = Z;
lastChange = "2018-11-05 12:16:44 +0000";
layers = (
{
layerId = "6F4F10D2-8254-4335-A627-9F8D8891324D";
paths = (
{
closed = 1;
nodes = (
"502 -45 LINE SMOOTH",
"526.853 -45 OFFCURVE",
"547 -24.853 OFFCURVE",
"547 0 CURVE SMOOTH",
"547 24.853 OFFCURVE",
"526.853 45 OFFCURVE",
"502 45 CURVE SMOOTH",
"105.622 45 LINE",
"518.476 644.581 LINE SMOOTH",
"532.712 665.255 OFFCURVE",
"533.853 684.392 OFFCURVE",
"522.175 706.612 CURVE SMOOTH",
"518.888 712.867 LINE SMOOTH",
"507.21 735.087 OFFCURVE",
"490.801 745 OFFCURVE",
"465.699 745 CURVE SMOOTH",
"20 745 LINE SMOOTH",
"-4.853 745 OFFCURVE",
"-25 724.853 OFFCURVE",
"-25 700 CURVE SMOOTH",
"-25 675.147 OFFCURVE",
"-4.853 655 OFFCURVE",
"20 655 CURVE SMOOTH",
"416.378 655 LINE",
"3.524 55.419 LINE SMOOTH",
"-10.712 34.745 OFFCURVE",
"-11.853 15.608 OFFCURVE",
"-0.175 -6.612 CURVE SMOOTH",
"3.112 -12.867 LINE SMOOTH",
"14.79 -35.087 OFFCURVE",
"31.199 -45 OFFCURVE",
"56.301 -45 CURVE SMOOTH"
);
}
);
width = 591;
},
{
layerId = "25139FCF-725A-49A6-A058-8DCF5AC16622";
paths = (
{
closed = 0;
nodes = (
"20 800 LINE",
"571 798 LINE",
"20 0 LINE",
"571 0 LINE"
);
}
);
width = 591;
},
{
layerId = "1AB63056-1127-463F-B001-FB2AC81901C9";
paths = (
{
closed = 0;
nodes = (
"20 800 LINE",
"571 798 LINE",
"20 0 LINE",
"571 0 LINE"
);
}
);
width = 591;
},
{
associatedMasterId = "6F4F10D2-8254-4335-A627-9F8D8891324D";
layerId = "6700EA1E-D0FA-46D5-B94E-BDEFF808E497";
name = path;
paths = (
{
closed = 0;
nodes = (
"20 700 LINE",
"502 700 LINE",
"20 0 LINE",
"502 0 LINE"
);
}
);
visible = 1;
width = 591;
},
{
associatedMasterId = "6F4F10D2-8254-4335-A627-9F8D8891324D";
layerId = "7522518C-E318-473C-83FE-D7D0DAEC2436";
name = path;
paths = (
{
closed = 0;
nodes = (
"20 800 LINE",
"571 798 LINE",
"20 0 LINE",
"571 0 LINE"
);
}
);
width = 591;
}
);
unicode = 005A;
},
{
color = 1;
glyphname = a;
lastChange = "2018-10-05 15:20:36 +0000";
layers = (
{
layerId = "6F4F10D2-8254-4335-A627-9F8D8891324D";
paths = (
{
closed = 1;
nodes = (
"285 -45 OFFCURVE",
"336 -24 OFFCURVE",
"375 -1 CURVE",
"376 -25 OFFCURVE",
"396 -45 OFFCURVE",
"420 -45 CURVE SMOOTH",
"445 -45 OFFCURVE",
"465 -25 OFFCURVE",
"465 0 CURVE SMOOTH",
"465 341 LINE SMOOTH",
"465 462 OFFCURVE",
"379 545 OFFCURVE",
"252 545 CURVE SMOOTH",
"111 545 OFFCURVE",
"56 456 OFFCURVE",
"52 449 CURVE SMOOTH",
"47 443 OFFCURVE",
"45 435 OFFCURVE",
"45 426 CURVE SMOOTH",
"45 401 OFFCURVE",
"65 381 OFFCURVE",
"90 381 CURVE SMOOTH",
"107 381 OFFCURVE",
"121 390 OFFCURVE",
"129 403 CURVE SMOOTH",
"132 408 OFFCURVE",
"163 455 OFFCURVE",
"252 455 CURVE SMOOTH",
"330 455 OFFCURVE",
"375 412 OFFCURVE",
"375 341 CURVE SMOOTH",
"375 337 LINE",
"332 359 OFFCURVE",
"282 370 OFFCURVE",
"225 370 CURVE SMOOTH",
"115 370 OFFCURVE",
"30 281 OFFCURVE",
"30 169 CURVE SMOOTH",
"30 53 OFFCURVE",
"118 -45 OFFCURVE",
"225 -45 CURVE SMOOTH"
);
},
{
closed = 1;
nodes = (
"168 45 OFFCURVE",
"120 102 OFFCURVE",
"120 169 CURVE SMOOTH",
"120 231 OFFCURVE",
"165 280 OFFCURVE",
"225 280 CURVE SMOOTH",
"290 280 OFFCURVE",
"337 263 OFFCURVE",
"375 228 CURVE",
"375 110 LINE",
"355 92 OFFCURVE",
"298 45 OFFCURVE",
"225 45 CURVE SMOOTH"
);
}
);
visible = 1;
width = 495;
},
{
layerId = "25139FCF-725A-49A6-A058-8DCF5AC16622";
paths = (
{
closed = 0;
nodes = (
"361 86 LINE",
"361 86 OFFCURVE",
"258 0 OFFCURVE",
"166 0 CURVE SMOOTH",
"71 0 OFFCURVE",
"20 83 OFFCURVE",
"20 169 CURVE SMOOTH",
"20 237 OFFCURVE",
"72 326 OFFCURVE",
"173 326 CURVE SMOOTH",
"315 326 OFFCURVE",
"336 280 OFFCURVE",
"363 252 CURVE"
);
},
{
closed = 0;
nodes = (
"35 426 LINE",
"35 426 OFFCURVE",
"85 500 OFFCURVE",
"177 500 CURVE SMOOTH",
"270 500 OFFCURVE",
"365 479 OFFCURVE",
"365 341 CURVE SMOOTH",
"365 0 LINE"
);
}
);
width = 385;
},
{
layerId = "1AB63056-1127-463F-B001-FB2AC81901C9";
paths = (
{
closed = 0;
nodes = (
"361 86 LINE",
"361 86 OFFCURVE",
"258 0 OFFCURVE",
"166 0 CURVE SMOOTH",
"71 0 OFFCURVE",
"20 83 OFFCURVE",
"20 169 CURVE SMOOTH",
"20 237 OFFCURVE",
"72 326 OFFCURVE",
"173 326 CURVE SMOOTH",
"315 326 OFFCURVE",
"336 280 OFFCURVE",
"363 252 CURVE"
);
},
{
closed = 0;
nodes = (
"35 426 LINE",
"35 426 OFFCURVE",
"85 500 OFFCURVE",
"177 500 CURVE SMOOTH",
"270 500 OFFCURVE",
"365 479 OFFCURVE",
"365 341 CURVE SMOOTH",
"365 0 LINE"
);
}
);
width = 385;
},
{
associatedMasterId = "6F4F10D2-8254-4335-A627-9F8D8891324D";
layerId = "43D7AD1E-C1D3-45E5-B050-3F0288014DFB";
name = path;
paths = (
{
closed = 0;
nodes = (
"360 86 LINE",
"360 86 OFFCURVE",
"280 0 OFFCURVE",
"170 0 CURVE SMOOTH",
"60 0 OFFCURVE",
"20 99 OFFCURVE",
"20 169 CURVE SMOOTH",
"20 239 OFFCURVE",
"60 325 OFFCURVE",
"170 325 CURVE SMOOTH",
"280 325 OFFCURVE",
"333 280 OFFCURVE",
"360 252 CURVE"
);
},
{
closed = 0;
nodes = (
"35 426 LINE",
"35 426 OFFCURVE",
"79 500 OFFCURVE",
"197 500 CURVE SMOOTH",
"273 500 OFFCURVE",
"365 479 OFFCURVE",
"365 341 CURVE SMOOTH",
"365 0 LINE"
);
}
);
visible = 1;
width = 385;
},
{
associatedMasterId = "6F4F10D2-8254-4335-A627-9F8D8891324D";
layerId = "4703775F-500B-4E68-97CE-1D4396889A79";
name = path;
paths = (
{
closed = 0;
nodes = (
"361 86 LINE",
"361 86 OFFCURVE",
"258 0 OFFCURVE",
"166 0 CURVE SMOOTH",
"71 0 OFFCURVE",
"20 83 OFFCURVE",
"20 169 CURVE SMOOTH",
"20 237 OFFCURVE",
"72 326 OFFCURVE",
"173 326 CURVE SMOOTH",
"315 326 OFFCURVE",
"336 280 OFFCURVE",
"363 252 CURVE"
);
},
{
closed = 0;
nodes = (
"35 426 LINE",
"35 426 OFFCURVE",
"85 500 OFFCURVE",
"177 500 CURVE SMOOTH",
"270 500 OFFCURVE",
"365 479 OFFCURVE",
"365 341 CURVE SMOOTH",
"365 0 LINE"
);
}
);
width = 385;
},
{
associatedMasterId = "6F4F10D2-8254-4335-A627-9F8D8891324D";
layerId = "66BBD968-24C5-4053-8690-69E8429243B3";
name = "Oct 5 18, 17:18";
paths = (
{
closed = 0;
nodes = (
"360 86 LINE",
"360 86 OFFCURVE",
"280 0 OFFCURVE",
"170 0 CURVE SMOOTH",
"70 0 OFFCURVE",
"20 100 OFFCURVE",
"20 169 CURVE SMOOTH",
"20 239 OFFCURVE",
"70 325 OFFCURVE",
"170 325 CURVE SMOOTH",
"280 325 OFFCURVE",
"333 280 OFFCURVE",
"360 252 CURVE"
);
},
{
closed = 0;
nodes = (
"35 426 LINE",
"35 426 OFFCURVE",
"77 500 OFFCURVE",
"197 500 CURVE SMOOTH",
"317 500 OFFCURVE",
"365 419 OFFCURVE",
"365 341 CURVE SMOOTH",
"365 0 LINE"
);
}
);
width = 385;
}
);
unicode = 0061;
},
{
glyphname = b;
lastChange = "2018-11-05 11:57:00 +0000";
layers = (
{
layerId = "6F4F10D2-8254-4335-A627-9F8D8891324D";
paths = (
{
closed = 1;
nodes = (
"18.574 -45 OFFCURVE",
"34.519 -33.747 OFFCURVE",
"41.39 -17.686 CURVE",
"71.406 -33.106 OFFCURVE",
"110.577 -45 OFFCURVE",
"160 -45 CURVE SMOOTH",
"295.233 -45 OFFCURVE",
"395 82.569 OFFCURVE",
"395 250 CURVE SMOOTH",
"395 417.431 OFFCURVE",
"295.233 545 OFFCURVE",
"160 545 CURVE SMOOTH",
"116.052 545 OFFCURVE",
"77.574 537.539 OFFCURVE",
"45 522.484 CURVE",
"45 700 LINE SMOOTH",
"45 724.853 OFFCURVE",
"24.853 745 OFFCURVE",
"0 745 CURVE SMOOTH",
"-24.853 745 OFFCURVE",
"-45 724.853 OFFCURVE",
"-45 700 CURVE SMOOTH",
"-45 0 LINE SMOOTH",
"-45 -24.853 OFFCURVE",
"-24.853 -45 OFFCURVE",
"0 -45 CURVE SMOOTH"
);
},
{
closed = 1;
nodes = (
"93.542 45 OFFCURVE",
"58.596 74.708 OFFCURVE",
"45 90.008 CURVE",
"45 410.94 LINE",
"68.704 441.295 OFFCURVE",
"105.404 455 OFFCURVE",
"160 455 CURVE SMOOTH",
"242.513 455 OFFCURVE",
"305 368.347 OFFCURVE",
"305 250 CURVE SMOOTH",
"305 131.653 OFFCURVE",
"242.513 45 OFFCURVE",
"160 45 CURVE SMOOTH"
);
}
);
width = 390;
},
{
layerId = "25139FCF-725A-49A6-A058-8DCF5AC16622";
paths = (
{
closed = 0;
nodes = (
"20 700 LINE",
"20 0 LINE"
);
},
{
closed = 0;
nodes = (
"26 74 LINE",
"26 74 OFFCURVE",
"61 0 OFFCURVE",
"177 0 CURVE SMOOTH",
"295 0 OFFCURVE",
"370 84 OFFCURVE",
"370 251 CURVE SMOOTH",
"370 351 OFFCURVE",
"295 500 OFFCURVE",
"177 500 CURVE SMOOTH",
"61 500 OFFCURVE",
"26 426 OFFCURVE",
"26 426 CURVE"
);
}
);
width = 390;
},
{
layerId = "1AB63056-1127-463F-B001-FB2AC81901C9";
paths = (
{
closed = 0;
nodes = (
"20 700 LINE",
"20 0 LINE"
);
},
{
closed = 0;
nodes = (
"26 74 LINE",
"26 74 OFFCURVE",
"61 0 OFFCURVE",
"177 0 CURVE SMOOTH",
"295 0 OFFCURVE",
"370 84 OFFCURVE",
"370 251 CURVE SMOOTH",
"370 351 OFFCURVE",
"295 500 OFFCURVE",
"177 500 CURVE SMOOTH",
"61 500 OFFCURVE",
"26 426 OFFCURVE",
"26 426 CURVE"
);
}
);
width = 390;
},
{
associatedMasterId = "6F4F10D2-8254-4335-A627-9F8D8891324D";
layerId = "6580A50B-65CF-421A-8603-6C13D53647D6";
name = path;
paths = (
{
closed = 0;
nodes = (
"0 700 LINE",
"0 0 LINE"
);
},
{
closed = 0;
nodes = (
"0 425 LINE",
"10 441 OFFCURVE",
"45 500 OFFCURVE",
"160 500 CURVE SMOOTH",
"275 500 OFFCURVE",
"350 385 OFFCURVE",
"350 250 CURVE SMOOTH",
"350 115 OFFCURVE",
"275 0 OFFCURVE",
"160 0 CURVE SMOOTH",
"45 0 OFFCURVE",
"0 75 OFFCURVE",
"0 75 CURVE"
);
}
);
visible = 1;
width = 390;
},
{
associatedMasterId = "6F4F10D2-8254-4335-A627-9F8D8891324D";
layerId = "B0C38169-4A47-48D1-BCB7-D1D8A8532B1D";
name = path;
paths = (
{
closed = 0;
nodes = (
"20 700 LINE",
"20 0 LINE"
);
},
{
closed = 0;
nodes = (
"26 74 LINE",
"26 74 OFFCURVE",
"61 0 OFFCURVE",
"177 0 CURVE SMOOTH",
"295 0 OFFCURVE",
"370 84 OFFCURVE",
"370 251 CURVE SMOOTH",
"370 351 OFFCURVE",
"295 500 OFFCURVE",
"177 500 CURVE SMOOTH",
"61 500 OFFCURVE",
"26 426 OFFCURVE",
"26 426 CURVE"
);
}
);
width = 390;
},
{
associatedMasterId = "6F4F10D2-8254-4335-A627-9F8D8891324D";
layerId = "BC44C5E3-E52A-4D53-8C12-61F787413D29";
name = "Nov 5 18, 12:55";
paths = (
{
closed = 0;
nodes = (
"0 700 LINE",
"0 0 LINE"
);
},
{
closed = 0;
nodes = (
"0 425 LINE",
"-6 425 OFFCURVE",
"45 500 OFFCURVE",
"160 500 CURVE SMOOTH",
"275 500 OFFCURVE",
"350 385 OFFCURVE",
"350 250 CURVE SMOOTH",
"350 115 OFFCURVE",
"275 0 OFFCURVE",
"160 0 CURVE SMOOTH",
"45 0 OFFCURVE",
"0 75 OFFCURVE",
"0 75 CURVE"
);
}
);
width = 390;
}
);
unicode = 0062;
},
{
color = 1;
glyphname = c;
lastChange = "2018-10-05 15:36:00 +0000";
layers = (
{
layerId = "6F4F10D2-8254-4335-A627-9F8D8891324D";
paths = (
{
closed = 1;
nodes = (
"299.044 -45 OFFCURVE",
"364.013 -17.32 OFFCURVE",
"408.621 33.089 CURVE SMOOTH",
"415.699 41.04 OFFCURVE",
"420 51.518 OFFCURVE",
"420 63 CURVE SMOOTH",
"420 87.853 OFFCURVE",
"399.853 108 OFFCURVE",
"375 108 CURVE SMOOTH",
"361.574 108 OFFCURVE",
"349.522 102.12 OFFCURVE",
"341.277 92.795 CURVE SMOOTH",
"313.311 61.152 OFFCURVE",
"274.73 45 OFFCURVE",
"226 45 CURVE SMOOTH",
"123.682 45 OFFCURVE",
"65 118.057 OFFCURVE",
"65 250 CURVE SMOOTH",
"65 382.458 OFFCURVE",
"123.278 455 OFFCURVE",
"226 455 CURVE SMOOTH",
"274.73 455 OFFCURVE",
"313.311 438.848 OFFCURVE",
"341.277 407.205 CURVE SMOOTH",
"349.522 397.88 OFFCURVE",
"361.574 392 OFFCURVE",
"375 392 CURVE SMOOTH",
"399.853 392 OFFCURVE",
"420 412.147 OFFCURVE",
"420 437 CURVE SMOOTH",
"420 448.482 OFFCURVE",
"415.699 458.96 OFFCURVE",
"408.621 466.911 CURVE SMOOTH",
"364.013 517.32 OFFCURVE",
"299.044 545 OFFCURVE",
"226 545 CURVE SMOOTH",
"71.405 545 OFFCURVE",
"-25 431.203 OFFCURVE",
"-25 250 CURVE SMOOTH",
"-25 69.289 OFFCURVE",
"71.823 -45 OFFCURVE",
"226 -45 CURVE SMOOTH"
);
}
);
width = 539;
},
{
layerId = "25139FCF-725A-49A6-A058-8DCF5AC16622";
paths = (
{
closed = 0;
nodes = (
"356 384 LINE",
"376 426 LINE",
"376 426 OFFCURVE",
"351 500 OFFCURVE",
"214 500 CURVE SMOOTH",
"71 500 OFFCURVE",
"20 354 OFFCURVE",
"20 251 CURVE SMOOTH",
"20 136 OFFCURVE",
"71 0 OFFCURVE",
"214 0 CURVE SMOOTH",
"279 0 OFFCURVE",
"324 26 OFFCURVE",
"350 48 CURVE"
);
}
);
width = 539;
},
{
layerId = "1AB63056-1127-463F-B001-FB2AC81901C9";
paths = (
{
closed = 0;
nodes = (
"356 384 LINE",
"376 426 LINE",
"376 426 OFFCURVE",
"351 500 OFFCURVE",
"214 500 CURVE SMOOTH",
"71 500 OFFCURVE",
"20 354 OFFCURVE",
"20 251 CURVE SMOOTH",
"20 136 OFFCURVE",
"71 0 OFFCURVE",
"214 0 CURVE SMOOTH",
"279 0 OFFCURVE",
"324 26 OFFCURVE",
"350 48 CURVE"
);
}
);
width = 539;
},
{
associatedMasterId = "6F4F10D2-8254-4335-A627-9F8D8891324D";
layerId = "55BE9E8F-BB2C-4165-A12C-9EEFC24186A1";
name = path;
paths = (
{
closed = 0;
nodes = (
"376 426 LINE",
"376 426 OFFCURVE",
"351 500 OFFCURVE",
"214 500 CURVE SMOOTH",
"71 500 OFFCURVE",
"20 354 OFFCURVE",
"20 251 CURVE SMOOTH",
"20 136 OFFCURVE",
"71 0 OFFCURVE",
"214 0 CURVE SMOOTH",
"279 0 OFFCURVE",
"324 26 OFFCURVE",
"350 48 CURVE"
);
}
);
visible = 1;
width = 539;
},
{
associatedMasterId = "6F4F10D2-8254-4335-A627-9F8D8891324D";
layerId = "704B01B4-7E6C-4A1C-8B5B-CFE678337C9D";
name = path;
paths = (
{
closed = 0;
nodes = (
"356 384 LINE",
"376 426 LINE",
"376 426 OFFCURVE",
"351 500 OFFCURVE",
"214 500 CURVE SMOOTH",
"71 500 OFFCURVE",
"20 354 OFFCURVE",
"20 251 CURVE SMOOTH",
"20 136 OFFCURVE",
"71 0 OFFCURVE",
"214 0 CURVE SMOOTH",
"279 0 OFFCURVE",
"324 26 OFFCURVE",
"350 48 CURVE"
);
}
);
width = 539;
},
{
associatedMasterId = "6F4F10D2-8254-4335-A627-9F8D8891324D";
layerId = "9F12E5BB-ED97-4C17-B273-5B8D2CD19874";
name = "Oct 5 18, 17:32";
paths = (
{
closed = 0;
nodes = (
"375 437 LINE",
"337 480 OFFCURVE",
"284 500 OFFCURVE",
"226 500 CURVE SMOOTH",
"112 500 OFFCURVE",
"20 424 OFFCURVE",
"20 250 CURVE SMOOTH",
"20 77 OFFCURVE",
"112 0 OFFCURVE",
"226 0 CURVE SMOOTH",
"284 0 OFFCURVE",
"337 20 OFFCURVE",
"375 63 CURVE"
);
},
{
closed = 0;
nodes = (
"375 63 LINE"
);
}
);
width = 539;
}
);
unicode = 0063;
},
{
glyphname = d;
lastChange = "2018-11-05 11:56:38 +0000";
layers = (
{
layerId = "6F4F10D2-8254-4335-A627-9F8D8891324D";
paths = (
{
closed = 1;
nodes = (
"304 -45 OFFCURVE",
"344 -33 OFFCURVE",
"374 -18 CURVE",
"380 -34 OFFCURVE",
"396 -45 OFFCURVE",
"415 -45 CURVE SMOOTH",
"440 -45 OFFCURVE",
"460 -25 OFFCURVE",
"460 0 CURVE SMOOTH",
"460 700 LINE SMOOTH",
"460 725 OFFCURVE",
"440 745 OFFCURVE",
"415 745 CURVE SMOOTH",
"390 745 OFFCURVE",
"370 725 OFFCURVE",
"370 700 CURVE SMOOTH",
"370 522 LINE",
"337 537 OFFCURVE",
"298 545 OFFCURVE",
"255 545 CURVE SMOOTH",
"120 545 OFFCURVE",
"20 417 OFFCURVE",
"20 250 CURVE SMOOTH",
"20 83 OFFCURVE",
"120 -45 OFFCURVE",
"255 -45 CURVE SMOOTH"
);
},
{
closed = 1;
nodes = (
"172 45 OFFCURVE",
"110 132 OFFCURVE",
"110 250 CURVE SMOOTH",
"110 368 OFFCURVE",
"172 455 OFFCURVE",
"255 455 CURVE SMOOTH",
"307 455 OFFCURVE",
"350 439 OFFCURVE",
"370 412 CURVE",
"370 90 LINE",
"356 75 OFFCURVE",
"321 45 OFFCURVE",
"255 45 CURVE SMOOTH"
);
}
);
width = 480;
},
{
layerId = "25139FCF-725A-49A6-A058-8DCF5AC16622";
paths = (
{
closed = 0;
nodes = (
"370 700 LINE",
"370 0 LINE"
);
},
{
closed = 0;
nodes = (
"364 74 LINE",
"364 74 OFFCURVE",
"330 0 OFFCURVE",
"213 0 CURVE SMOOTH",
"96 0 OFFCURVE",
"20 85 OFFCURVE",
"20 250 CURVE SMOOTH",
"20 352 OFFCURVE",
"96 500 OFFCURVE",
"213 500 CURVE SMOOTH",
"330 500 OFFCURVE",
"364 426 OFFCURVE",
"364 426 CURVE"
);
}
);
width = 390;
},
{
layerId = "1AB63056-1127-463F-B001-FB2AC81901C9";
paths = (
{
closed = 0;
nodes = (
"370 700 LINE",
"370 0 LINE"
);
},
{
closed = 0;
nodes = (
"364 74 LINE",
"364 74 OFFCURVE",
"330 0 OFFCURVE",
"213 0 CURVE SMOOTH",
"96 0 OFFCURVE",
"20 85 OFFCURVE",
"20 250 CURVE SMOOTH",
"20 352 OFFCURVE",
"96 500 OFFCURVE",
"213 500 CURVE SMOOTH",
"330 500 OFFCURVE",
"364 426 OFFCURVE",
"364 426 CURVE"
);
}
);
width = 390;
},
{
associatedMasterId = "6F4F10D2-8254-4335-A627-9F8D8891324D";
layerId = "2EFAD946-830C-44B4-9E38-D6E001DC48C5";
name = path;
paths = (
{
closed = 0;
nodes = (
"350 700 LINE",
"350 0 LINE"
);
},
{
closed = 0;
nodes = (
"350 75 LINE",
"350 75 OFFCURVE",
"305 0 OFFCURVE",
"190 0 CURVE SMOOTH",
"75 0 OFFCURVE",
"0 115 OFFCURVE",
"0 250 CURVE SMOOTH",
"0 385 OFFCURVE",
"75 500 OFFCURVE",
"190 500 CURVE SMOOTH",
"305 500 OFFCURVE",
"340 441 OFFCURVE",
"350 425 CURVE"
);
}
);
visible = 1;
width = 350;
}
);
unicode = 0064;
},
{
color = 1;
glyphname = e;
lastChange = "2018-10-05 15:28:34 +0000";
layers = (
{
layerId = "6F4F10D2-8254-4335-A627-9F8D8891324D";
paths = (
{
closed = 1;
nodes = (
"397 -45 OFFCURVE",
"485 22 OFFCURVE",
"518 136 CURVE SMOOTH",
"519 140 OFFCURVE",
"520 144 OFFCURVE",
"520 149 CURVE SMOOTH",
"520 174 OFFCURVE",
"500 194 OFFCURVE",
"475 194 CURVE SMOOTH",
"454 194 OFFCURVE",
"437 180 OFFCURVE",
"431 160 CURVE SMOOTH",
"410 85 OFFCURVE",
"357 45 OFFCURVE",
"281 45 CURVE SMOOTH",
"180 45 OFFCURVE",
"121 116 OFFCURVE",
"120 245 CURVE",
"453 245 LINE SMOOTH",
"476 245 OFFCURVE",
"493 252 OFFCURVE",
"508 269 CURVE SMOOTH",
"524 287 OFFCURVE",
"530 304 OFFCURVE",
"526 327 CURVE SMOOTH",
"524 339 OFFCURVE",
"522 351 OFFCURVE",
"519 364 CURVE SMOOTH",
"518 366 LINE SMOOTH",
"485 478 OFFCURVE",
"397 545 OFFCURVE",
"281 545 CURVE SMOOTH",
"126 545 OFFCURVE",
"30 431 OFFCURVE",
"30 250 CURVE SMOOTH",
"30 69 OFFCURVE",
"127 -45 OFFCURVE",
"281 -45 CURVE SMOOTH"
);
},
{
closed = 1;
nodes = (
"151 413 OFFCURVE",
"203 455 OFFCURVE",
"281 455 CURVE SMOOTH",
"357 455 OFFCURVE",
"409 415 OFFCURVE",
"432 341 CURVE",
"432 339 OFFCURVE",
"433 337 OFFCURVE",
"433 335 CURVE",
"130 335 LINE"
);
}
);
width = 557;
},
{
layerId = "25139FCF-725A-49A6-A058-8DCF5AC16622";
paths = (
{
closed = 0;
nodes = (
"20 250 LINE",
"394 250 LINE",
"394 250 OFFCURVE",
"419 500 OFFCURVE",
"215 500 CURVE SMOOTH",
"72 500 OFFCURVE",
"20 354 OFFCURVE",
"20 250 CURVE SMOOTH",
"20 136 OFFCURVE",
"72 0 OFFCURVE",
"215 0 CURVE SMOOTH",
"279 0 OFFCURVE",
"324 27 OFFCURVE",
"350 48 CURVE"
);
}
);
width = 409;
},
{
layerId = "1AB63056-1127-463F-B001-FB2AC81901C9";
paths = (
{
closed = 0;
nodes = (
"20 250 LINE",
"394 250 LINE",
"394 250 OFFCURVE",
"419 500 OFFCURVE",
"215 500 CURVE SMOOTH",
"72 500 OFFCURVE",
"20 354 OFFCURVE",
"20 250 CURVE SMOOTH",
"20 136 OFFCURVE",
"72 0 OFFCURVE",
"215 0 CURVE SMOOTH",
"279 0 OFFCURVE",
"324 27 OFFCURVE",
"350 48 CURVE"
);
}
);
width = 409;
},
{
associatedMasterId = "6F4F10D2-8254-4335-A627-9F8D8891324D";
layerId = "FF7947BE-F7C1-4CFD-BDCB-A1964E48B8AF";
name = path;
paths = (
{
closed = 0;
nodes = (
"20 250 LINE",
"394 250 LINE",
"394 250 OFFCURVE",
"419 500 OFFCURVE",
"215 500 CURVE SMOOTH",
"72 500 OFFCURVE",
"20 354 OFFCURVE",
"20 250 CURVE SMOOTH",
"20 136 OFFCURVE",
"72 0 OFFCURVE",
"215 0 CURVE SMOOTH",
"279 0 OFFCURVE",
"324 27 OFFCURVE",
"350 48 CURVE"
);
}
);
width = 409;
},
{
associatedMasterId = "6F4F10D2-8254-4335-A627-9F8D8891324D";
layerId = "D4D4B3CF-4954-4027-A2B2-6D1686C3396A";
name = path;
paths = (
{
closed = 0;
nodes = (
"20 250 LINE",
"394 250 LINE",
"394 250 OFFCURVE",
"419 500 OFFCURVE",
"215 500 CURVE SMOOTH",
"72 500 OFFCURVE",
"20 354 OFFCURVE",
"20 250 CURVE SMOOTH",
"20 136 OFFCURVE",
"72 0 OFFCURVE",
"215 0 CURVE SMOOTH",
"279 0 OFFCURVE",
"324 27 OFFCURVE",
"350 48 CURVE"
);
}
);
width = 409;
},
{
associatedMasterId = "6F4F10D2-8254-4335-A627-9F8D8891324D";
guideLines = (
{
angle = 90;
position = "{420, 353}";
}
);
layerId = "6A9582F4-809D-4E33-9BD5-86EAA7BB2A53";
name = "Oct 5 18, 17:21";
paths = (
{
closed = 0;
nodes = (
"420 149 LINE",
"391 47 OFFCURVE",
"315 0 OFFCURVE",
"226 0 CURVE SMOOTH",
"112 0 OFFCURVE",
"20 77 OFFCURVE",
"20 250 CURVE SMOOTH",
"20 424 OFFCURVE",
"112 500 OFFCURVE",
"226 500 CURVE SMOOTH",
"314 500 OFFCURVE",
"390 454 OFFCURVE",
"420 353 CURVE SMOOTH",
"425 333 OFFCURVE",
"429 312 OFFCURVE",
"431 290 CURVE",
"30 290 LINE"
);
}
);
visible = 1;
width = 409;
}
);
unicode = 0065;
},
{
glyphname = f;
lastChange = "2018-11-13 20:50:27 +0000";
layers = (
{
layerId = "6F4F10D2-8254-4335-A627-9F8D8891324D";
paths = (
{
closed = 1;
nodes = (
"44.853 -45 OFFCURVE",
"65 -24.853 OFFCURVE",
"65 0 CURVE SMOOTH",
"65 373 LINE",
"202 373 LINE SMOOTH",
"226.853 373 OFFCURVE",
"247 393.147 OFFCURVE",
"247 418 CURVE SMOOTH",
"247 442.853 OFFCURVE",
"226.853 463 OFFCURVE",
"202 463 CURVE SMOOTH",
"65 463 LINE",
"65 524 LINE SMOOTH",
"65 629.798 OFFCURVE",
"75.166 655 OFFCURVE",
"126 655 CURVE SMOOTH",
"159.743 655 OFFCURVE",
"182.412 647.428 OFFCURVE",
"200.658 630.768 CURVE SMOOTH",
"208.659 623.459 OFFCURVE",
"219.309 619 OFFCURVE",
"231 619 CURVE SMOOTH",
"255.853 619 OFFCURVE",
"276 639.147 OFFCURVE",
"276 664 CURVE SMOOTH",
"276 677.162 OFFCURVE",
"270.349 689.003 OFFCURVE",
"261.342 697.232 CURVE SMOOTH",
"226.81 728.67 OFFCURVE",
"180.044 745 OFFCURVE",
"126 745 CURVE SMOOTH",
"-29.33 745 OFFCURVE",
"-25 596.345 OFFCURVE",
"-25 524 CURVE SMOOTH",
"-25 0 LINE SMOOTH",
"-25 -24.853 OFFCURVE",
"-4.853 -45 OFFCURVE",
"20 -45 CURVE SMOOTH"
);
}
);
width = 251;
},
{
layerId = "25139FCF-725A-49A6-A058-8DCF5AC16622";
paths = (
{
closed = 0;
nodes = (
"202 418 LINE",
"27 418 LINE"
);
},
{
closed = 0;
nodes = (
"20 0 LINE",
"20 0 OFFCURVE",
"20 279 OFFCURVE",
"20 421 CURVE SMOOTH",
"20 524 LINE SMOOTH",
"20 597 OFFCURVE",
"17 700 OFFCURVE",
"126 700 CURVE SMOOTH",
"175 700 OFFCURVE",
"208 685 OFFCURVE",
"231 664 CURVE"
);
}
);
width = 251;
},
{
layerId = "1AB63056-1127-463F-B001-FB2AC81901C9";
paths = (
{
closed = 0;
nodes = (
"202 418 LINE",
"27 418 LINE"
);
},
{
closed = 0;
nodes = (
"20 0 LINE",
"20 0 OFFCURVE",
"20 279 OFFCURVE",
"20 421 CURVE SMOOTH",
"20 524 LINE SMOOTH",
"20 597 OFFCURVE",
"17 700 OFFCURVE",
"126 700 CURVE SMOOTH",
"175 700 OFFCURVE",
"208 685 OFFCURVE",
"231 664 CURVE"
);
}
);
width = 251;
},
{
associatedMasterId = "6F4F10D2-8254-4335-A627-9F8D8891324D";
layerId = "E1DFB8B1-65CC-4325-9AE0-F0FCE1FB997A";
name = path;
paths = (
{
closed = 0;
nodes = (
"202 418 LINE",
"27 418 LINE"
);
},
{
closed = 0;
nodes = (
"20 0 LINE",
"20 0 OFFCURVE",
"20 279 OFFCURVE",
"20 421 CURVE SMOOTH",
"20 524 LINE SMOOTH",
"20 597 OFFCURVE",
"17 700 OFFCURVE",
"126 700 CURVE SMOOTH",
"175 700 OFFCURVE",
"208 685 OFFCURVE",
"231 664 CURVE"
);
}
);
visible = 1;
width = 251;
},
{
associatedMasterId = "6F4F10D2-8254-4335-A627-9F8D8891324D";
layerId = "C318330C-ACE9-4D95-A5F6-9B2412CE266B";
name = path;
paths = (
{
closed = 0;
nodes = (
"202 418 LINE",
"27 418 LINE"
);
},
{
closed = 0;
nodes = (
"20 0 LINE",
"20 0 OFFCURVE",
"20 279 OFFCURVE",
"20 421 CURVE SMOOTH",
"20 524 LINE SMOOTH",
"20 597 OFFCURVE",
"17 700 OFFCURVE",
"126 700 CURVE SMOOTH",
"175 700 OFFCURVE",
"208 685 OFFCURVE",
"231 664 CURVE"
);
}
);
width = 251;
}
);
unicode = 0066;
},
{
glyphname = g;
lastChange = "2018-11-06 15:07:50 +0000";
layers = (
{
layerId = "6F4F10D2-8254-4335-A627-9F8D8891324D";
paths = (
{
closed = 1;
nodes = (
"326.23 -245 OFFCURVE",
"415 -157.108 OFFCURVE",
"415 -30 CURVE SMOOTH",
"415 500 LINE SMOOTH",
"415 524.853 OFFCURVE",
"394.853 545 OFFCURVE",
"370 545 CURVE SMOOTH",
"351.426 545 OFFCURVE",
"335.481 533.747 OFFCURVE",
"328.609 517.686 CURVE",
"298.594 533.106 OFFCURVE",
"259.422 545 OFFCURVE",
"210 545 CURVE SMOOTH",
"74.767 545 OFFCURVE",
"-25 417.431 OFFCURVE",
"-25 250 CURVE SMOOTH",
"-25 82.569 OFFCURVE",
"74.767 -45 OFFCURVE",
"210 -45 CURVE SMOOTH",
"253.948 -45 OFFCURVE",
"292.427 -37.539 OFFCURVE",
"325 -22.484 CURVE",
"325 -30 LINE SMOOTH",
"325 -107.15 OFFCURVE",
"276.475 -155 OFFCURVE",
"198 -155 CURVE SMOOTH",
"117.33 -155 OFFCURVE",
"65 -104.838 OFFCURVE",
"65 -30 CURVE SMOOTH",
"65 -5.147 OFFCURVE",
"44.853 15 OFFCURVE",
"20 15 CURVE SMOOTH",
"-4.853 15 OFFCURVE",
"-25 -5.147 OFFCURVE",
"-25 -30 CURVE SMOOTH",
"-25 -155.217 OFFCURVE",
"68.368 -245 OFFCURVE",
"198 -245 CURVE SMOOTH"
);
},
{
closed = 1;
nodes = (
"127.487 45 OFFCURVE",
"65 131.653 OFFCURVE",
"65 250 CURVE SMOOTH",
"65 368.347 OFFCURVE",
"127.487 455 OFFCURVE",
"210 455 CURVE SMOOTH",
"276.458 455 OFFCURVE",
"311.404 425.292 OFFCURVE",
"325 409.992 CURVE",
"325 89.06 LINE",
"301.296 58.705 OFFCURVE",
"264.597 45 OFFCURVE",
"210 45 CURVE SMOOTH"
);
}
);
width = 386;
},
{
layerId = "25139FCF-725A-49A6-A058-8DCF5AC16622";
paths = (
{
closed = 0;
nodes = (
"364 425 LINE",
"364 425 OFFCURVE",
"329 500 OFFCURVE",
"213 500 CURVE SMOOTH",
"83 500 OFFCURVE",
"20 415 OFFCURVE",
"20 249 CURVE SMOOTH",
"20 123 OFFCURVE",
"81 0 OFFCURVE",
"213 0 CURVE SMOOTH",
"329 0 OFFCURVE",
"364 73 OFFCURVE",
"364 73 CURVE"
);
},
{
closed = 0;
nodes = (
"366 500 LINE",
"366 500 OFFCURVE",
"366 169 OFFCURVE",
"366 0 CURVE SMOOTH",
"366 -121 LINE SMOOTH",
"366 -208 OFFCURVE",
"369 -331 OFFCURVE",
"239 -331 CURVE SMOOTH",
"123 -331 OFFCURVE",
"81 -261 OFFCURVE",
"65 -198 CURVE"
);
}
);
width = 386;
},
{
layerId = "1AB63056-1127-463F-B001-FB2AC81901C9";
paths = (
{
closed = 0;
nodes = (
"364 425 LINE",
"364 425 OFFCURVE",
"329 500 OFFCURVE",
"213 500 CURVE SMOOTH",
"83 500 OFFCURVE",
"20 415 OFFCURVE",
"20 249 CURVE SMOOTH",
"20 123 OFFCURVE",
"81 0 OFFCURVE",
"213 0 CURVE SMOOTH",
"329 0 OFFCURVE",
"364 73 OFFCURVE",
"364 73 CURVE"
);
},
{
closed = 0;
nodes = (
"366 500 LINE",
"366 500 OFFCURVE",
"366 169 OFFCURVE",
"366 0 CURVE SMOOTH",
"366 -121 LINE SMOOTH",
"366 -208 OFFCURVE",
"369 -331 OFFCURVE",
"239 -331 CURVE SMOOTH",
"123 -331 OFFCURVE",
"81 -261 OFFCURVE",
"65 -198 CURVE"
);
}
);
width = 386;
},
{
associatedMasterId = "6F4F10D2-8254-4335-A627-9F8D8891324D";
layerId = "9698DB69-C01F-41DE-8F34-79EB3B12F7C2";
name = path;
paths = (
{
closed = 0;
nodes = (
"370 500 LINE",
"370 -30 LINE",
"370 -120 OFFCURVE",
"313 -200 OFFCURVE",
"198 -200 CURVE SMOOTH",
"83 -200 OFFCURVE",
"20 -120 OFFCURVE",
"20 -30 CURVE SMOOTH"
);
},
{
closed = 0;
nodes = (
"370 75 LINE",
"360 59 OFFCURVE",
"325 0 OFFCURVE",
"210 0 CURVE SMOOTH",
"95 0 OFFCURVE",
"20 115 OFFCURVE",
"20 250 CURVE SMOOTH",
"20 385 OFFCURVE",
"95 500 OFFCURVE",
"210 500 CURVE SMOOTH",
"325 500 OFFCURVE",
"370 425 OFFCURVE",
"370 425 CURVE"
);
}
);
visible = 1;
width = 386;
}
);
unicode = 0067;
},
{
color = 1;
glyphname = h;
lastChange = "2018-10-05 11:54:53 +0000";
layers = (
{
layerId = "25139FCF-725A-49A6-A058-8DCF5AC16622";
paths = (
{
closed = 0;
nodes = (
"0.354 0 LINE",
"0 700 LINE"
);
},
{
closed = 0;
nodes = (
"3 397 LINE",
"3 397 OFFCURVE",
"66 500 OFFCURVE",
"171 500 CURVE",
"294 500 OFFCURVE",
"336 458 OFFCURVE",
"336 400 CURVE",
"336 333 OFFCURVE",
"336 0 OFFCURVE",
"336 0 CURVE"
);
}
);
width = 600;
},
{
layerId = "1AB63056-1127-463F-B001-FB2AC81901C9";
paths = (
{
closed = 0;
nodes = (
"0.354 0 LINE",
"0 700 LINE"
);
},
{
closed = 0;
nodes = (
"3 397 LINE",
"3 397 OFFCURVE",
"66 500 OFFCURVE",
"171 500 CURVE",
"294 500 OFFCURVE",
"336 458 OFFCURVE",
"336 400 CURVE",
"336 333 OFFCURVE",
"336 0 OFFCURVE",
"336 0 CURVE"
);
}
);
width = 600;
},
{
associatedMasterId = "6F4F10D2-8254-4335-A627-9F8D8891324D";
layerId = "5131BE62-B943-4723-810F-DCD50F33B664";
name = path;
paths = (
{
closed = 0;
nodes = (
"0.354 0 LINE",
"0 700 LINE"
);
},
{
closed = 0;
nodes = (
"3 397 LINE",
"3 397 OFFCURVE",
"66 500 OFFCURVE",
"171 500 CURVE",
"294 500 OFFCURVE",
"336 458 OFFCURVE",
"336 400 CURVE",
"336 333 OFFCURVE",
"336 0 OFFCURVE",
"336 0 CURVE"
);
}
);
width = 600;
},
{
associatedMasterId = "6F4F10D2-8254-4335-A627-9F8D8891324D";
layerId = "5B91E27D-8A62-4757-90C0-9F6F30B0B6D8";
name = "Oct 5 18, 13:32";
paths = (
{
closed = 1;
nodes = (
"11.4 -20 OFFCURVE",
"20.354 -11.046 OFFCURVE",
"20.354 0 CURVE",
"20.158 386.718 LINE",
"24.181 393.093 OFFCURVE",
"80.653 480 OFFCURVE",
"171 480 CURVE SMOOTH",
"270.776 480 OFFCURVE",
"316 453.231 OFFCURVE",
"316 400 CURVE SMOOTH",
"316 0 LINE SMOOTH",
"316 -11.046 OFFCURVE",
"324.954 -20 OFFCURVE",
"336 -20 CURVE SMOOTH",
"347.046 -20 OFFCURVE",
"356 -11.046 OFFCURVE",
"356 0 CURVE SMOOTH",
"356 400 LINE SMOOTH",
"356 479.434 OFFCURVE",
"291.431 520 OFFCURVE",
"171 520 CURVE SMOOTH",
"103.065 520 OFFCURVE",
"51.361 481.608 OFFCURVE",
"20.127 449.709 CURVE",
"20 700.01 LINE SMOOTH",
"19.994 711.051 OFFCURVE",
"11.043 720 OFFCURVE",
"0 720 CURVE SMOOTH",
"-11.046 720 OFFCURVE",
"-20 711.046 OFFCURVE",
"-20 700 CURVE SMOOTH",
"-19.646 -0.01 LINE SMOOTH",
"-19.64 -11.051 OFFCURVE",
"-10.689 -20 OFFCURVE",
"0.354 -20 CURVE SMOOTH"
);
}
);
width = 600;
},
{
layerId = "6F4F10D2-8254-4335-A627-9F8D8891324D";
paths = (
{
closed = 1;
nodes = (
"430 -45 OFFCURVE",
"450 -25 OFFCURVE",
"450 0 CURVE SMOOTH",
"450 370 LINE SMOOTH",
"450 474 OFFCURVE",
"365 545 OFFCURVE",
"240 545 CURVE SMOOTH",
"194 545 OFFCURVE",
"153 535 OFFCURVE",
"120 518 CURVE",
"120 700 LINE SMOOTH",
"120 725 OFFCURVE",
"100 745 OFFCURVE",
"75 745 CURVE SMOOTH",
"50 745 OFFCURVE",
"30 725 OFFCURVE",
"30 700 CURVE SMOOTH",
"30 0 LINE SMOOTH",
"30 -29 OFFCURVE",
"46 -45 OFFCURVE",
"75 -45 CURVE SMOOTH",
"104 -45 OFFCURVE",
"120 -29 OFFCURVE",
"120 0 CURVE SMOOTH",
"120 370 LINE SMOOTH",
"120 422 OFFCURVE",
"165 455 OFFCURVE",
"240 455 CURVE SMOOTH",
"316 455 OFFCURVE",
"360 422 OFFCURVE",
"360 370 CURVE SMOOTH",
"360 0 LINE SMOOTH",
"360 -25 OFFCURVE",
"380 -45 OFFCURVE",
"405 -45 CURVE SMOOTH"
);
}
);
visible = 1;
width = 480;
},
{
associatedMasterId = "6F4F10D2-8254-4335-A627-9F8D8891324D";
layerId = "5094BE9F-D049-482C-A719-C94CCDA7C24D";
name = path;
paths = (
{
closed = 0;
nodes = (
"0.354 0 LINE",
"0 700 LINE"
);
},
{
closed = 0;
nodes = (
"3 397 LINE",
"3 397 OFFCURVE",
"66 500 OFFCURVE",
"171 500 CURVE",
"294 500 OFFCURVE",
"336 458 OFFCURVE",
"336 400 CURVE",
"336 333 OFFCURVE",
"336 0 OFFCURVE",
"336 0 CURVE"
);
}
);
width = 600;
},
{
associatedMasterId = "6F4F10D2-8254-4335-A627-9F8D8891324D";
layerId = "720342CA-F558-45B2-9D2C-62F418710A28";
name = "Oct 5 18, 13:32";
paths = (
{
closed = 1;
nodes = (
"11.4 -20 OFFCURVE",
"20.354 -11.046 OFFCURVE",
"20.354 0 CURVE",
"20.158 386.718 LINE",
"24.181 393.093 OFFCURVE",
"80.653 480 OFFCURVE",
"171 480 CURVE SMOOTH",
"270.776 480 OFFCURVE",
"316 453.231 OFFCURVE",
"316 400 CURVE SMOOTH",
"316 0 LINE SMOOTH",
"316 -11.046 OFFCURVE",
"324.954 -20 OFFCURVE",
"336 -20 CURVE SMOOTH",
"347.046 -20 OFFCURVE",
"356 -11.046 OFFCURVE",
"356 0 CURVE SMOOTH",
"356 400 LINE SMOOTH",
"356 479.434 OFFCURVE",
"291.431 520 OFFCURVE",
"171 520 CURVE SMOOTH",
"103.065 520 OFFCURVE",
"51.361 481.608 OFFCURVE",
"20.127 449.709 CURVE",
"20 700.01 LINE SMOOTH",
"19.994 711.051 OFFCURVE",
"11.043 720 OFFCURVE",
"0 720 CURVE SMOOTH",
"-11.046 720 OFFCURVE",
"-20 711.046 OFFCURVE",
"-20 700 CURVE SMOOTH",
"-19.646 -0.01 LINE SMOOTH",
"-19.64 -11.051 OFFCURVE",
"-10.689 -20 OFFCURVE",
"0.354 -20 CURVE SMOOTH"
);
}
);
width = 600;
}
);
unicode = 0068;
},
{
glyphname = i;
lastChange = "2018-11-13 20:52:53 +0000";
layers = (
{
layerId = "6F4F10D2-8254-4335-A627-9F8D8891324D";
paths = (
{
closed = 1;
nodes = (
"44.853 -45 OFFCURVE",
"65 -24.853 OFFCURVE",
"65 0 CURVE SMOOTH",
"65 500 LINE SMOOTH",
"65 524.853 OFFCURVE",
"44.853 545 OFFCURVE",
"20 545 CURVE SMOOTH",
"-4.853 545 OFFCURVE",
"-25 524.853 OFFCURVE",
"-25 500 CURVE SMOOTH",
"-25 0 LINE SMOOTH",
"-25 -24.853 OFFCURVE",
"-4.853 -45 OFFCURVE",
"20 -45 CURVE SMOOTH"
);
}
);
width = 40;
},
{
layerId = "25139FCF-725A-49A6-A058-8DCF5AC16622";
paths = (
{
closed = 0;
nodes = (
"20 0 LINE",
"20 500 LINE"
);
},
{
closed = 0;
nodes = (
"20 667 LINE"
);
}
);
width = 40;
},
{
layerId = "1AB63056-1127-463F-B001-FB2AC81901C9";
paths = (
{
closed = 0;
nodes = (
"20 0 LINE",
"20 500 LINE"
);
},
{
closed = 0;
nodes = (
"20 667 LINE"
);
}
);
width = 40;
},
{
associatedMasterId = "6F4F10D2-8254-4335-A627-9F8D8891324D";
layerId = "3966C843-B7D4-4C34-B8AF-CEDBBC2568F4";
name = path;
paths = (
{
closed = 0;
nodes = (
"20 0 LINE",
"20 500 LINE"
);
},
{
closed = 0;
nodes = (
"20 667 LINE"
);
}
);
width = 40;
},
{
associatedMasterId = "6F4F10D2-8254-4335-A627-9F8D8891324D";
layerId = "2FD5FCC1-80F4-4036-BCC6-7242C1494DEC";
name = path;
paths = (
{
closed = 0;
nodes = (
"20 0 LINE",
"20 500 LINE"
);
},
{
closed = 0;
nodes = (
"20 667 LINE"
);
}
);
width = 40;
}
);
unicode = 0069;
},
{
glyphname = j;
lastChange = "2018-11-13 20:53:13 +0000";
layers = (
{
layerId = "6F4F10D2-8254-4335-A627-9F8D8891324D";
paths = (
{
closed = 1;
nodes = (
"273.9 -245 OFFCURVE",
"271 -98.554 OFFCURVE",
"271 -28 CURVE SMOOTH",
"271 500 LINE SMOOTH",
"271 524.853 OFFCURVE",
"250.853 545 OFFCURVE",
"226 545 CURVE SMOOTH",
"201.147 545 OFFCURVE",
"181 524.853 OFFCURVE",
"181 500 CURVE SMOOTH",
"181 -28 LINE SMOOTH",
"181 -129.767 OFFCURVE",
"170.872 -155 OFFCURVE",
"123 -155 CURVE SMOOTH",
"89.866 -155 OFFCURVE",
"67.575 -147.834 OFFCURVE",
"49.633 -132.134 CURVE SMOOTH",
"41.717 -125.202 OFFCURVE",
"31.349 -121 OFFCURVE",
"20 -121 CURVE SMOOTH",
"-4.853 -121 OFFCURVE",
"-25 -141.147 OFFCURVE",
"-25 -166 CURVE SMOOTH",
"-25 -179.504 OFFCURVE",
"-19.052 -191.617 OFFCURVE",
"-9.633 -199.866 CURVE SMOOTH",
"24.404 -229.523 OFFCURVE",
"70.382 -245 OFFCURVE",
"123 -245 CURVE SMOOTH"
);
}
);
width = 284;
},
{
layerId = "25139FCF-725A-49A6-A058-8DCF5AC16622";
paths = (
{
closed = 0;
nodes = (
"264 500 LINE",
"264 500 OFFCURVE",
"264 157 OFFCURVE",
"264 -8 CURVE SMOOTH",
"264 -126 LINE SMOOTH",
"264 -210 OFFCURVE",
"267 -330 OFFCURVE",
"142 -330 CURVE SMOOTH",
"87 -330 OFFCURVE",
"48 -314 OFFCURVE",
"20 -290 CURVE"
);
}
);
width = 284;
},
{
layerId = "1AB63056-1127-463F-B001-FB2AC81901C9";
paths = (
{
closed = 0;
nodes = (
"264 500 LINE",
"264 500 OFFCURVE",
"264 157 OFFCURVE",
"264 -8 CURVE SMOOTH",
"264 -126 LINE SMOOTH",
"264 -210 OFFCURVE",
"267 -330 OFFCURVE",
"142 -330 CURVE SMOOTH",
"87 -330 OFFCURVE",
"48 -314 OFFCURVE",
"20 -290 CURVE"
);
}
);
width = 284;
},
{
associatedMasterId = "6F4F10D2-8254-4335-A627-9F8D8891324D";
layerId = "5A27AB66-550C-4BB1-B930-98BA9523F95F";
name = path;
paths = (
{
closed = 0;
nodes = (
"226 500 LINE",
"226 500 OFFCURVE",
"226 211 OFFCURVE",
"226 72 CURVE SMOOTH",
"226 -28 LINE SMOOTH",
"226 -99 OFFCURVE",
"228 -200 OFFCURVE",
"123 -200 CURVE SMOOTH",
"77 -200 OFFCURVE",
"44 -187 OFFCURVE",
"20 -166 CURVE"
);
}
);
visible = 1;
width = 284;
},
{
associatedMasterId = "6F4F10D2-8254-4335-A627-9F8D8891324D";
layerId = "66CE0DE5-A426-4255-80EC-D88941F9989B";
name = path;
paths = (
{
closed = 0;
nodes = (
"264 500 LINE",
"264 500 OFFCURVE",
"264 157 OFFCURVE",
"264 -8 CURVE SMOOTH",
"264 -126 LINE SMOOTH",
"264 -210 OFFCURVE",
"267 -330 OFFCURVE",
"142 -330 CURVE SMOOTH",
"87 -330 OFFCURVE",
"48 -314 OFFCURVE",
"20 -290 CURVE"
);
}
);
width = 284;
}
);
unicode = 006A;
},
{
color = 4;
glyphname = k;
lastChange = "2018-11-13 20:52:41 +0000";
layers = (
{
layerId = "6F4F10D2-8254-4335-A627-9F8D8891324D";
paths = (
{
closed = 1;
nodes = (
"44.853 -45 OFFCURVE",
"65 -24.853 OFFCURVE",
"65 0 CURVE SMOOTH",
"65 189.36 LINE",
"120.258 244.618 LINE",
"272.535 -21.639 LINE SMOOTH",
"280.186 -35.563 OFFCURVE",
"294.991 -45 OFFCURVE",
"312 -45 CURVE SMOOTH",
"336.853 -45 OFFCURVE",
"357 -24.853 OFFCURVE",
"357 0 CURVE SMOOTH",
"357 8.396 OFFCURVE",
"354.7 16.255 OFFCURVE",
"350.697 22.981 CURVE SMOOTH",
"186.216 310.576 LINE",
"343.82 468.18 LINE SMOOTH",
"351.963 476.323 OFFCURVE",
"357 487.573 OFFCURVE",
"357 500 CURVE SMOOTH",
"357 524.853 OFFCURVE",
"336.853 545 OFFCURVE",
"312 545 CURVE SMOOTH",
"299.573 545 OFFCURVE",
"288.323 539.963 OFFCURVE",
"280.18 531.82 CURVE SMOOTH",
"65 316.64 LINE",
"65 700 LINE SMOOTH",
"65 724.853 OFFCURVE",
"44.853 745 OFFCURVE",
"20 745 CURVE SMOOTH",
"-4.853 745 OFFCURVE",
"-25 724.853 OFFCURVE",
"-25 700 CURVE SMOOTH",
"-25 0 LINE SMOOTH",
"-25 -24.853 OFFCURVE",
"-4.853 -45 OFFCURVE",
"20 -45 CURVE SMOOTH"
);
}
);
width = 332;
},
{
layerId = "25139FCF-725A-49A6-A058-8DCF5AC16622";
paths = (
{
closed = 0;
nodes = (
"20 0 LINE",
"20 700 LINE"
);
},
{
closed = 0;
nodes = (
"312 500 LINE",
"20 208 LINE"
);
},
{
closed = 0;
nodes = (
"312 0 LINE",
"145 292 LINE"
);
}
);
width = 332;
},
{
layerId = "1AB63056-1127-463F-B001-FB2AC81901C9";
paths = (
{
closed = 0;
nodes = (
"20 0 LINE",
"20 700 LINE"
);
},
{
closed = 0;
nodes = (
"312 500 LINE",
"20 208 LINE"
);
},
{
closed = 0;
nodes = (
"312 0 LINE",
"145 292 LINE"
);
}
);
width = 332;
},
{
associatedMasterId = "6F4F10D2-8254-4335-A627-9F8D8891324D";
layerId = "F26C5B55-654E-4D1D-AFC2-2BC73BDB521E";
name = path;
paths = (
{
closed = 0;
nodes = (
"20 0 LINE",
"20 700 LINE"
);
},
{
closed = 0;
nodes = (
"312 500 LINE",
"20 208 LINE"
);
},
{
closed = 0;
nodes = (
"312 0 LINE",
"145 292 LINE"
);
}
);
visible = 1;
width = 332;
},
{
associatedMasterId = "6F4F10D2-8254-4335-A627-9F8D8891324D";
layerId = "2C47E659-83F1-4B67-8DC4-2358B683AAD3";
name = path;
paths = (
{
closed = 0;
nodes = (
"20 0 LINE",
"20 700 LINE"
);
},
{
closed = 0;
nodes = (
"312 500 LINE",
"20 208 LINE"
);
},
{
closed = 0;
nodes = (
"312 0 LINE",
"145 292 LINE"
);
}
);
width = 332;
}
);
unicode = 006B;
},
{
glyphname = l;
lastChange = "2018-10-05 15:27:47 +0000";
layers = (
{
layerId = "6F4F10D2-8254-4335-A627-9F8D8891324D";
paths = (
{
closed = 1;
nodes = (
"100 -45 OFFCURVE",
"120 -25 OFFCURVE",
"120 0 CURVE SMOOTH",
"120 700 LINE SMOOTH",
"120 725 OFFCURVE",
"100 745 OFFCURVE",
"75 745 CURVE SMOOTH",
"50 745 OFFCURVE",
"30 725 OFFCURVE",
"30 700 CURVE SMOOTH",
"30 0 LINE SMOOTH",
"30 -25 OFFCURVE",
"50 -45 OFFCURVE",
"75 -45 CURVE SMOOTH"
);
}
);
width = 150;
},
{
layerId = "25139FCF-725A-49A6-A058-8DCF5AC16622";
paths = (
{
closed = 0;
nodes = (
"20 700 LINE",
"20 0 LINE"
);
}
);
width = 40;
},
{
layerId = "1AB63056-1127-463F-B001-FB2AC81901C9";
paths = (
{
closed = 0;
nodes = (
"20 700 LINE",
"20 0 LINE"
);
}
);
width = 40;
},
{
associatedMasterId = "6F4F10D2-8254-4335-A627-9F8D8891324D";
layerId = "6468C33E-C6D4-42E5-8DE7-FA7B36001286";
name = path;
paths = (
{
closed = 0;
nodes = (
"20 700 LINE",
"20 0 LINE"
);
}
);
visible = 1;
width = 40;
},
{
associatedMasterId = "6F4F10D2-8254-4335-A627-9F8D8891324D";
layerId = "23BBF823-8CC9-4585-A41C-982356E2521F";
name = path;
paths = (
{
closed = 0;
nodes = (
"20 700 LINE",
"20 0 LINE"
);
}
);
width = 40;
}
);
unicode = 006C;
},
{
color = 1;
glyphname = m;
lastChange = "2018-10-05 11:54:39 +0000";
layers = (
{
layerId = "25139FCF-725A-49A6-A058-8DCF5AC16622";
paths = (
{
closed = 0;
nodes = (
"20 0 LINE",
"20 499 LINE"
);
},
{
closed = 0;
nodes = (
"20 397 LINE",
"20 397 OFFCURVE",
"104 500 OFFCURVE",
"188 500 CURVE SMOOTH",
"312 500 OFFCURVE",
"353 458 OFFCURVE",
"353 400 CURVE SMOOTH",
"353 0 LINE"
);
},
{
closed = 0;
nodes = (
"353 397 LINE",
"353 397 OFFCURVE",
"436 500 OFFCURVE",
"521 500 CURVE SMOOTH",
"644 500 OFFCURVE",
"686 458 OFFCURVE",
"686 400 CURVE SMOOTH",
"686 0 LINE"
);
}
);
width = 706;
},
{
layerId = "1AB63056-1127-463F-B001-FB2AC81901C9";
paths = (
{
closed = 0;
nodes = (
"20 0 LINE",
"20 499 LINE"
);
},
{
closed = 0;
nodes = (
"20 397 LINE",
"20 397 OFFCURVE",
"104 500 OFFCURVE",
"188 500 CURVE SMOOTH",
"312 500 OFFCURVE",
"353 458 OFFCURVE",
"353 400 CURVE SMOOTH",
"353 0 LINE"
);
},
{
closed = 0;
nodes = (
"353 397 LINE",
"353 397 OFFCURVE",
"436 500 OFFCURVE",
"521 500 CURVE SMOOTH",
"644 500 OFFCURVE",
"686 458 OFFCURVE",
"686 400 CURVE SMOOTH",
"686 0 LINE"
);
}
);
width = 706;
},
{
associatedMasterId = "6F4F10D2-8254-4335-A627-9F8D8891324D";
layerId = "FBCD9E58-2354-48AA-A8CD-D7F607E73EF8";
name = path;
paths = (
{
closed = 0;
nodes = (
"20 0 LINE",
"20 499 LINE"
);
},
{
closed = 0;
nodes = (
"20 397 LINE",
"20 397 OFFCURVE",
"104 500 OFFCURVE",
"188 500 CURVE SMOOTH",
"312 500 OFFCURVE",
"353 458 OFFCURVE",
"353 400 CURVE SMOOTH",
"353 0 LINE"
);
},
{
closed = 0;
nodes = (
"353 397 LINE",
"353 397 OFFCURVE",
"436 500 OFFCURVE",
"521 500 CURVE SMOOTH",
"644 500 OFFCURVE",
"686 458 OFFCURVE",
"686 400 CURVE SMOOTH",
"686 0 LINE"
);
}
);
visible = 1;
width = 706;
},
{
associatedMasterId = "6F4F10D2-8254-4335-A627-9F8D8891324D";
layerId = "4C8419B5-8A07-4AAD-92CD-00A236D49F1D";
name = "Oct 5 18, 13:28";
paths = (
{
closed = 0;
nodes = (
"0 500 LINE",
"0 0 LINE",
"0 370 LINE SMOOTH",
"0 427 OFFCURVE",
"41 500 OFFCURVE",
"165 500 CURVE SMOOTH",
"289 500 OFFCURVE",
"330 428 OFFCURVE",
"330 370 CURVE SMOOTH",
"330 0 LINE",
"330 370 LINE SMOOTH",
"330 427 OFFCURVE",
"371 500 OFFCURVE",
"495 500 CURVE SMOOTH",
"619 500 OFFCURVE",
"660 428 OFFCURVE",
"660 370 CURVE SMOOTH",
"660 0 LINE"
);
}
);
visible = 1;
width = 706;
},
{
layerId = "6F4F10D2-8254-4335-A627-9F8D8891324D";
paths = (
{
closed = 1;
nodes = (
"760 -45 OFFCURVE",
"780 -25 OFFCURVE",
"780 0 CURVE SMOOTH",
"780 370 LINE SMOOTH",
"780 474 OFFCURVE",
"695 545 OFFCURVE",
"570 545 CURVE SMOOTH",
"500 545 OFFCURVE",
"442 523 OFFCURVE",
"405 484 CURVE",
"368 523 OFFCURVE",
"310 545 OFFCURVE",
"240 545 CURVE SMOOTH",
"193 545 OFFCURVE",
"151 535 OFFCURVE",
"117 516 CURVE",
"111 533 OFFCURVE",
"94 545 OFFCURVE",
"75 545 CURVE SMOOTH",
"50 545 OFFCURVE",
"30 525 OFFCURVE",
"30 500 CURVE SMOOTH",
"30 0 LINE SMOOTH",
"30 -29 OFFCURVE",
"46 -45 OFFCURVE",
"75 -45 CURVE SMOOTH",
"104 -45 OFFCURVE",
"120 -29 OFFCURVE",
"120 0 CURVE SMOOTH",
"120 370 LINE SMOOTH",
"120 422 OFFCURVE",
"165 455 OFFCURVE",
"240 455 CURVE SMOOTH",
"316 455 OFFCURVE",
"360 422 OFFCURVE",
"360 370 CURVE SMOOTH",
"360 0 LINE SMOOTH",
"360 -29 OFFCURVE",
"376 -45 OFFCURVE",
"405 -45 CURVE SMOOTH",
"434 -45 OFFCURVE",
"450 -29 OFFCURVE",
"450 0 CURVE SMOOTH",
"450 370 LINE SMOOTH",
"450 422 OFFCURVE",
"495 455 OFFCURVE",
"570 455 CURVE SMOOTH",
"646 455 OFFCURVE",
"690 422 OFFCURVE",
"690 370 CURVE SMOOTH",
"690 0 LINE SMOOTH",
"690 -25 OFFCURVE",
"710 -45 OFFCURVE",
"735 -45 CURVE SMOOTH"
);
}
);
width = 810;
},
{
associatedMasterId = "6F4F10D2-8254-4335-A627-9F8D8891324D";
layerId = "657E32C5-FD6B-42C8-9072-D9109477E7D2";
name = path;
paths = (
{
closed = 0;
nodes = (
"20 0 LINE",
"20 499 LINE"
);
},
{
closed = 0;
nodes = (
"20 397 LINE",
"20 397 OFFCURVE",
"104 500 OFFCURVE",
"188 500 CURVE SMOOTH",
"312 500 OFFCURVE",
"353 458 OFFCURVE",
"353 400 CURVE SMOOTH",
"353 0 LINE"
);
},
{
closed = 0;
nodes = (
"353 397 LINE",
"353 397 OFFCURVE",
"436 500 OFFCURVE",
"521 500 CURVE SMOOTH",
"644 500 OFFCURVE",
"686 458 OFFCURVE",
"686 400 CURVE SMOOTH",
"686 0 LINE"
);
}
);
width = 706;
},
{
associatedMasterId = "6F4F10D2-8254-4335-A627-9F8D8891324D";
layerId = "A8EC7EFF-FBDE-479C-8D49-DA634DCE7832";
name = "Oct 5 18, 13:28";
paths = (
{
closed = 0;
nodes = (
"0 500 LINE",
"0 0 LINE",
"0 370 LINE SMOOTH",
"0 427 OFFCURVE",
"41 500 OFFCURVE",
"165 500 CURVE SMOOTH",
"289 500 OFFCURVE",
"330 428 OFFCURVE",
"330 370 CURVE SMOOTH",
"330 0 LINE",
"330 370 LINE SMOOTH",
"330 427 OFFCURVE",
"371 500 OFFCURVE",
"495 500 CURVE SMOOTH",
"619 500 OFFCURVE",
"660 428 OFFCURVE",
"660 370 CURVE SMOOTH",
"660 0 LINE"
);
}
);
width = 706;
}
);
unicode = 006D;
},
{
color = 1;
glyphname = n;
lastChange = "2018-10-05 11:54:48 +0000";
layers = (
{
layerId = "25139FCF-725A-49A6-A058-8DCF5AC16622";
paths = (
{
closed = 0;
nodes = (
"0.354 0 LINE",
"0 500 LINE"
);
},
{
closed = 0;
nodes = (
"0 397 LINE",
"0 397 OFFCURVE",
"84 500 OFFCURVE",
"168 500 CURVE SMOOTH",
"292 500 OFFCURVE",
"333 458 OFFCURVE",
"333 400 CURVE SMOOTH",
"333 0 LINE"
);
}
);
width = 600;
},
{
layerId = "1AB63056-1127-463F-B001-FB2AC81901C9";
paths = (
{
closed = 0;
nodes = (
"0.354 0 LINE",
"0 500 LINE"
);
},
{
closed = 0;
nodes = (
"0 397 LINE",
"0 397 OFFCURVE",
"84 500 OFFCURVE",
"168 500 CURVE SMOOTH",
"292 500 OFFCURVE",
"333 458 OFFCURVE",
"333 400 CURVE SMOOTH",
"333 0 LINE"
);
}
);
width = 600;
},
{
associatedMasterId = "6F4F10D2-8254-4335-A627-9F8D8891324D";
layerId = "A8D31436-2892-46E5-8A13-FCFFD2A97782";
name = path;
paths = (
{
closed = 0;
nodes = (
"0.354 0 LINE",
"0 500 LINE"
);
},
{
closed = 0;
nodes = (
"0 397 LINE",
"0 397 OFFCURVE",
"84 500 OFFCURVE",
"168 500 CURVE SMOOTH",
"292 500 OFFCURVE",
"333 458 OFFCURVE",
"333 400 CURVE SMOOTH",
"333 0 LINE"
);
}
);
visible = 1;
width = 600;
},
{
associatedMasterId = "6F4F10D2-8254-4335-A627-9F8D8891324D";
layerId = "7F76A847-1BCE-438E-B265-82904D811F39";
name = "Oct 5 18, 13:17";
paths = (
{
closed = 0;
nodes = (
"0 500 LINE",
"0 0 LINE",
"0 370 LINE SMOOTH",
"0 427 OFFCURVE",
"41 500 OFFCURVE",
"165 500 CURVE SMOOTH",
"289 500 OFFCURVE",
"330 428 OFFCURVE",
"330 370 CURVE SMOOTH",
"330 0 LINE"
);
}
);
width = 600;
},
{
layerId = "6F4F10D2-8254-4335-A627-9F8D8891324D";
paths = (
{
closed = 1;
nodes = (
"430 -45 OFFCURVE",
"450 -25 OFFCURVE",
"450 0 CURVE SMOOTH",
"450 370 LINE SMOOTH",
"450 474 OFFCURVE",
"365 545 OFFCURVE",
"240 545 CURVE SMOOTH",
"193 545 OFFCURVE",
"151 535 OFFCURVE",
"117 516 CURVE",
"111 533 OFFCURVE",
"94 545 OFFCURVE",
"75 545 CURVE SMOOTH",
"50 545 OFFCURVE",
"30 525 OFFCURVE",
"30 500 CURVE SMOOTH",
"30 0 LINE SMOOTH",
"30 -29 OFFCURVE",
"46 -45 OFFCURVE",
"75 -45 CURVE SMOOTH",
"104 -45 OFFCURVE",
"120 -29 OFFCURVE",
"120 0 CURVE SMOOTH",
"120 370 LINE SMOOTH",
"120 422 OFFCURVE",
"165 455 OFFCURVE",
"240 455 CURVE SMOOTH",
"316 455 OFFCURVE",
"360 422 OFFCURVE",
"360 370 CURVE SMOOTH",
"360 0 LINE SMOOTH",
"360 -25 OFFCURVE",
"380 -45 OFFCURVE",
"405 -45 CURVE SMOOTH"
);
}
);
width = 480;
},
{
associatedMasterId = "6F4F10D2-8254-4335-A627-9F8D8891324D";
layerId = "DF74B8AB-2905-49A8-9BEB-005D4F543BF7";
name = path;
paths = (
{
closed = 0;
nodes = (
"0.354 0 LINE",
"0 500 LINE"
);
},
{
closed = 0;
nodes = (
"0 397 LINE",
"0 397 OFFCURVE",
"84 500 OFFCURVE",
"168 500 CURVE SMOOTH",
"292 500 OFFCURVE",
"333 458 OFFCURVE",
"333 400 CURVE SMOOTH",
"333 0 LINE"
);
}
);
width = 600;
},
{
associatedMasterId = "6F4F10D2-8254-4335-A627-9F8D8891324D";
layerId = "9C08B25F-7C4A-4213-9257-946E10A84CE4";
name = "Oct 5 18, 13:17";
paths = (
{
closed = 0;
nodes = (
"0 500 LINE",
"0 0 LINE",
"0 370 LINE SMOOTH",
"0 427 OFFCURVE",
"41 500 OFFCURVE",
"165 500 CURVE SMOOTH",
"289 500 OFFCURVE",
"330 428 OFFCURVE",
"330 370 CURVE SMOOTH",
"330 0 LINE"
);
}
);
width = 600;
}
);
unicode = 006E;
},
{
color = 4;
glyphname = o;
lastChange = "2018-10-05 15:12:51 +0000";
layers = (
{
layerId = "6F4F10D2-8254-4335-A627-9F8D8891324D";
paths = (
{
closed = 1;
nodes = (
"436 -45 OFFCURVE",
"533 70 OFFCURVE",
"533 250 CURVE SMOOTH",
"533 431 OFFCURVE",
"436 545 OFFCURVE",
"281 545 CURVE SMOOTH",
"126 545 OFFCURVE",
"30 431 OFFCURVE",
"30 250 CURVE SMOOTH",
"30 69 OFFCURVE",
"127 -45 OFFCURVE",
"281 -45 CURVE SMOOTH"
);
},
{
closed = 1;
nodes = (
"179 45 OFFCURVE",
"120 118 OFFCURVE",
"120 250 CURVE SMOOTH",
"120 382 OFFCURVE",
"178 455 OFFCURVE",
"281 455 CURVE SMOOTH",
"384 455 OFFCURVE",
"443 382 OFFCURVE",
"443 250 CURVE SMOOTH",
"443 118 OFFCURVE",
"384 45 OFFCURVE",
"281 45 CURVE SMOOTH"
);
}
);
visible = 1;
width = 563;
},
{
layerId = "25139FCF-725A-49A6-A058-8DCF5AC16622";
paths = (
{
closed = 1;
nodes = (
"433 77 OFFCURVE",
"340 0 OFFCURVE",
"226 0 CURVE SMOOTH",
"112 0 OFFCURVE",
"20 77 OFFCURVE",
"20 250 CURVE SMOOTH",
"20 424 OFFCURVE",
"112 500 OFFCURVE",
"226 500 CURVE SMOOTH",
"340 500 OFFCURVE",
"433 424 OFFCURVE",
"433 250 CURVE SMOOTH"
);
}
);
width = 453;
},
{
layerId = "1AB63056-1127-463F-B001-FB2AC81901C9";
paths = (
{
closed = 1;
nodes = (
"433 77 OFFCURVE",
"340 0 OFFCURVE",
"226 0 CURVE SMOOTH",
"112 0 OFFCURVE",
"20 77 OFFCURVE",
"20 250 CURVE SMOOTH",
"20 424 OFFCURVE",
"112 500 OFFCURVE",
"226 500 CURVE SMOOTH",
"340 500 OFFCURVE",
"433 424 OFFCURVE",
"433 250 CURVE SMOOTH"
);
}
);
width = 453;
},
{
associatedMasterId = "6F4F10D2-8254-4335-A627-9F8D8891324D";
layerId = "F383D2E4-DDD1-4E4B-87EA-08B9D9509250";
name = path;
paths = (
{
closed = 1;
nodes = (
"433 77 OFFCURVE",
"340 0 OFFCURVE",
"226 0 CURVE SMOOTH",
"112 0 OFFCURVE",
"20 77 OFFCURVE",
"20 250 CURVE SMOOTH",
"20 424 OFFCURVE",
"112 500 OFFCURVE",
"226 500 CURVE SMOOTH",
"340 500 OFFCURVE",
"433 424 OFFCURVE",
"433 250 CURVE SMOOTH"
);
}
);
visible = 1;
width = 453;
},
{
associatedMasterId = "6F4F10D2-8254-4335-A627-9F8D8891324D";
layerId = "46E65D88-4B11-49A3-970F-FCDB19C2E235";
name = path;
paths = (
{
closed = 1;
nodes = (
"433 77 OFFCURVE",
"340 0 OFFCURVE",
"226 0 CURVE SMOOTH",
"112 0 OFFCURVE",
"20 77 OFFCURVE",
"20 250 CURVE SMOOTH",
"20 424 OFFCURVE",
"112 500 OFFCURVE",
"226 500 CURVE SMOOTH",
"340 500 OFFCURVE",
"433 424 OFFCURVE",
"433 250 CURVE SMOOTH"
);
}
);
width = 453;
}
);
unicode = 006F;
},
{
glyphname = oe;
lastChange = "2018-11-13 20:50:42 +0000";
layers = (
{
layerId = "6F4F10D2-8254-4335-A627-9F8D8891324D";
paths = (
{
closed = 1;
nodes = (
"305.673 -45 OFFCURVE",
"371.712 -14.144 OFFCURVE",
"415.901 41.396 CURVE",
"458.121 -14.512 OFFCURVE",
"519.383 -45 OFFCURVE",
"593 -45 CURVE SMOOTH",
"652.037 -45 OFFCURVE",
"710.906 -24.286 OFFCURVE",
"756.832 12.637 CURVE SMOOTH",
"767.287 20.877 OFFCURVE",
"774 33.654 OFFCURVE",
"774 48 CURVE SMOOTH",
"774 72.853 OFFCURVE",
"753.853 93 OFFCURVE",
"729 93 CURVE SMOOTH",
"718.21 93 OFFCURVE",
"708.307 89.202 OFFCURVE",
"700.555 82.87 CURVE SMOOTH",
"669.333 57.713 OFFCURVE",
"633.232 45 OFFCURVE",
"593 45 CURVE SMOOTH",
"531.249 45 OFFCURVE",
"487.797 76.868 OFFCURVE",
"462.985 141.194 CURVE SMOOTH",
"462.633 142.08 LINE SMOOTH",
"454.888 160.959 OFFCURVE",
"449.537 182.292 OFFCURVE",
"446.618 206 CURVE",
"734.138 206 LINE SMOOTH",
"756.896 206 OFFCURVE",
"772.379 211.63 OFFCURVE",
"788.325 225.704 CURVE SMOOTH",
"804.222 239.735 OFFCURVE",
"811.56 251.298 OFFCURVE",
"812.297 265.963 CURVE SMOOTH",
"812.593 271.876 OFFCURVE",
"812.811 278.846 OFFCURVE",
"812.811 286.577 CURVE SMOOTH",
"812.811 446.746 OFFCURVE",
"730.655 545 OFFCURVE",
"593 545 CURVE SMOOTH",
"520.788 545 OFFCURVE",
"459.797 513.745 OFFCURVE",
"416.955 456.677 CURVE",
"372.966 512.939 OFFCURVE",
"306.721 544 OFFCURVE",
"227 544 CURVE SMOOTH",
"71.801 544 OFFCURVE",
"-25 430.63 OFFCURVE",
"-25 250 CURVE SMOOTH",
"-25 69.599 OFFCURVE",
"72.5 -45 OFFCURVE",
"227 -45 CURVE SMOOTH"
);
},
{
closed = 1;
nodes = (
"124.302 45 OFFCURVE",
"65 118.428 OFFCURVE",
"65 250 CURVE SMOOTH",
"65 381.798 OFFCURVE",
"123.589 454 OFFCURVE",
"227 454 CURVE SMOOTH",
"296.732 454 OFFCURVE",
"345.42 421.488 OFFCURVE",
"369.49 359.176 CURVE",
"359.566 324.653 OFFCURVE",
"354 286.399 OFFCURVE",
"354 251 CURVE SMOOTH",
"354 211.217 OFFCURVE",
"359.201 172.273 OFFCURVE",
"368.897 138.343 CURVE",
"344.415 77.333 OFFCURVE",
"295.425 45 OFFCURVE",
"227 45 CURVE SMOOTH"
);
},
{
closed = 1;
nodes = (
"450.662 317.492 OFFCURVE",
"456.198 338.329 OFFCURVE",
"463.781 357.287 CURVE SMOOTH",
"490.194 422.375 OFFCURVE",
"533.816 455 OFFCURVE",
"593 455 CURVE SMOOTH",
"675.992 455 OFFCURVE",
"720.244 401.418 OFFCURVE",
"722.702 296 CURVE",
"447.406 296 LINE"
);
}
);
width = 788;
},
{
layerId = "25139FCF-725A-49A6-A058-8DCF5AC16622";
paths = (
{
closed = 0;
nodes = (
"399 251 LINE",
"766 251 LINE",
"766 251 OFFCURVE",
"798 500 OFFCURVE",
"593 500 CURVE SMOOTH",
"504 500 OFFCURVE",
"450 443 OFFCURVE",
"422 374 CURVE SMOOTH",
"406 334 OFFCURVE",
"399 289 OFFCURVE",
"399 251 CURVE SMOOTH",
"399 209 OFFCURVE",
"405 164 OFFCURVE",
"421 125 CURVE SMOOTH",
"448 55 OFFCURVE",
"502 0 OFFCURVE",
"593 0 CURVE SMOOTH",
"657 0 OFFCURVE",
"703 27 OFFCURVE",
"729 48 CURVE"
);
},
{
closed = 0;
nodes = (
"412 125 LINE",
"379 39 OFFCURVE",
"308 0 OFFCURVE",
"227 0 CURVE SMOOTH",
"113 0 OFFCURVE",
"20 77 OFFCURVE",
"20 250 CURVE SMOOTH",
"20 424 OFFCURVE",
"113 499 OFFCURVE",
"227 499 CURVE SMOOTH",
"308 499 OFFCURVE",
"379 461 OFFCURVE",
"412 374 CURVE"
);
}
);
width = 788;
},
{
layerId = "1AB63056-1127-463F-B001-FB2AC81901C9";
paths = (
{
closed = 0;
nodes = (
"399 251 LINE",
"766 251 LINE",
"766 251 OFFCURVE",
"798 500 OFFCURVE",
"593 500 CURVE SMOOTH",
"504 500 OFFCURVE",
"450 443 OFFCURVE",
"422 374 CURVE SMOOTH",
"406 334 OFFCURVE",
"399 289 OFFCURVE",
"399 251 CURVE SMOOTH",
"399 209 OFFCURVE",
"405 164 OFFCURVE",
"421 125 CURVE SMOOTH",
"448 55 OFFCURVE",
"502 0 OFFCURVE",
"593 0 CURVE SMOOTH",
"657 0 OFFCURVE",
"703 27 OFFCURVE",
"729 48 CURVE"
);
},
{
closed = 0;
nodes = (
"412 125 LINE",
"379 39 OFFCURVE",
"308 0 OFFCURVE",
"227 0 CURVE SMOOTH",
"113 0 OFFCURVE",
"20 77 OFFCURVE",
"20 250 CURVE SMOOTH",
"20 424 OFFCURVE",
"113 499 OFFCURVE",
"227 499 CURVE SMOOTH",
"308 499 OFFCURVE",
"379 461 OFFCURVE",
"412 374 CURVE"
);
}
);
width = 788;
},
{
associatedMasterId = "6F4F10D2-8254-4335-A627-9F8D8891324D";
layerId = "984BED48-9BB9-4FC1-817B-F0643E821B9B";
name = path;
paths = (
{
closed = 0;
nodes = (
"399 251 LINE",
"766 251 LINE",
"766 251 OFFCURVE",
"798 500 OFFCURVE",
"593 500 CURVE SMOOTH",
"504 500 OFFCURVE",
"450 443 OFFCURVE",
"422 374 CURVE SMOOTH",
"406 334 OFFCURVE",
"399 289 OFFCURVE",
"399 251 CURVE SMOOTH",
"399 209 OFFCURVE",
"405 164 OFFCURVE",
"421 125 CURVE SMOOTH",
"448 55 OFFCURVE",
"502 0 OFFCURVE",
"593 0 CURVE SMOOTH",
"657 0 OFFCURVE",
"703 27 OFFCURVE",
"729 48 CURVE"
);
},
{
closed = 0;
nodes = (
"412 125 LINE",
"379 39 OFFCURVE",
"308 0 OFFCURVE",
"227 0 CURVE SMOOTH",
"113 0 OFFCURVE",
"20 77 OFFCURVE",
"20 250 CURVE SMOOTH",
"20 424 OFFCURVE",
"113 499 OFFCURVE",
"227 499 CURVE SMOOTH",
"308 499 OFFCURVE",
"379 461 OFFCURVE",
"412 374 CURVE"
);
}
);
visible = 1;
width = 788;
},
{
associatedMasterId = "6F4F10D2-8254-4335-A627-9F8D8891324D";
layerId = "CC17E45F-9DA9-4565-86F7-185DE52BDF2D";
name = path;
paths = (
{
closed = 0;
nodes = (
"399 251 LINE",
"766 251 LINE",
"766 251 OFFCURVE",
"798 500 OFFCURVE",
"593 500 CURVE SMOOTH",
"504 500 OFFCURVE",
"450 443 OFFCURVE",
"422 374 CURVE SMOOTH",
"406 334 OFFCURVE",
"399 289 OFFCURVE",
"399 251 CURVE SMOOTH",
"399 209 OFFCURVE",
"405 164 OFFCURVE",
"421 125 CURVE SMOOTH",
"448 55 OFFCURVE",
"502 0 OFFCURVE",
"593 0 CURVE SMOOTH",
"657 0 OFFCURVE",
"703 27 OFFCURVE",
"729 48 CURVE"
);
},
{
closed = 0;
nodes = (
"412 125 LINE",
"379 39 OFFCURVE",
"308 0 OFFCURVE",
"227 0 CURVE SMOOTH",
"113 0 OFFCURVE",
"20 77 OFFCURVE",
"20 250 CURVE SMOOTH",
"20 424 OFFCURVE",
"113 499 OFFCURVE",
"227 499 CURVE SMOOTH",
"308 499 OFFCURVE",
"379 461 OFFCURVE",
"412 374 CURVE"
);
}
);
width = 788;
}
);
unicode = 0153;
},
{
glyphname = p;
lastChange = "2018-11-05 11:57:52 +0000";
layers = (
{
layerId = "6F4F10D2-8254-4335-A627-9F8D8891324D";
paths = (
{
closed = 1;
nodes = (
"24.853 -245 OFFCURVE",
"45 -224.853 OFFCURVE",
"45 -200 CURVE SMOOTH",
"45 -22.484 LINE",
"77.574 -37.539 OFFCURVE",
"116.052 -45 OFFCURVE",
"160 -45 CURVE SMOOTH",
"295.233 -45 OFFCURVE",
"395 82.569 OFFCURVE",
"395 250 CURVE SMOOTH",
"395 417.431 OFFCURVE",
"295.233 545 OFFCURVE",
"160 545 CURVE SMOOTH",
"110.577 545 OFFCURVE",
"71.406 533.106 OFFCURVE",
"41.39 517.686 CURVE",
"34.519 533.747 OFFCURVE",
"18.574 545 OFFCURVE",
"0 545 CURVE SMOOTH",
"-24.853 545 OFFCURVE",
"-45 524.853 OFFCURVE",
"-45 500 CURVE SMOOTH",
"-45 -200 LINE SMOOTH",
"-45 -224.853 OFFCURVE",
"-24.853 -245 OFFCURVE",
"0 -245 CURVE SMOOTH"
);
},
{
closed = 1;
nodes = (
"105.404 45 OFFCURVE",
"68.704 58.705 OFFCURVE",
"45 89.06 CURVE",
"45 409.992 LINE",
"58.596 425.292 OFFCURVE",
"93.542 455 OFFCURVE",
"160 455 CURVE SMOOTH",
"242.513 455 OFFCURVE",
"305 368.347 OFFCURVE",
"305 250 CURVE SMOOTH",
"305 131.653 OFFCURVE",
"242.513 45 OFFCURVE",
"160 45 CURVE SMOOTH"
);
}
);
width = 391;
},
{
layerId = "25139FCF-725A-49A6-A058-8DCF5AC16622";
paths = (
{
closed = 0;
nodes = (
"21 -330 LINE",
"20 500 LINE"
);
},
{
closed = 0;
nodes = (
"27 425 LINE",
"27 425 OFFCURVE",
"62 500 OFFCURVE",
"178 500 CURVE SMOOTH",
"294 500 OFFCURVE",
"371 415 OFFCURVE",
"371 251 CURVE SMOOTH",
"371 149 OFFCURVE",
"294 0 OFFCURVE",
"178 0 CURVE SMOOTH",
"62 0 OFFCURVE",
"27 75 OFFCURVE",
"27 75 CURVE"
);
}
);
width = 391;
},
{
layerId = "1AB63056-1127-463F-B001-FB2AC81901C9";
paths = (
{
closed = 0;
nodes = (
"21 -330 LINE",
"20 500 LINE"
);
},
{
closed = 0;
nodes = (
"27 425 LINE",
"27 425 OFFCURVE",
"62 500 OFFCURVE",
"178 500 CURVE SMOOTH",
"294 500 OFFCURVE",
"371 415 OFFCURVE",
"371 251 CURVE SMOOTH",
"371 149 OFFCURVE",
"294 0 OFFCURVE",
"178 0 CURVE SMOOTH",
"62 0 OFFCURVE",
"27 75 OFFCURVE",
"27 75 CURVE"
);
}
);
width = 391;
},
{
associatedMasterId = "6F4F10D2-8254-4335-A627-9F8D8891324D";
layerId = "F8386EB3-F5AD-4C55-98CD-26FC62B35DB5";
name = path;
paths = (
{
closed = 0;
nodes = (
"0 500 LINE",
"0 -200 LINE"
);
},
{
closed = 0;
nodes = (
"0 425 LINE",
"0 425 OFFCURVE",
"45 500 OFFCURVE",
"160 500 CURVE SMOOTH",
"275 500 OFFCURVE",
"350 385 OFFCURVE",
"350 250 CURVE SMOOTH",
"350 115 OFFCURVE",
"275 0 OFFCURVE",
"160 0 CURVE SMOOTH",
"45 0 OFFCURVE",
"10 59 OFFCURVE",
"0 75 CURVE"
);
}
);
visible = 1;
width = 391;
},
{
associatedMasterId = "6F4F10D2-8254-4335-A627-9F8D8891324D";
layerId = "872DB794-7979-4B48-9AC9-680FE0FF5E14";
name = path;
paths = (
{
closed = 0;
nodes = (
"21 -330 LINE",
"20 500 LINE"
);
},
{
closed = 0;
nodes = (
"27 425 LINE",
"27 425 OFFCURVE",
"62 500 OFFCURVE",
"178 500 CURVE SMOOTH",
"294 500 OFFCURVE",
"371 415 OFFCURVE",
"371 251 CURVE SMOOTH",
"371 149 OFFCURVE",
"294 0 OFFCURVE",
"178 0 CURVE SMOOTH",
"62 0 OFFCURVE",
"27 75 OFFCURVE",
"27 75 CURVE"
);
}
);
width = 391;
},
{
associatedMasterId = "6F4F10D2-8254-4335-A627-9F8D8891324D";
layerId = "3C9F89FD-7725-4E29-835A-FEC45E5EA00F";
name = "Nov 5 18, 12:57";
paths = (
{
closed = 0;
nodes = (
"21 -330 LINE",
"20 500 LINE"
);
},
{
closed = 0;
nodes = (
"27 425 LINE",
"27 425 OFFCURVE",
"62 500 OFFCURVE",
"178 500 CURVE SMOOTH",
"294 500 OFFCURVE",
"371 415 OFFCURVE",
"371 251 CURVE SMOOTH",
"371 149 OFFCURVE",
"294 0 OFFCURVE",
"178 0 CURVE SMOOTH",
"62 0 OFFCURVE",
"27 75 OFFCURVE",
"27 75 CURVE"
);
}
);
width = 391;
}
);
unicode = 0070;
},
{
glyphname = q;
lastChange = "2018-11-06 15:05:01 +0000";
layers = (
{
layerId = "6F4F10D2-8254-4335-A627-9F8D8891324D";
paths = (
{
closed = 1;
nodes = (
"440 -245 OFFCURVE",
"460 -225 OFFCURVE",
"460 -200 CURVE SMOOTH",
"460 500 LINE SMOOTH",
"460 525 OFFCURVE",
"440 545 OFFCURVE",
"415 545 CURVE SMOOTH",
"396 545 OFFCURVE",
"380 534 OFFCURVE",
"374 518 CURVE",
"344 533 OFFCURVE",
"304 545 OFFCURVE",
"255 545 CURVE SMOOTH",
"120 545 OFFCURVE",
"20 417 OFFCURVE",
"20 250 CURVE SMOOTH",
"20 83 OFFCURVE",
"120 -45 OFFCURVE",
"255 -45 CURVE SMOOTH",
"299 -45 OFFCURVE",
"337 -38 OFFCURVE",
"370 -22 CURVE",
"370 -200 LINE SMOOTH",
"370 -225 OFFCURVE",
"390 -245 OFFCURVE",
"415 -245 CURVE SMOOTH"
);
},
{
closed = 1;
nodes = (
"172 45 OFFCURVE",
"110 132 OFFCURVE",
"110 250 CURVE SMOOTH",
"110 368 OFFCURVE",
"172 455 OFFCURVE",
"255 455 CURVE SMOOTH",
"321 455 OFFCURVE",
"356 425 OFFCURVE",
"370 410 CURVE",
"370 89 LINE",
"346 59 OFFCURVE",
"310 45 OFFCURVE",
"255 45 CURVE SMOOTH"
);
}
);
width = 480;
},
{
layerId = "25139FCF-725A-49A6-A058-8DCF5AC16622";
paths = (
{
closed = 0;
nodes = (
"370 -330 LINE",
"370 500 LINE"
);
},
{
closed = 0;
nodes = (
"364 425 LINE",
"364 425 OFFCURVE",
"329 500 OFFCURVE",
"213 500 CURVE SMOOTH",
"96 500 OFFCURVE",
"20 415 OFFCURVE",
"20 251 CURVE SMOOTH",
"20 150 OFFCURVE",
"96 0 OFFCURVE",
"213 0 CURVE SMOOTH",
"329 0 OFFCURVE",
"364 75 OFFCURVE",
"364 75 CURVE"
);
}
);
width = 390;
},
{
layerId = "1AB63056-1127-463F-B001-FB2AC81901C9";
paths = (
{
closed = 0;
nodes = (
"370 -330 LINE",
"370 500 LINE"
);
},
{
closed = 0;
nodes = (
"364 425 LINE",
"364 425 OFFCURVE",
"329 500 OFFCURVE",
"213 500 CURVE SMOOTH",
"96 500 OFFCURVE",
"20 415 OFFCURVE",
"20 251 CURVE SMOOTH",
"20 150 OFFCURVE",
"96 0 OFFCURVE",
"213 0 CURVE SMOOTH",
"329 0 OFFCURVE",
"364 75 OFFCURVE",
"364 75 CURVE"
);
}
);
width = 390;
},
{
associatedMasterId = "6F4F10D2-8254-4335-A627-9F8D8891324D";
layerId = "E98FCB14-0399-48A1-A1D4-B8EA37B4FC4B";
name = path;
paths = (
{
closed = 0;
nodes = (
"370 500 LINE",
"370 -200 LINE"
);
},
{
closed = 0;
nodes = (
"370 75 LINE",
"360 59 OFFCURVE",
"325 0 OFFCURVE",
"210 0 CURVE SMOOTH",
"95 0 OFFCURVE",
"20 115 OFFCURVE",
"20 250 CURVE SMOOTH",
"20 385 OFFCURVE",
"95 500 OFFCURVE",
"210 500 CURVE SMOOTH",
"325 500 OFFCURVE",
"370 425 OFFCURVE",
"370 425 CURVE"
);
}
);
visible = 1;
width = 390;
}
);
unicode = 0071;
},
{
glyphname = r;
lastChange = "2018-10-05 12:13:24 +0000";
layers = (
{
layerId = "25139FCF-725A-49A6-A058-8DCF5AC16622";
paths = (
{
closed = 0;
nodes = (
"20 0 LINE",
"20 500 LINE"
);
},
{
closed = 0;
nodes = (
"20 423 LINE",
"20 423 OFFCURVE",
"84 500 OFFCURVE",
"188 500 CURVE SMOOTH",
"293 500 OFFCURVE",
"367 443 OFFCURVE",
"367 400 CURVE",
"353 336 LINE"
);
}
);
width = 387;
},
{
layerId = "1AB63056-1127-463F-B001-FB2AC81901C9";
paths = (
{
closed = 0;
nodes = (
"20 0 LINE",
"20 500 LINE"
);
},
{
closed = 0;
nodes = (
"20 423 LINE",
"20 423 OFFCURVE",
"84 500 OFFCURVE",
"188 500 CURVE SMOOTH",
"293 500 OFFCURVE",
"367 443 OFFCURVE",
"367 400 CURVE",
"353 336 LINE"
);
}
);
width = 387;
},
{
associatedMasterId = "6F4F10D2-8254-4335-A627-9F8D8891324D";
layerId = "922AF70B-B257-4448-A8DF-7AFB785F370A";
name = path;
paths = (
{
closed = 0;
nodes = (
"20 0 LINE",
"20 500 LINE"
);
},
{
closed = 0;
nodes = (
"20 423 LINE",
"20 423 OFFCURVE",
"84 500 OFFCURVE",
"188 500 CURVE SMOOTH",
"293 500 OFFCURVE",
"367 443 OFFCURVE",
"367 400 CURVE",
"353 336 LINE"
);
}
);
width = 387;
},
{
associatedMasterId = "6F4F10D2-8254-4335-A627-9F8D8891324D";
layerId = "54CA1C98-BF52-4571-9F13-C03AA42F8F1A";
name = "Oct 5 18, 14:13";
paths = (
{
closed = 1;
nodes = (
"31.046 -20 OFFCURVE",
"40 -11.046 OFFCURVE",
"40 0 CURVE SMOOTH",
"40 415.241 LINE",
"55.717 431.49 OFFCURVE",
"109.232 480 OFFCURVE",
"188 480 CURVE SMOOTH",
"265.798 480 OFFCURVE",
"344.34 438.516 OFFCURVE",
"346.933 401.857 CURVE",
"334 341 LINE SMOOTH",
"333 339 OFFCURVE",
"333 338 OFFCURVE",
"333 336 CURVE SMOOTH",
"333 325 OFFCURVE",
"342 316 OFFCURVE",
"353 316 CURVE SMOOTH",
"363 316 OFFCURVE",
"371 323 OFFCURVE",
"373 332 CURVE SMOOTH",
"384.014 384.187 LINE SMOOTH",
"386 393 OFFCURVE",
"386.657 396.824 OFFCURVE",
"387 400 CURVE",
"387 463.199 OFFCURVE",
"291.418 520 OFFCURVE",
"188 520 CURVE SMOOTH",
"122.378 520 OFFCURVE",
"71.348 491.861 OFFCURVE",
"40 468.154 CURVE",
"40 500 LINE SMOOTH",
"40 511.046 OFFCURVE",
"31.046 520 OFFCURVE",
"20 520 CURVE SMOOTH",
"8.954 520 OFFCURVE",
"0 511.046 OFFCURVE",
"0 500 CURVE SMOOTH",
"0 0 LINE SMOOTH",
"0 -11.046 OFFCURVE",
"8.954 -20 OFFCURVE",
"20 -20 CURVE SMOOTH"
);
}
);
visible = 1;
width = 387;
},
{
layerId = "6F4F10D2-8254-4335-A627-9F8D8891324D";
paths = (
{
closed = 1;
nodes = (
"29 -45 OFFCURVE",
"45 -29 OFFCURVE",
"45 0 CURVE SMOOTH",
"45 370 LINE SMOOTH",
"45 421.742 OFFCURVE",
"89.761 455 OFFCURVE",
"165 455 CURVE SMOOTH",
"240.932 455 OFFCURVE",
"285 422.232 OFFCURVE",
"285 370 CURVE SMOOTH",
"285 250 LINE SMOOTH",
"285 225.147 OFFCURVE",
"305.147 205 OFFCURVE",
"330 205 CURVE SMOOTH",
"354.853 205 OFFCURVE",
"375 225.147 OFFCURVE",
"375 250 CURVE SMOOTH",
"375 370 LINE SMOOTH",
"375 474.108 OFFCURVE",
"289.891 545 OFFCURVE",
"165 545 CURVE SMOOTH",
"117.5 545 OFFCURVE",
"75.637 534.671 OFFCURVE",
"42.038 516.088 CURVE",
"35.564 532.995 OFFCURVE",
"19.184 545 OFFCURVE",
"0 545 CURVE SMOOTH",
"-24.853 545 OFFCURVE",
"-45 524.853 OFFCURVE",
"-45 500 CURVE SMOOTH",
"-45 0 LINE SMOOTH",
"-45 -29 OFFCURVE",
"-29 -45 OFFCURVE",
"0 -45 CURVE SMOOTH"
);
}
);
visible = 1;
width = 387;
}
);
unicode = 0072;
},
{
glyphname = s;
lastChange = "2018-11-05 12:17:42 +0000";
layers = (
{
layerId = "6F4F10D2-8254-4335-A627-9F8D8891324D";
paths = (
{
closed = 1;
nodes = (
"325.543 -45 OFFCURVE",
"391 6.459 OFFCURVE",
"391 124 CURVE SMOOTH",
"391 220.618 OFFCURVE",
"329.904 269.595 OFFCURVE",
"189.82 294.315 CURVE SMOOTH",
"93.715 311.443 OFFCURVE",
"65 333.156 OFFCURVE",
"65 375 CURVE SMOOTH",
"65 436.944 OFFCURVE",
"86.797 455 OFFCURVE",
"182 455 CURVE SMOOTH",
"274.824 455 OFFCURVE",
"298.527 393.875 OFFCURVE",
"300.957 386.836 CURVE",
"306.586 368.406 OFFCURVE",
"323.727 355 OFFCURVE",
"344 355 CURVE SMOOTH",
"368.853 355 OFFCURVE",
"389 375.147 OFFCURVE",
"389 400 CURVE SMOOTH",
"389 405.113 OFFCURVE",
"388.147 410.027 OFFCURVE",
"386.575 414.607 CURVE SMOOTH",
"383.008 425.451 OFFCURVE",
"339.996 545 OFFCURVE",
"182 545 CURVE SMOOTH",
"40.403 545 OFFCURVE",
"-25 492.661 OFFCURVE",
"-25 375 CURVE SMOOTH",
"-25 281.314 OFFCURVE",
"37.99 229.956 OFFCURVE",
"174.105 205.698 CURVE SMOOTH",
"274.729 187.941 OFFCURVE",
"301 168.175 OFFCURVE",
"301 124 CURVE SMOOTH",
"301 62.672 OFFCURVE",
"279.446 45 OFFCURVE",
"182 45 CURVE SMOOTH",
"90.155 45 OFFCURVE",
"66.491 106.071 OFFCURVE",
"64.048 113.148 CURVE",
"58.423 131.587 OFFCURVE",
"41.279 145 OFFCURVE",
"21 145 CURVE SMOOTH",
"-3.853 145 OFFCURVE",
"-24 124.853 OFFCURVE",
"-24 100 CURVE SMOOTH",
"-24 94.882 OFFCURVE",
"-23.145 89.964 OFFCURVE",
"-21.571 85.379 CURVE SMOOTH",
"-17.958 74.407 OFFCURVE",
"25.056 -45 OFFCURVE",
"182 -45 CURVE SMOOTH"
);
}
);
width = 374;
},
{
layerId = "25139FCF-725A-49A6-A058-8DCF5AC16622";
paths = (
{
closed = 0;
nodes = (
"354 417 LINE",
"354 417 OFFCURVE",
"312 500 OFFCURVE",
"196 500 CURVE SMOOTH",
"60 500 OFFCURVE",
"20 458 OFFCURVE",
"20 375 CURVE SMOOTH",
"20 292 OFFCURVE",
"86 268 OFFCURVE",
"187 250 CURVE SMOOTH",
"288 232 OFFCURVE",
"354 206 OFFCURVE",
"354 125 CURVE SMOOTH",
"354 48 OFFCURVE",
"312 0 OFFCURVE",
"196 0 CURVE SMOOTH",
"62 0 OFFCURVE",
"20 83 OFFCURVE",
"20 83 CURVE"
);
}
);
width = 374;
},
{
layerId = "1AB63056-1127-463F-B001-FB2AC81901C9";
paths = (
{
closed = 0;
nodes = (
"354 417 LINE",
"354 417 OFFCURVE",
"312 500 OFFCURVE",
"196 500 CURVE SMOOTH",
"60 500 OFFCURVE",
"20 458 OFFCURVE",
"20 375 CURVE SMOOTH",
"20 292 OFFCURVE",
"86 268 OFFCURVE",
"187 250 CURVE SMOOTH",
"288 232 OFFCURVE",
"354 206 OFFCURVE",
"354 125 CURVE SMOOTH",
"354 48 OFFCURVE",
"312 0 OFFCURVE",
"196 0 CURVE SMOOTH",
"62 0 OFFCURVE",
"20 83 OFFCURVE",
"20 83 CURVE"
);
}
);
width = 374;
},
{
associatedMasterId = "6F4F10D2-8254-4335-A627-9F8D8891324D";
layerId = "8687FAFC-7602-492D-AC7C-F011139AC09D";
name = path;
paths = (
{
closed = 0;
nodes = (
"354 417 LINE",
"354 417 OFFCURVE",
"312 500 OFFCURVE",
"196 500 CURVE SMOOTH",
"60 500 OFFCURVE",
"20 458 OFFCURVE",
"20 375 CURVE SMOOTH",
"20 292 OFFCURVE",
"86 268 OFFCURVE",
"187 250 CURVE SMOOTH",
"288 232 OFFCURVE",
"354 206 OFFCURVE",
"354 125 CURVE SMOOTH",
"354 48 OFFCURVE",
"312 0 OFFCURVE",
"196 0 CURVE SMOOTH",
"62 0 OFFCURVE",
"20 83 OFFCURVE",
"20 83 CURVE"
);
}
);
visible = 1;
width = 374;
},
{
associatedMasterId = "6F4F10D2-8254-4335-A627-9F8D8891324D";
layerId = "9F1BF450-2878-438B-A54F-61EC43D886A9";
name = path;
paths = (
{
closed = 0;
nodes = (
"354 417 LINE",
"354 417 OFFCURVE",
"312 500 OFFCURVE",
"196 500 CURVE SMOOTH",
"60 500 OFFCURVE",
"20 458 OFFCURVE",
"20 375 CURVE SMOOTH",
"20 292 OFFCURVE",
"86 268 OFFCURVE",
"187 250 CURVE SMOOTH",
"288 232 OFFCURVE",
"354 206 OFFCURVE",
"354 125 CURVE SMOOTH",
"354 48 OFFCURVE",
"312 0 OFFCURVE",
"196 0 CURVE SMOOTH",
"62 0 OFFCURVE",
"20 83 OFFCURVE",
"20 83 CURVE"
);
}
);
width = 374;
},
{
associatedMasterId = "6F4F10D2-8254-4335-A627-9F8D8891324D";
layerId = "71112D7D-255D-4B9F-AAC1-C868436A0EE0";
name = "Nov 5 18, 13:17";
paths = (
{
closed = 0;
nodes = (
"344 400 LINE",
"344 400 OFFCURVE",
"314 500 OFFCURVE",
"182 500 CURVE SMOOTH",
"47 500 OFFCURVE",
"20 451 OFFCURVE",
"20 375 CURVE SMOOTH",
"20 298 OFFCURVE",
"81 268 OFFCURVE",
"182 250 CURVE SMOOTH",
"284 232 OFFCURVE",
"346 205 OFFCURVE",
"346 124 CURVE SMOOTH",
"346 47 OFFCURVE",
"318 0 OFFCURVE",
"182 0 CURVE SMOOTH",
"51 0 OFFCURVE",
"21 100 OFFCURVE",
"21 100 CURVE"
);
}
);
width = 374;
}
);
unicode = 0073;
},
{
glyphname = t;
lastChange = "2018-11-05 12:18:00 +0000";
layers = (
{
layerId = "6F4F10D2-8254-4335-A627-9F8D8891324D";
paths = (
{
closed = 1;
nodes = (
"181.756 -45 OFFCURVE",
"228.573 -28.529 OFFCURVE",
"261.993 3.374 CURVE SMOOTH",
"270.667 11.674 OFFCURVE",
"276 23.214 OFFCURVE",
"276 36 CURVE SMOOTH",
"276 60.853 OFFCURVE",
"255.853 81 OFFCURVE",
"231 81 CURVE SMOOTH",
"218.933 81 OFFCURVE",
"207.976 76.25 OFFCURVE",
"199.895 68.519 CURVE SMOOTH",
"183.085 52.439 OFFCURVE",
"160.723 45 OFFCURVE",
"126 45 CURVE SMOOTH",
"75.166 45 OFFCURVE",
"65 70.202 OFFCURVE",
"65 176 CURVE SMOOTH",
"65 373.431 LINE",
"202.514 375.003 LINE SMOOTH",
"227.13 375.279 OFFCURVE",
"247 395.319 OFFCURVE",
"247 420 CURVE SMOOTH",
"247 444.853 OFFCURVE",
"226.853 465 OFFCURVE",
"202 465 CURVE SMOOTH",
"65 463.437 LINE",
"65 700 LINE SMOOTH",
"65 724.853 OFFCURVE",
"44.853 745 OFFCURVE",
"20 745 CURVE SMOOTH",
"-4.853 745 OFFCURVE",
"-25 724.853 OFFCURVE",
"-25 700 CURVE SMOOTH",
"-25 176 LINE SMOOTH",
"-25 103.655 OFFCURVE",
"-29.33 -45 OFFCURVE",
"126 -45 CURVE SMOOTH"
);
}
);
width = 321;
},
{
layerId = "25139FCF-725A-49A6-A058-8DCF5AC16622";
paths = (
{
closed = 0;
nodes = (
"185 420 LINE",
"10 418 LINE"
);
},
{
closed = 0;
nodes = (
"3 700 LINE",
"3 700 OFFCURVE",
"3 421 OFFCURVE",
"3 279 CURVE SMOOTH",
"3 176 LINE SMOOTH",
"3 103 OFFCURVE",
"-0.096 0 OFFCURVE",
"109 0 CURVE SMOOTH",
"158 0 OFFCURVE",
"191 14 OFFCURVE",
"214 36 CURVE"
);
}
);
width = 600;
},
{
layerId = "1AB63056-1127-463F-B001-FB2AC81901C9";
paths = (
{
closed = 0;
nodes = (
"185 420 LINE",
"10 418 LINE"
);
},
{
closed = 0;
nodes = (
"3 700 LINE",
"3 700 OFFCURVE",
"3 421 OFFCURVE",
"3 279 CURVE SMOOTH",
"3 176 LINE SMOOTH",
"3 103 OFFCURVE",
"-0.096 0 OFFCURVE",
"109 0 CURVE SMOOTH",
"158 0 OFFCURVE",
"191 14 OFFCURVE",
"214 36 CURVE"
);
}
);
width = 600;
},
{
associatedMasterId = "6F4F10D2-8254-4335-A627-9F8D8891324D";
layerId = "D86B9D2A-8C4C-4D6E-9CC4-293CA834A508";
name = path;
paths = (
{
closed = 0;
nodes = (
"202 420 LINE",
"27 418 LINE"
);
},
{
closed = 0;
nodes = (
"20 700 LINE",
"20 700 OFFCURVE",
"20 421 OFFCURVE",
"20 279 CURVE SMOOTH",
"20 176 LINE SMOOTH",
"20 103 OFFCURVE",
"17 0 OFFCURVE",
"126 0 CURVE SMOOTH",
"175 0 OFFCURVE",
"208 14 OFFCURVE",
"231 36 CURVE"
);
}
);
visible = 1;
width = 261;
},
{
associatedMasterId = "6F4F10D2-8254-4335-A627-9F8D8891324D";
layerId = "54FE75FC-9CFB-415F-998D-D9B023D9BCA9";
name = path;
paths = (
{
closed = 0;
nodes = (
"202 420 LINE",
"27 418 LINE"
);
},
{
closed = 0;
nodes = (
"20 700 LINE",
"20 700 OFFCURVE",
"20 421 OFFCURVE",
"20 279 CURVE SMOOTH",
"20 176 LINE SMOOTH",
"20 103 OFFCURVE",
"17 0 OFFCURVE",
"126 0 CURVE SMOOTH",
"175 0 OFFCURVE",
"208 14 OFFCURVE",
"231 36 CURVE"
);
}
);
width = 261;
}
);
unicode = 0074;
},
{
color = 1;
glyphname = u;
lastChange = "2018-10-05 12:15:36 +0000";
layers = (
{
layerId = "25139FCF-725A-49A6-A058-8DCF5AC16622";
paths = (
{
closed = 0;
nodes = (
"333 500 LINE",
"333 1 LINE"
);
},
{
closed = 0;
nodes = (
"333 103 LINE",
"333 103 OFFCURVE",
"250 0 OFFCURVE",
"165 0 CURVE SMOOTH",
"42 0 OFFCURVE",
"0 42 OFFCURVE",
"0 100 CURVE SMOOTH",
"0 500 LINE"
);
}
);
width = 600;
},
{
layerId = "1AB63056-1127-463F-B001-FB2AC81901C9";
paths = (
{
closed = 0;
nodes = (
"333 500 LINE",
"333 1 LINE"
);
},
{
closed = 0;
nodes = (
"333 103 LINE",
"333 103 OFFCURVE",
"250 0 OFFCURVE",
"165 0 CURVE SMOOTH",
"42 0 OFFCURVE",
"0 42 OFFCURVE",
"0 100 CURVE SMOOTH",
"0 500 LINE"
);
}
);
width = 600;
},
{
associatedMasterId = "6F4F10D2-8254-4335-A627-9F8D8891324D";
layerId = "22F47F4A-C2C3-4C1C-B4A4-27AC02646416";
name = path;
paths = (
{
closed = 0;
nodes = (
"333 500 LINE",
"333 1 LINE"
);
},
{
closed = 0;
nodes = (
"333 103 LINE",
"333 103 OFFCURVE",
"250 0 OFFCURVE",
"165 0 CURVE SMOOTH",
"42 0 OFFCURVE",
"0 42 OFFCURVE",
"0 100 CURVE SMOOTH",
"0 500 LINE"
);
}
);
width = 600;
},
{
associatedMasterId = "6F4F10D2-8254-4335-A627-9F8D8891324D";
layerId = "D8B06E53-A7DA-455A-8EF2-331562CB8E5E";
name = path;
paths = (
{
closed = 0;
nodes = (
"333 500 LINE",
"333 1 LINE"
);
},
{
closed = 0;
nodes = (
"333 103 LINE",
"333 103 OFFCURVE",
"250 0 OFFCURVE",
"165 0 CURVE SMOOTH",
"42 0 OFFCURVE",
"0 42 OFFCURVE",
"0 100 CURVE SMOOTH",
"0 500 LINE"
);
}
);
width = 600;
},
{
associatedMasterId = "6F4F10D2-8254-4335-A627-9F8D8891324D";
layerId = "DC1719DC-FC90-467F-B4B6-3501856C20E7";
name = "Oct 5 18, 14:15";
paths = (
{
closed = 1;
nodes = (
"212 -21 OFFCURVE",
"267 20 OFFCURVE",
"302 52 CURVE",
"302 0 LINE SMOOTH",
"302 -11 OFFCURVE",
"311 -20 OFFCURVE",
"322 -20 CURVE SMOOTH",
"333 -20 OFFCURVE",
"342 -11 OFFCURVE",
"342 0 CURVE SMOOTH",
"342 499 LINE SMOOTH",
"342 510 OFFCURVE",
"333 519 OFFCURVE",
"322 519 CURVE SMOOTH",
"311 519 OFFCURVE",
"302 510 OFFCURVE",
"302 499 CURVE SMOOTH",
"302 109 LINE",
"284 89 OFFCURVE",
"219 19 OFFCURVE",
"165 20 CURVE SMOOTH",
"65 22 OFFCURVE",
"20 46.769 OFFCURVE",
"20 100 CURVE SMOOTH",
"20 500 LINE SMOOTH",
"20 511.046 OFFCURVE",
"11.046 520 OFFCURVE",
"0 520 CURVE SMOOTH",
"-11.046 520 OFFCURVE",
"-20 511.046 OFFCURVE",
"-20 500 CURVE SMOOTH",
"-20 100 LINE SMOOTH",
"-20 20.566 OFFCURVE",
"44 -17 OFFCURVE",
"165 -20 CURVE SMOOTH"
);
}
);
visible = 1;
width = 353;
},
{
layerId = "6F4F10D2-8254-4335-A627-9F8D8891324D";
paths = (
{
closed = 1;
nodes = (
"212.5 -45 OFFCURVE",
"254.363 -34.671 OFFCURVE",
"287.962 -16.088 CURVE",
"294.436 -32.995 OFFCURVE",
"310.816 -45 OFFCURVE",
"330 -45 CURVE SMOOTH",
"354.853 -45 OFFCURVE",
"375 -25 OFFCURVE",
"375 0 CURVE SMOOTH",
"375 500 LINE SMOOTH",
"375 529 OFFCURVE",
"359 545 OFFCURVE",
"330 545 CURVE SMOOTH",
"301 545 OFFCURVE",
"285 529 OFFCURVE",
"285 500 CURVE SMOOTH",
"285 130 LINE SMOOTH",
"285 78 OFFCURVE",
"240.239 45 OFFCURVE",
"165 45 CURVE SMOOTH",
"89.068 45 OFFCURVE",
"45 77.768 OFFCURVE",
"45 130 CURVE SMOOTH",
"45 500 LINE SMOOTH",
"45 524.853 OFFCURVE",
"24.853 545 OFFCURVE",
"0 545 CURVE SMOOTH",
"-24.853 545 OFFCURVE",
"-45 524.853 OFFCURVE",
"-45 500 CURVE SMOOTH",
"-45 130 LINE SMOOTH",
"-45 25.892 OFFCURVE",
"40.109 -45 OFFCURVE",
"165 -45 CURVE SMOOTH"
);
}
);
width = 600;
}
);
unicode = 0075;
},
{
glyphname = v;
lastChange = "2018-11-13 20:50:54 +0000";
layers = (
{
layerId = "6F4F10D2-8254-4335-A627-9F8D8891324D";
paths = (
{
closed = 1;
nodes = (
"232.941 -17.316 LINE SMOOTH",
"258.703 -17.294 OFFCURVE",
"275.098 -6.348 OFFCURVE",
"284.992 17.438 CURVE SMOOTH",
"478.168 481.803 LINE SMOOTH",
"480.631 487.367 OFFCURVE",
"482 493.523 OFFCURVE",
"482 500 CURVE SMOOTH",
"482 524.853 OFFCURVE",
"461.853 545 OFFCURVE",
"437 545 CURVE SMOOTH",
"417.91 545 OFFCURVE",
"401.597 533.113 OFFCURVE",
"395.058 516.336 CURVE SMOOTH",
"228.901 116.92 LINE",
"61.91 516.42 LINE SMOOTH",
"55.349 533.152 OFFCURVE",
"39.059 545 OFFCURVE",
"20 545 CURVE SMOOTH",
"-4.853 545 OFFCURVE",
"-25 524.853 OFFCURVE",
"-25 500 CURVE SMOOTH",
"-25 493.507 OFFCURVE",
"-23.624 487.335 OFFCURVE",
"-21.149 481.76 CURVE SMOOTH",
"172.977 17.342 LINE SMOOTH",
"182.913 -6.426 OFFCURVE",
"199.326 -17.345 OFFCURVE",
"225.088 -17.323 CURVE SMOOTH"
);
}
);
width = 457;
},
{
layerId = "25139FCF-725A-49A6-A058-8DCF5AC16622";
paths = (
{
closed = 0;
nodes = (
"20 500 LINE",
"229 0 LINE",
"437 500 LINE"
);
}
);
width = 457;
},
{
layerId = "1AB63056-1127-463F-B001-FB2AC81901C9";
paths = (
{
closed = 0;
nodes = (
"20 500 LINE",
"229 0 LINE",
"437 500 LINE"
);
}
);
width = 457;
},
{
associatedMasterId = "6F4F10D2-8254-4335-A627-9F8D8891324D";
layerId = "18248BD3-2444-4CD5-A09C-77F15A5330B9";
name = path;
paths = (
{
closed = 0;
nodes = (
"20 500 LINE",
"229 0 LINE",
"437 500 LINE"
);
}
);
visible = 1;
width = 457;
},
{
associatedMasterId = "6F4F10D2-8254-4335-A627-9F8D8891324D";
layerId = "A442FFA3-AC1C-4C33-86C2-C698C9D6B65E";
name = path;
paths = (
{
closed = 0;
nodes = (
"20 500 LINE",
"229 0 LINE",
"437 500 LINE"
);
}
);
width = 457;
}
);
unicode = 0076;
},
{
glyphname = w;
lastChange = "2018-11-13 20:51:02 +0000";
layers = (
{
layerId = "6F4F10D2-8254-4335-A627-9F8D8891324D";
paths = (
{
closed = 1;
nodes = (
"190.924 -14.256 LINE SMOOTH",
"217.256 -14.256 OFFCURVE",
"233.618 -2.47 OFFCURVE",
"241.96 22.506 CURVE SMOOTH",
"353.872 357.569 LINE",
"465.075 22.619 LINE SMOOTH",
"473.374 -2.379 OFFCURVE",
"489.725 -14.19 OFFCURVE",
"516.065 -14.214 CURVE SMOOTH",
"523.909 -14.221 LINE SMOOTH",
"550.249 -14.245 OFFCURVE",
"566.621 -2.463 OFFCURVE",
"574.965 22.52 CURVE SMOOTH",
"729.358 484.774 LINE SMOOTH",
"731.068 489.53 OFFCURVE",
"732 494.656 OFFCURVE",
"732 500 CURVE SMOOTH",
"732 524.853 OFFCURVE",
"711.853 545 OFFCURVE",
"687 545 CURVE SMOOTH",
"666.771 545 OFFCURVE",
"649.661 531.653 OFFCURVE",
"643.994 513.285 CURVE SMOOTH",
"520.128 142.431 LINE",
"408.925 477.381 LINE SMOOTH",
"400.626 502.379 OFFCURVE",
"384.275 514.19 OFFCURVE",
"357.935 514.214 CURVE SMOOTH",
"350.091 514.221 LINE SMOOTH",
"323.751 514.245 OFFCURVE",
"307.379 502.463 OFFCURVE",
"299.035 477.48 CURVE SMOOTH",
"187 142.046 LINE",
"63.007 513.284 LINE SMOOTH",
"57.339 531.653 OFFCURVE",
"40.229 545 OFFCURVE",
"20 545 CURVE SMOOTH",
"-4.853 545 OFFCURVE",
"-25 524.853 OFFCURVE",
"-25 500 CURVE SMOOTH",
"-25 494.656 OFFCURVE",
"-24.068 489.53 OFFCURVE",
"-22.358 484.774 CURVE SMOOTH",
"132.04 22.506 LINE SMOOTH",
"140.382 -2.47 OFFCURVE",
"156.744 -14.256 OFFCURVE",
"183.076 -14.256 CURVE SMOOTH"
);
}
);
width = 707;
},
{
layerId = "25139FCF-725A-49A6-A058-8DCF5AC16622";
paths = (
{
closed = 0;
nodes = (
"20 500 LINE",
"187 0 LINE",
"354 500 LINE",
"520 0 LINE",
"687 500 LINE"
);
}
);
width = 707;
},
{
layerId = "1AB63056-1127-463F-B001-FB2AC81901C9";
paths = (
{
closed = 0;
nodes = (
"20 500 LINE",
"187 0 LINE",
"354 500 LINE",
"520 0 LINE",
"687 500 LINE"
);
}
);
width = 707;
},
{
associatedMasterId = "6F4F10D2-8254-4335-A627-9F8D8891324D";
layerId = "633B0165-595A-45A6-B2C9-4EB267821027";
name = path;
paths = (
{
closed = 0;
nodes = (
"20 500 LINE",
"187 0 LINE",
"354 500 LINE",
"520 0 LINE",
"687 500 LINE"
);
}
);
visible = 1;
width = 707;
},
{
associatedMasterId = "6F4F10D2-8254-4335-A627-9F8D8891324D";
layerId = "9C93018F-8DE5-4115-89E1-F090CBBCC711";
name = path;
paths = (
{
closed = 0;
nodes = (
"20 500 LINE",
"187 0 LINE",
"354 500 LINE",
"520 0 LINE",
"687 500 LINE"
);
}
);
width = 707;
}
);
unicode = 0077;
},
{
glyphname = x;
lastChange = "2018-11-13 20:51:21 +0000";
layers = (
{
layerId = "6F4F10D2-8254-4335-A627-9F8D8891324D";
paths = (
{
closed = 1;
nodes = (
"34.888 -45 OFFCURVE",
"48.087 -37.77 OFFCURVE",
"56.278 -26.629 CURVE SMOOTH",
"207.5 175 LINE",
"358.722 -26.629 LINE SMOOTH",
"366.913 -37.77 OFFCURVE",
"380.112 -45 OFFCURVE",
"395 -45 CURVE SMOOTH",
"419.853 -45 OFFCURVE",
"440 -24.853 OFFCURVE",
"440 0 CURVE SMOOTH",
"440 10.295 OFFCURVE",
"436.543 19.783 OFFCURVE",
"430.726 27.365 CURVE SMOOTH",
"263.75 250 LINE",
"430.726 472.634 LINE SMOOTH",
"436.543 480.217 OFFCURVE",
"440 489.705 OFFCURVE",
"440 500 CURVE SMOOTH",
"440 524.853 OFFCURVE",
"419.853 545 OFFCURVE",
"395 545 CURVE SMOOTH",
"380.112 545 OFFCURVE",
"366.913 537.77 OFFCURVE",
"358.722 526.629 CURVE SMOOTH",
"207.5 325 LINE",
"56.278 526.629 LINE SMOOTH",
"48.087 537.77 OFFCURVE",
"34.888 545 OFFCURVE",
"20 545 CURVE SMOOTH",
"-4.853 545 OFFCURVE",
"-25 524.853 OFFCURVE",
"-25 500 CURVE SMOOTH",
"-25 489.705 OFFCURVE",
"-21.543 480.217 OFFCURVE",
"-15.726 472.634 CURVE SMOOTH",
"151.25 250 LINE",
"-15.726 27.365 LINE SMOOTH",
"-21.543 19.783 OFFCURVE",
"-25 10.295 OFFCURVE",
"-25 0 CURVE SMOOTH",
"-25 -24.853 OFFCURVE",
"-4.853 -45 OFFCURVE",
"20 -45 CURVE SMOOTH"
);
}
);
width = 415;
},
{
layerId = "25139FCF-725A-49A6-A058-8DCF5AC16622";
paths = (
{
closed = 0;
nodes = (
"20 500 LINE",
"395 0 LINE"
);
},
{
closed = 0;
nodes = (
"20 0 LINE",
"395 500 LINE"
);
}
);
width = 415;
},
{
layerId = "1AB63056-1127-463F-B001-FB2AC81901C9";
paths = (
{
closed = 0;
nodes = (
"20 500 LINE",
"395 0 LINE"
);
},
{
closed = 0;
nodes = (
"20 0 LINE",
"395 500 LINE"
);
}
);
width = 415;
},
{
associatedMasterId = "6F4F10D2-8254-4335-A627-9F8D8891324D";
layerId = "8EC35D25-D3F1-4856-955B-AADA21ACE33F";
name = path;
paths = (
{
closed = 0;
nodes = (
"20 500 LINE",
"395 0 LINE"
);
},
{
closed = 0;
nodes = (
"20 0 LINE",
"395 500 LINE"
);
}
);
visible = 1;
width = 415;
},
{
associatedMasterId = "6F4F10D2-8254-4335-A627-9F8D8891324D";
layerId = "AFDA5FAF-146F-4A3F-915E-679865CE77E1";
name = path;
paths = (
{
closed = 0;
nodes = (
"20 500 LINE",
"395 0 LINE"
);
},
{
closed = 0;
nodes = (
"20 0 LINE",
"395 500 LINE"
);
}
);
width = 415;
}
);
unicode = 0078;
},
{
glyphname = y;
lastChange = "2018-11-13 20:51:39 +0000";
layers = (
{
layerId = "6F4F10D2-8254-4335-A627-9F8D8891324D";
paths = (
{
closed = 1;
nodes = (
"79.952 -375 OFFCURVE",
"95.447 -364.488 OFFCURVE",
"102.669 -349.284 CURVE SMOOTH",
"516.848 479.073 LINE SMOOTH",
"520.138 485.324 OFFCURVE",
"522 492.445 OFFCURVE",
"522 500 CURVE SMOOTH",
"522 524.853 OFFCURVE",
"501.853 545 OFFCURVE",
"477 545 CURVE SMOOTH",
"459.048 545 OFFCURVE",
"443.553 534.488 OFFCURVE",
"436.331 519.285 CURVE SMOOTH",
"239.881 126.385 LINE",
"61.349 517.782 LINE SMOOTH",
"54.456 533.791 OFFCURVE",
"38.537 545 OFFCURVE",
"20 545 CURVE SMOOTH",
"-4.853 545 OFFCURVE",
"-25 524.853 OFFCURVE",
"-25 500 CURVE SMOOTH",
"-25 492.996 OFFCURVE",
"-23.4 486.366 OFFCURVE",
"-20.545 480.455 CURVE SMOOTH",
"187.058 25.325 LINE",
"190.029 26.68 LINE",
"22.152 -309.074 LINE SMOOTH",
"18.862 -315.325 OFFCURVE",
"17 -322.445 OFFCURVE",
"17 -330 CURVE SMOOTH",
"17 -354.853 OFFCURVE",
"37.147 -375 OFFCURVE",
"62 -375 CURVE SMOOTH"
);
}
);
width = 497;
},
{
layerId = "25139FCF-725A-49A6-A058-8DCF5AC16622";
paths = (
{
closed = 0;
nodes = (
"20 500 LINE",
"228 44 LINE"
);
},
{
closed = 0;
nodes = (
"477 500 LINE",
"62 -330 LINE"
);
}
);
width = 497;
},
{
layerId = "1AB63056-1127-463F-B001-FB2AC81901C9";
paths = (
{
closed = 0;
nodes = (
"20 500 LINE",
"228 44 LINE"
);
},
{
closed = 0;
nodes = (
"477 500 LINE",
"62 -330 LINE"
);
}
);
width = 497;
},
{
associatedMasterId = "6F4F10D2-8254-4335-A627-9F8D8891324D";
layerId = "366E8C8C-77B3-499D-AC43-B4DB1AD04A06";
name = path;
paths = (
{
closed = 0;
nodes = (
"20 500 LINE",
"228 44 LINE"
);
},
{
closed = 0;
nodes = (
"477 500 LINE",
"62 -330 LINE"
);
}
);
visible = 1;
width = 497;
},
{
associatedMasterId = "6F4F10D2-8254-4335-A627-9F8D8891324D";
layerId = "0EBC7390-6F93-40C9-8293-372D7D32C7C5";
name = path;
paths = (
{
closed = 0;
nodes = (
"20 500 LINE",
"228 44 LINE"
);
},
{
closed = 0;
nodes = (
"477 500 LINE",
"62 -330 LINE"
);
}
);
width = 497;
}
);
unicode = 0079;
},
{
glyphname = z;
lastChange = "2018-11-13 20:51:47 +0000";
layers = (
{
layerId = "6F4F10D2-8254-4335-A627-9F8D8891324D";
paths = (
{
closed = 1;
nodes = (
"395 -45 LINE SMOOTH",
"419.853 -45 OFFCURVE",
"440 -24.853 OFFCURVE",
"440 0 CURVE SMOOTH",
"440 24.853 OFFCURVE",
"419.853 45 OFFCURVE",
"395 45 CURVE SMOOTH",
"110 45 LINE",
"409.047 443.729 LINE SMOOTH",
"424.196 463.928 OFFCURVE",
"425.928 483.143 OFFCURVE",
"414.637 505.726 CURVE SMOOTH",
"411.363 512.274 LINE SMOOTH",
"400.072 534.857 OFFCURVE",
"383.66 545 OFFCURVE",
"358.411 545 CURVE SMOOTH",
"20 545 LINE SMOOTH",
"-4.853 545 OFFCURVE",
"-25 524.853 OFFCURVE",
"-25 500 CURVE SMOOTH",
"-25 475.147 OFFCURVE",
"-4.853 455 OFFCURVE",
"20 455 CURVE SMOOTH",
"305 455 LINE",
"5.953 56.271 LINE SMOOTH",
"-9.196 36.072 OFFCURVE",
"-10.928 16.857 OFFCURVE",
"0.363 -5.726 CURVE SMOOTH",
"3.637 -12.274 LINE SMOOTH",
"14.928 -34.857 OFFCURVE",
"31.34 -45 OFFCURVE",
"56.589 -45 CURVE SMOOTH"
);
}
);
width = 415;
},
{
layerId = "25139FCF-725A-49A6-A058-8DCF5AC16622";
paths = (
{
closed = 0;
nodes = (
"20 500 LINE",
"395 500 LINE",
"20 0 LINE",
"395 0 LINE"
);
}
);
width = 415;
},
{
layerId = "1AB63056-1127-463F-B001-FB2AC81901C9";
paths = (
{
closed = 0;
nodes = (
"20 500 LINE",
"395 500 LINE",
"20 0 LINE",
"395 0 LINE"
);
}
);
width = 415;
},
{
associatedMasterId = "6F4F10D2-8254-4335-A627-9F8D8891324D";
layerId = "EED7CEEA-7F20-468D-84C6-EDD1EB205F09";
name = path;
paths = (
{
closed = 0;
nodes = (
"20 500 LINE",
"395 500 LINE",
"20 0 LINE",
"395 0 LINE"
);
}
);
visible = 1;
width = 415;
},
{
associatedMasterId = "6F4F10D2-8254-4335-A627-9F8D8891324D";
layerId = "70F01FC7-57B2-4E48-A126-22CD543A93D5";
name = path;
paths = (
{
closed = 0;
nodes = (
"20 500 LINE",
"395 500 LINE",
"20 0 LINE",
"395 0 LINE"
);
}
);
width = 415;
}
);
unicode = 007A;
},
{
glyphname = a.ss01;
lastChange = "2018-11-13 20:51:55 +0000";
layers = (
{
layerId = "6F4F10D2-8254-4335-A627-9F8D8891324D";
paths = (
{
closed = 1;
nodes = (
"235.506 -45 OFFCURVE",
"306.79 -6.504 OFFCURVE",
"349.936 21.795 CURVE",
"389.585 -27.767 LINE SMOOTH",
"397.824 -38.259 OFFCURVE",
"410.625 -45 OFFCURVE",
"425 -45 CURVE SMOOTH",
"449.853 -45 OFFCURVE",
"470 -24.853 OFFCURVE",
"470 0 CURVE SMOOTH",
"470 10.748 OFFCURVE",
"466.232 20.615 OFFCURVE",
"459.945 28.353 CURVE SMOOTH",
"410 90.785 LINE",
"410 341 LINE SMOOTH",
"410 477.16 OFFCURVE",
"331.941 545 OFFCURVE",
"178 545 CURVE SMOOTH",
"65.062 545 OFFCURVE",
"2.426 457.969 OFFCURVE",
"-1.694 452.056 CURVE SMOOTH",
"-6.924 444.703 OFFCURVE",
"-10 435.711 OFFCURVE",
"-10 426 CURVE SMOOTH",
"-10 401.147 OFFCURVE",
"10.147 381 OFFCURVE",
"35 381 CURVE SMOOTH",
"50.466 381 OFFCURVE",
"64.108 388.802 OFFCURVE",
"72.209 400.685 CURVE SMOOTH",
"75.83 405.777 OFFCURVE",
"112.483 455 OFFCURVE",
"178 455 CURVE SMOOTH",
"280.708 455 OFFCURVE",
"318.355 426.198 OFFCURVE",
"319.947 346.405 CURVE",
"288.225 360.479 OFFCURVE",
"242.396 371 OFFCURVE",
"174 371 CURVE SMOOTH",
"63.411 371 OFFCURVE",
"-25 279.825 OFFCURVE",
"-25 169 CURVE SMOOTH",
"-25 46.911 OFFCURVE",
"56.191 -45 OFFCURVE",
"167 -45 CURVE SMOOTH"
);
},
{
closed = 1;
nodes = (
"107.343 45 OFFCURVE",
"65 96.002 OFFCURVE",
"65 169 CURVE SMOOTH",
"65 230.245 OFFCURVE",
"113.226 281 OFFCURVE",
"174 281 CURVE SMOOTH",
"274.183 281 OFFCURVE",
"295.029 260.358 OFFCURVE",
"320 232.476 CURVE",
"320 110.237 LINE",
"270.009 72.853 OFFCURVE",
"207.383 45 OFFCURVE",
"167 45 CURVE SMOOTH"
);
}
);
width = 445;
},
{
layerId = "25139FCF-725A-49A6-A058-8DCF5AC16622";
paths = (
{
closed = 0;
nodes = (
"362 86 LINE",
"362 86 OFFCURVE",
"259 0 OFFCURVE",
"167 0 CURVE SMOOTH",
"72 0 OFFCURVE",
"20 83 OFFCURVE",
"20 169 CURVE SMOOTH",
"20 237 OFFCURVE",
"72 326 OFFCURVE",
"174 326 CURVE SMOOTH",
"316 326 OFFCURVE",
"337 280 OFFCURVE",
"363 252 CURVE"
);
},
{
closed = 0;
nodes = (
"35 426 LINE",
"35 426 OFFCURVE",
"85 500 OFFCURVE",
"178 500 CURVE SMOOTH",
"270 500 OFFCURVE",
"365 479 OFFCURVE",
"365 341 CURVE SMOOTH",
"365 75 LINE",
"425 0 LINE"
);
}
);
width = 445;
},
{
layerId = "1AB63056-1127-463F-B001-FB2AC81901C9";
paths = (
{
closed = 0;
nodes = (
"362 86 LINE",
"362 86 OFFCURVE",
"259 0 OFFCURVE",
"167 0 CURVE SMOOTH",
"72 0 OFFCURVE",
"20 83 OFFCURVE",
"20 169 CURVE SMOOTH",
"20 237 OFFCURVE",
"72 326 OFFCURVE",
"174 326 CURVE SMOOTH",
"316 326 OFFCURVE",
"337 280 OFFCURVE",
"363 252 CURVE"
);
},
{
closed = 0;
nodes = (
"35 426 LINE",
"35 426 OFFCURVE",
"85 500 OFFCURVE",
"178 500 CURVE SMOOTH",
"270 500 OFFCURVE",
"365 479 OFFCURVE",
"365 341 CURVE SMOOTH",
"365 75 LINE",
"425 0 LINE"
);
}
);
width = 445;
},
{
associatedMasterId = "6F4F10D2-8254-4335-A627-9F8D8891324D";
layerId = "B0355615-8E67-4844-85E2-37EE7AB62226";
name = path;
paths = (
{
closed = 0;
nodes = (
"362 86 LINE",
"362 86 OFFCURVE",
"259 0 OFFCURVE",
"167 0 CURVE SMOOTH",
"72 0 OFFCURVE",
"20 83 OFFCURVE",
"20 169 CURVE SMOOTH",
"20 237 OFFCURVE",
"72 326 OFFCURVE",
"174 326 CURVE SMOOTH",
"316 326 OFFCURVE",
"337 280 OFFCURVE",
"363 252 CURVE"
);
},
{
closed = 0;
nodes = (
"35 426 LINE",
"35 426 OFFCURVE",
"85 500 OFFCURVE",
"178 500 CURVE SMOOTH",
"270 500 OFFCURVE",
"365 479 OFFCURVE",
"365 341 CURVE SMOOTH",
"365 75 LINE",
"425 0 LINE"
);
}
);
visible = 1;
width = 445;
},
{
associatedMasterId = "6F4F10D2-8254-4335-A627-9F8D8891324D";
layerId = "E4E49E9C-1BE3-4991-B7D0-4B0960954B32";
name = path;
paths = (
{
closed = 0;
nodes = (
"362 86 LINE",
"362 86 OFFCURVE",
"259 0 OFFCURVE",
"167 0 CURVE SMOOTH",
"72 0 OFFCURVE",
"20 83 OFFCURVE",
"20 169 CURVE SMOOTH",
"20 237 OFFCURVE",
"72 326 OFFCURVE",
"174 326 CURVE SMOOTH",
"316 326 OFFCURVE",
"337 280 OFFCURVE",
"363 252 CURVE"
);
},
{
closed = 0;
nodes = (
"35 426 LINE",
"35 426 OFFCURVE",
"85 500 OFFCURVE",
"178 500 CURVE SMOOTH",
"270 500 OFFCURVE",
"365 479 OFFCURVE",
"365 341 CURVE SMOOTH",
"365 75 LINE",
"425 0 LINE"
);
}
);
width = 445;
}
);
},
{
glyphname = m.ss01;
lastChange = "2018-11-13 20:52:04 +0000";
layers = (
{
layerId = "6F4F10D2-8254-4335-A627-9F8D8891324D";
paths = (
{
closed = 1;
nodes = (
"86.853 -45 OFFCURVE",
"107 -24.853 OFFCURVE",
"107 0 CURVE SMOOTH",
"107 380.284 LINE",
"145.538 422.692 OFFCURVE",
"196.218 455 OFFCURVE",
"230 455 CURVE SMOOTH",
"317.613 455 OFFCURVE",
"349 435.606 OFFCURVE",
"349 400 CURVE SMOOTH",
"349 0 LINE SMOOTH",
"349 -24.853 OFFCURVE",
"369.147 -45 OFFCURVE",
"394 -45 CURVE SMOOTH",
"418.853 -45 OFFCURVE",
"439 -24.853 OFFCURVE",
"439 0 CURVE SMOOTH",
"439 380.153 LINE",
"477.941 422.618 OFFCURVE",
"528.613 455 OFFCURVE",
"562 455 CURVE SMOOTH",
"650.471 455 OFFCURVE",
"682 435.634 OFFCURVE",
"682 400 CURVE SMOOTH",
"682 0 LINE SMOOTH",
"682 -24.853 OFFCURVE",
"702.147 -45 OFFCURVE",
"727 -45 CURVE SMOOTH",
"751.853 -45 OFFCURVE",
"772 -24.853 OFFCURVE",
"772 0 CURVE SMOOTH",
"772 400 LINE SMOOTH",
"772 494.49 OFFCURVE",
"696.947 545 OFFCURVE",
"562 545 CURVE SMOOTH",
"514.833 545 OFFCURVE",
"461.627 520.039 OFFCURVE",
"413.937 480.46 CURVE",
"381.62 522.823 OFFCURVE",
"318.815 545 OFFCURVE",
"230 545 CURVE SMOOTH",
"182.171 545 OFFCURVE",
"128.455 519.742 OFFCURVE",
"80.694 479.722 CURVE",
"60.584 519.465 LINE SMOOTH",
"53.325 534.571 OFFCURVE",
"37.881 545 OFFCURVE",
"20 545 CURVE SMOOTH",
"-4.853 545 OFFCURVE",
"-25 524.853 OFFCURVE",
"-25 500 CURVE SMOOTH",
"-25 492.378 OFFCURVE",
"-23.105 485.2 OFFCURVE",
"-19.76 478.908 CURVE SMOOTH",
"17 406.263 LINE",
"17 0 LINE SMOOTH",
"17 -24.853 OFFCURVE",
"37.147 -45 OFFCURVE",
"62 -45 CURVE SMOOTH"
);
}
);
width = 747;
},
{
layerId = "25139FCF-725A-49A6-A058-8DCF5AC16622";
paths = (
{
closed = 0;
nodes = (
"62 0 LINE",
"62 417 LINE",
"20 500 LINE"
);
},
{
closed = 0;
nodes = (
"62 397 LINE",
"62 397 OFFCURVE",
"145 500 OFFCURVE",
"230 500 CURVE SMOOTH",
"353 500 OFFCURVE",
"394 458 OFFCURVE",
"394 400 CURVE SMOOTH",
"394 0 LINE"
);
},
{
closed = 0;
nodes = (
"394 397 LINE",
"394 397 OFFCURVE",
"478 500 OFFCURVE",
"562 500 CURVE SMOOTH",
"686 500 OFFCURVE",
"727 458 OFFCURVE",
"727 400 CURVE SMOOTH",
"727 0 LINE"
);
}
);
width = 747;
},
{
layerId = "1AB63056-1127-463F-B001-FB2AC81901C9";
paths = (
{
closed = 0;
nodes = (
"62 0 LINE",
"62 417 LINE",
"20 500 LINE"
);
},
{
closed = 0;
nodes = (
"62 397 LINE",
"62 397 OFFCURVE",
"145 500 OFFCURVE",
"230 500 CURVE SMOOTH",
"353 500 OFFCURVE",
"394 458 OFFCURVE",
"394 400 CURVE SMOOTH",
"394 0 LINE"
);
},
{
closed = 0;
nodes = (
"394 397 LINE",
"394 397 OFFCURVE",
"478 500 OFFCURVE",
"562 500 CURVE SMOOTH",
"686 500 OFFCURVE",
"727 458 OFFCURVE",
"727 400 CURVE SMOOTH",
"727 0 LINE"
);
}
);
width = 747;
},
{
associatedMasterId = "6F4F10D2-8254-4335-A627-9F8D8891324D";
layerId = "45A3577A-0F56-4CB1-831F-2EF8100DF23A";
name = path;
paths = (
{
closed = 0;
nodes = (
"62 0 LINE",
"62 417 LINE",
"20 500 LINE"
);
},
{
closed = 0;
nodes = (
"62 397 LINE",
"62 397 OFFCURVE",
"145 500 OFFCURVE",
"230 500 CURVE SMOOTH",
"353 500 OFFCURVE",
"394 458 OFFCURVE",
"394 400 CURVE SMOOTH",
"394 0 LINE"
);
},
{
closed = 0;
nodes = (
"394 397 LINE",
"394 397 OFFCURVE",
"478 500 OFFCURVE",
"562 500 CURVE SMOOTH",
"686 500 OFFCURVE",
"727 458 OFFCURVE",
"727 400 CURVE SMOOTH",
"727 0 LINE"
);
}
);
visible = 1;
width = 747;
},
{
associatedMasterId = "6F4F10D2-8254-4335-A627-9F8D8891324D";
layerId = "04A15652-E141-4246-B659-E16EE3562E24";
name = path;
paths = (
{
closed = 0;
nodes = (
"62 0 LINE",
"62 417 LINE",
"20 500 LINE"
);
},
{
closed = 0;
nodes = (
"62 397 LINE",
"62 397 OFFCURVE",
"145 500 OFFCURVE",
"230 500 CURVE SMOOTH",
"353 500 OFFCURVE",
"394 458 OFFCURVE",
"394 400 CURVE SMOOTH",
"394 0 LINE"
);
},
{
closed = 0;
nodes = (
"394 397 LINE",
"394 397 OFFCURVE",
"478 500 OFFCURVE",
"562 500 CURVE SMOOTH",
"686 500 OFFCURVE",
"727 458 OFFCURVE",
"727 400 CURVE SMOOTH",
"727 0 LINE"
);
}
);
width = 747;
}
);
},
{
glyphname = n.ss01;
lastChange = "2018-11-13 20:52:22 +0000";
layers = (
{
layerId = "6F4F10D2-8254-4335-A627-9F8D8891324D";
paths = (
{
closed = 1;
nodes = (
"86.853 -45 OFFCURVE",
"107 -24.853 OFFCURVE",
"107 0 CURVE SMOOTH",
"107 380.284 LINE",
"145.538 422.692 OFFCURVE",
"196.218 455 OFFCURVE",
"230 455 CURVE SMOOTH",
"317.613 455 OFFCURVE",
"349 435.606 OFFCURVE",
"349 400 CURVE SMOOTH",
"349 0 LINE SMOOTH",
"349 -24.853 OFFCURVE",
"369.147 -45 OFFCURVE",
"394 -45 CURVE SMOOTH",
"418.853 -45 OFFCURVE",
"439 -24.853 OFFCURVE",
"439 0 CURVE SMOOTH",
"439 400 LINE SMOOTH",
"439 494.38 OFFCURVE",
"364.185 545 OFFCURVE",
"230 545 CURVE SMOOTH",
"182.171 545 OFFCURVE",
"128.455 519.742 OFFCURVE",
"80.694 479.722 CURVE",
"60.584 519.465 LINE SMOOTH",
"53.325 534.571 OFFCURVE",
"37.881 545 OFFCURVE",
"20 545 CURVE SMOOTH",
"-4.853 545 OFFCURVE",
"-25 524.853 OFFCURVE",
"-25 500 CURVE SMOOTH",
"-25 492.378 OFFCURVE",
"-23.105 485.2 OFFCURVE",
"-19.76 478.908 CURVE SMOOTH",
"17 406.263 LINE",
"17 0 LINE SMOOTH",
"17 -24.853 OFFCURVE",
"37.147 -45 OFFCURVE",
"62 -45 CURVE SMOOTH"
);
}
);
width = 414;
},
{
layerId = "25139FCF-725A-49A6-A058-8DCF5AC16622";
paths = (
{
closed = 0;
nodes = (
"62 0 LINE",
"62 417 LINE",
"20 500 LINE"
);
},
{
closed = 0;
nodes = (
"62 397 LINE",
"62 397 OFFCURVE",
"145 500 OFFCURVE",
"230 500 CURVE SMOOTH",
"353 500 OFFCURVE",
"394 458 OFFCURVE",
"394 400 CURVE SMOOTH",
"394 0 LINE"
);
},
{
closed = 0;
nodes = (
"394 397 LINE"
);
}
);
width = 414;
},
{
layerId = "1AB63056-1127-463F-B001-FB2AC81901C9";
paths = (
{
closed = 0;
nodes = (
"62 0 LINE",
"62 417 LINE",
"20 500 LINE"
);
},
{
closed = 0;
nodes = (
"62 397 LINE",
"62 397 OFFCURVE",
"145 500 OFFCURVE",
"230 500 CURVE SMOOTH",
"353 500 OFFCURVE",
"394 458 OFFCURVE",
"394 400 CURVE SMOOTH",
"394 0 LINE"
);
},
{
closed = 0;
nodes = (
"394 397 LINE"
);
}
);
width = 414;
},
{
associatedMasterId = "6F4F10D2-8254-4335-A627-9F8D8891324D";
layerId = "B25E07C3-8928-4CE7-84B7-D8D753B3E287";
name = path;
paths = (
{
closed = 0;
nodes = (
"62 0 LINE",
"62 417 LINE",
"20 500 LINE"
);
},
{
closed = 0;
nodes = (
"62 397 LINE",
"62 397 OFFCURVE",
"145 500 OFFCURVE",
"230 500 CURVE SMOOTH",
"353 500 OFFCURVE",
"394 458 OFFCURVE",
"394 400 CURVE SMOOTH",
"394 0 LINE"
);
},
{
closed = 0;
nodes = (
"394 397 LINE"
);
}
);
visible = 1;
width = 414;
},
{
associatedMasterId = "6F4F10D2-8254-4335-A627-9F8D8891324D";
layerId = "B8B42159-AE78-4758-8D79-E30E3CC18DC6";
name = path;
paths = (
{
closed = 0;
nodes = (
"62 0 LINE",
"62 417 LINE",
"20 500 LINE"
);
},
{
closed = 0;
nodes = (
"62 397 LINE",
"62 397 OFFCURVE",
"145 500 OFFCURVE",
"230 500 CURVE SMOOTH",
"353 500 OFFCURVE",
"394 458 OFFCURVE",
"394 400 CURVE SMOOTH",
"394 0 LINE"
);
},
{
closed = 0;
nodes = (
"394 397 LINE"
);
}
);
width = 414;
}
);
},
{
glyphname = p.ss01;
lastChange = "2018-11-13 20:52:30 +0000";
layers = (
{
layerId = "6F4F10D2-8254-4335-A627-9F8D8891324D";
paths = (
{
closed = 1;
nodes = (
"107.853 -345 OFFCURVE",
"128 -324.853 OFFCURVE",
"128 -300 CURVE SMOOTH",
"128 -20.334 LINE",
"156.324 -34.489 OFFCURVE",
"193.638 -45 OFFCURVE",
"242 -45 CURVE SMOOTH",
"366.752 -45 OFFCURVE",
"480 98.525 OFFCURVE",
"480 250 CURVE SMOOTH",
"480 433.147 OFFCURVE",
"390.428 545 OFFCURVE",
"242 545 CURVE SMOOTH",
"157.571 545 OFFCURVE",
"106.811 512.965 OFFCURVE",
"78.777 485.429 CURVE",
"31.626 532.012 LINE SMOOTH",
"23.498 540.042 OFFCURVE",
"12.328 545 OFFCURVE",
"0 545 CURVE SMOOTH",
"-24.853 545 OFFCURVE",
"-45 524.853 OFFCURVE",
"-45 500 CURVE SMOOTH",
"-45 487.475 OFFCURVE",
"-39.883 476.146 OFFCURVE",
"-31.626 467.988 CURVE SMOOTH",
"38 399.201 LINE",
"38 -300 LINE SMOOTH",
"38 -324.853 OFFCURVE",
"58.147 -345 OFFCURVE",
"83 -345 CURVE SMOOTH"
);
},
{
closed = 1;
nodes = (
"152.042 45 OFFCURVE",
"130.566 92.507 OFFCURVE",
"130.566 92.478 CURVE",
"128 91.246 LINE",
"128 408.754 LINE",
"129.283 408.138 LINE SMOOTH",
"130.16 407.717 OFFCURVE",
"135.057 420.188 OFFCURVE",
"156.894 434.182 CURVE SMOOTH",
"173.876 445.002 OFFCURVE",
"200.732 455 OFFCURVE",
"242 455 CURVE SMOOTH",
"337.594 455 OFFCURVE",
"390 384.868 OFFCURVE",
"390 250 CURVE SMOOTH",
"390 148.952 OFFCURVE",
"314.686 45 OFFCURVE",
"242 45 CURVE SMOOTH"
);
}
);
width = 600;
},
{
layerId = "25139FCF-725A-49A6-A058-8DCF5AC16622";
paths = (
{
closed = 0;
nodes = (
"83 -300 LINE",
"83 418 LINE",
"0 500 LINE"
);
},
{
closed = 0;
nodes = (
"90 427 LINE",
"90 427 OFFCURVE",
"123 500 OFFCURVE",
"242 500 CURVE SMOOTH",
"358 500 OFFCURVE",
"435 417 OFFCURVE",
"435 250 CURVE SMOOTH",
"435 148 OFFCURVE",
"358 0 OFFCURVE",
"242 0 CURVE SMOOTH",
"123 0 OFFCURVE",
"90 73 OFFCURVE",
"90 73 CURVE"
);
}
);
width = 600;
},
{
layerId = "1AB63056-1127-463F-B001-FB2AC81901C9";
paths = (
{
closed = 0;
nodes = (
"83 -300 LINE",
"83 418 LINE",
"0 500 LINE"
);
},
{
closed = 0;
nodes = (
"90 427 LINE",
"90 427 OFFCURVE",
"123 500 OFFCURVE",
"242 500 CURVE SMOOTH",
"358 500 OFFCURVE",
"435 417 OFFCURVE",
"435 250 CURVE SMOOTH",
"435 148 OFFCURVE",
"358 0 OFFCURVE",
"242 0 CURVE SMOOTH",
"123 0 OFFCURVE",
"90 73 OFFCURVE",
"90 73 CURVE"
);
}
);
width = 600;
},
{
associatedMasterId = "6F4F10D2-8254-4335-A627-9F8D8891324D";
layerId = "37997420-BD33-4906-8A66-129106ED1647";
name = path;
paths = (
{
closed = 0;
nodes = (
"83 -300 LINE",
"83 418 LINE",
"0 500 LINE"
);
},
{
closed = 0;
nodes = (
"90 427 LINE",
"90 427 OFFCURVE",
"123 500 OFFCURVE",
"242 500 CURVE SMOOTH",
"358 500 OFFCURVE",
"435 417 OFFCURVE",
"435 250 CURVE SMOOTH",
"435 148 OFFCURVE",
"358 0 OFFCURVE",
"242 0 CURVE SMOOTH",
"123 0 OFFCURVE",
"90 73 OFFCURVE",
"90 73 CURVE"
);
}
);
visible = 1;
width = 600;
},
{
associatedMasterId = "6F4F10D2-8254-4335-A627-9F8D8891324D";
layerId = "3628577D-9D0F-4680-A124-531DAC9DC262";
name = path;
paths = (
{
closed = 0;
nodes = (
"83 -300 LINE",
"83 418 LINE",
"0 500 LINE"
);
},
{
closed = 0;
nodes = (
"90 427 LINE",
"90 427 OFFCURVE",
"123 500 OFFCURVE",
"242 500 CURVE SMOOTH",
"358 500 OFFCURVE",
"435 417 OFFCURVE",
"435 250 CURVE SMOOTH",
"435 148 OFFCURVE",
"358 0 OFFCURVE",
"242 0 CURVE SMOOTH",
"123 0 OFFCURVE",
"90 73 OFFCURVE",
"90 73 CURVE"
);
}
);
width = 600;
}
);
},
{
glyphname = y.ss01;
lastChange = "2018-11-13 20:52:14 +0000";
layers = (
{
layerId = "6F4F10D2-8254-4335-A627-9F8D8891324D";
paths = (
{
closed = 1;
nodes = (
"72.554 -345 OFFCURVE",
"83.907 -339.859 OFFCURVE",
"92.069 -331.568 CURVE",
"92.069 -331.57 OFFCURVE",
"210.33 -213.309 OFFCURVE",
"269.909 -44.473 CURVE",
"325.542 83.517 OFFCURVE",
"447.628 463.728 OFFCURVE",
"454.544 485.302 CURVE SMOOTH",
"456.135 489.909 OFFCURVE",
"457 494.853 OFFCURVE",
"457 500 CURVE SMOOTH",
"457 524.853 OFFCURVE",
"436.853 545 OFFCURVE",
"412 545 CURVE SMOOTH",
"391.581 545 OFFCURVE",
"374.339 531.401 OFFCURVE",
"368.837 512.765 CURVE SMOOTH",
"364.147 498.136 OFFCURVE",
"307.443 321.528 OFFCURVE",
"254.576 170.424 CURVE",
"59.761 521.092 LINE SMOOTH",
"52.2 535.315 OFFCURVE",
"37.231 545 OFFCURVE",
"20 545 CURVE SMOOTH",
"-4.853 545 OFFCURVE",
"-25 524.853 OFFCURVE",
"-25 500 CURVE SMOOTH",
"-25 491.786 OFFCURVE",
"-22.799 484.087 OFFCURVE",
"-18.955 477.458 CURVE SMOOTH",
"214.007 58.127 LINE",
"203.855 31.232 OFFCURVE",
"194.587 7.897 OFFCURVE",
"186.773 -9.963 CURVE",
"185.526 -13.134 LINE",
"134.451 -159.066 OFFCURVE",
"34 -262.279 OFFCURVE",
"28.194 -268.166 CURVE SMOOTH",
"19.934 -276.555 OFFCURVE",
"15 -287.701 OFFCURVE",
"15 -300 CURVE SMOOTH",
"15 -324.853 OFFCURVE",
"35.147 -345 OFFCURVE",
"60 -345 CURVE SMOOTH"
);
}
);
width = 432;
},
{
layerId = "25139FCF-725A-49A6-A058-8DCF5AC16622";
width = 600;
},
{
layerId = "1AB63056-1127-463F-B001-FB2AC81901C9";
width = 600;
},
{
associatedMasterId = "6F4F10D2-8254-4335-A627-9F8D8891324D";
layerId = "A7227704-9A57-4696-8599-0FF80154FDF3";
name = path;
paths = (
{
closed = 0;
nodes = (
"60 -300 LINE",
"60 -300 OFFCURVE",
"172 -188 OFFCURVE",
"228 -28 CURVE",
"284 100 OFFCURVE",
"412 500 OFFCURVE",
"412 500 CURVE"
);
},
{
closed = 0;
nodes = (
"20 500 LINE",
"260 68 LINE"
);
}
);
visible = 1;
width = 432;
},
{
associatedMasterId = "6F4F10D2-8254-4335-A627-9F8D8891324D";
layerId = "D295005A-1B1C-4C6B-98E2-2A1226E82796";
name = path;
paths = (
{
closed = 0;
nodes = (
"60 -300 LINE",
"60 -300 OFFCURVE",
"172 -188 OFFCURVE",
"228 -28 CURVE",
"284 100 OFFCURVE",
"412 500 OFFCURVE",
"412 500 CURVE"
);
},
{
closed = 0;
nodes = (
"20 500 LINE",
"260 68 LINE"
);
}
);
width = 432;
}
);
},
{
color = 1;
glyphname = f_f;
lastChange = "2018-10-05 11:45:58 +0000";
layers = (
{
layerId = "6F4F10D2-8254-4335-A627-9F8D8891324D";
paths = (
{
closed = 1;
nodes = (
"31.046 -20 OFFCURVE",
"40 -11.046 OFFCURVE",
"40 0 CURVE SMOOTH",
"40 400.949 LINE",
"211 400.514 LINE",
"211 0 LINE SMOOTH",
"211 -11.046 OFFCURVE",
"219.954 -20 OFFCURVE",
"231 -20 CURVE SMOOTH",
"242.046 -20 OFFCURVE",
"251 -11.046 OFFCURVE",
"251 0 CURVE SMOOTH",
"251 400.412 LINE",
"413 400 LINE SMOOTH",
"424.046 400 OFFCURVE",
"433 408.954 OFFCURVE",
"433 420 CURVE SMOOTH",
"433 431.029 OFFCURVE",
"424.073 439.972 OFFCURVE",
"413.051 440 CURVE SMOOTH",
"251 440.412 LINE",
"251 524 LINE SMOOTH",
"251 597.291 OFFCURVE",
"248.591 680 OFFCURVE",
"336 680 CURVE SMOOTH",
"377.064 680 OFFCURVE",
"406.614 670.161 OFFCURVE",
"428.157 649.565 CURVE SMOOTH",
"431.75 646.118 OFFCURVE",
"436.628 644 OFFCURVE",
"442 644 CURVE SMOOTH",
"453.046 644 OFFCURVE",
"462 652.954 OFFCURVE",
"462 664 CURVE SMOOTH",
"462 669.741 OFFCURVE",
"459.581 674.917 OFFCURVE",
"455.706 678.565 CURVE SMOOTH",
"427.315 705.652 OFFCURVE",
"385.69 720 OFFCURVE",
"336 720 CURVE SMOOTH",
"289.987 720 OFFCURVE",
"260.898 704.214 OFFCURVE",
"242.513 680.607 CURVE",
"214.191 706.373 OFFCURVE",
"173.425 720 OFFCURVE",
"125 720 CURVE SMOOTH",
"-3.591 720 OFFCURVE",
"0 596.709 OFFCURVE",
"0 524 CURVE SMOOTH",
"0 0 LINE SMOOTH",
"0 -11.046 OFFCURVE",
"8.954 -20 OFFCURVE",
"20 -20 CURVE SMOOTH"
);
},
{
closed = 1;
nodes = (
"40 440.949 LINE",
"40 524 LINE SMOOTH",
"40 597.291 OFFCURVE",
"37.591 680 OFFCURVE",
"125 680 CURVE SMOOTH",
"166.064 680 OFFCURVE",
"195.614 670.161 OFFCURVE",
"217.157 649.565 CURVE SMOOTH",
"219.063 647.737 OFFCURVE",
"221.33 646.283 OFFCURVE",
"223.84 645.32 CURVE",
"210.16 606.162 OFFCURVE",
"211 559.165 OFFCURVE",
"211 524 CURVE SMOOTH",
"211 440.514 LINE"
);
}
);
width = 462;
},
{
layerId = "25139FCF-725A-49A6-A058-8DCF5AC16622";
paths = (
{
closed = 0;
nodes = (
"20 0 LINE",
"20 0 OFFCURVE",
"20 279 OFFCURVE",
"20 421 CURVE SMOOTH",
"20 524 LINE SMOOTH",
"20 597 OFFCURVE",
"17 700 OFFCURVE",
"125 700 CURVE SMOOTH",
"174 700 OFFCURVE",
"208 686 OFFCURVE",
"231 664 CURVE"
);
},
{
closed = 0;
nodes = (
"413 420 LINE",
"20 421 LINE"
);
},
{
closed = 0;
nodes = (
"231 0 LINE",
"231 0 OFFCURVE",
"231 279 OFFCURVE",
"231 421 CURVE SMOOTH",
"231 524 LINE SMOOTH",
"231 597 OFFCURVE",
"228 700 OFFCURVE",
"336 700 CURVE SMOOTH",
"385 700 OFFCURVE",
"419 686 OFFCURVE",
"442 664 CURVE"
);
}
);
width = 462;
},
{
layerId = "1AB63056-1127-463F-B001-FB2AC81901C9";
paths = (
{
closed = 0;
nodes = (
"20 0 LINE",
"20 0 OFFCURVE",
"20 279 OFFCURVE",
"20 421 CURVE SMOOTH",
"20 524 LINE SMOOTH",
"20 597 OFFCURVE",
"17 700 OFFCURVE",
"125 700 CURVE SMOOTH",
"174 700 OFFCURVE",
"208 686 OFFCURVE",
"231 664 CURVE"
);
},
{
closed = 0;
nodes = (
"413 420 LINE",
"20 421 LINE"
);
},
{
closed = 0;
nodes = (
"231 0 LINE",
"231 0 OFFCURVE",
"231 279 OFFCURVE",
"231 421 CURVE SMOOTH",
"231 524 LINE SMOOTH",
"231 597 OFFCURVE",
"228 700 OFFCURVE",
"336 700 CURVE SMOOTH",
"385 700 OFFCURVE",
"419 686 OFFCURVE",
"442 664 CURVE"
);
}
);
width = 462;
},
{
associatedMasterId = "6F4F10D2-8254-4335-A627-9F8D8891324D";
layerId = "1D421E11-ADC2-499B-9EE7-6383B58B7CCE";
name = path;
paths = (
{
closed = 0;
nodes = (
"20 0 LINE",
"20 0 OFFCURVE",
"20 279 OFFCURVE",
"20 421 CURVE SMOOTH",
"20 524 LINE SMOOTH",
"20 597 OFFCURVE",
"17 700 OFFCURVE",
"125 700 CURVE SMOOTH",
"174 700 OFFCURVE",
"208 686 OFFCURVE",
"231 664 CURVE"
);
},
{
closed = 0;
nodes = (
"413 420 LINE",
"20 421 LINE"
);
},
{
closed = 0;
nodes = (
"231 0 LINE",
"231 0 OFFCURVE",
"231 279 OFFCURVE",
"231 421 CURVE SMOOTH",
"231 524 LINE SMOOTH",
"231 597 OFFCURVE",
"228 700 OFFCURVE",
"336 700 CURVE SMOOTH",
"385 700 OFFCURVE",
"419 686 OFFCURVE",
"442 664 CURVE"
);
}
);
visible = 1;
width = 462;
},
{
associatedMasterId = "6F4F10D2-8254-4335-A627-9F8D8891324D";
layerId = "1839084A-8630-410E-9EA2-8B6FB11D56A3";
name = path;
paths = (
{
closed = 0;
nodes = (
"20 0 LINE",
"20 0 OFFCURVE",
"20 279 OFFCURVE",
"20 421 CURVE SMOOTH",
"20 524 LINE SMOOTH",
"20 597 OFFCURVE",
"17 700 OFFCURVE",
"125 700 CURVE SMOOTH",
"174 700 OFFCURVE",
"208 686 OFFCURVE",
"231 664 CURVE"
);
},
{
closed = 0;
nodes = (
"413 420 LINE",
"20 421 LINE"
);
},
{
closed = 0;
nodes = (
"231 0 LINE",
"231 0 OFFCURVE",
"231 279 OFFCURVE",
"231 421 CURVE SMOOTH",
"231 524 LINE SMOOTH",
"231 597 OFFCURVE",
"228 700 OFFCURVE",
"336 700 CURVE SMOOTH",
"385 700 OFFCURVE",
"419 686 OFFCURVE",
"442 664 CURVE"
);
}
);
width = 462;
}
);
},
{
color = 1;
glyphname = f_f_l;
lastChange = "2018-10-05 11:45:58 +0000";
layers = (
{
layerId = "6F4F10D2-8254-4335-A627-9F8D8891324D";
paths = (
{
closed = 1;
nodes = (
"31.046 -20 OFFCURVE",
"40 -11.046 OFFCURVE",
"40 0 CURVE SMOOTH",
"40 400.936 LINE",
"211 400.395 LINE",
"211 0 LINE SMOOTH",
"211 -11.046 OFFCURVE",
"219.954 -20 OFFCURVE",
"231 -20 CURVE SMOOTH",
"242.046 -20 OFFCURVE",
"251 -11.046 OFFCURVE",
"251 0 CURVE SMOOTH",
"251 400.269 LINE",
"336 400 LINE SMOOTH",
"347.046 400 OFFCURVE",
"356 408.954 OFFCURVE",
"356 420 CURVE SMOOTH",
"356 431.025 OFFCURVE",
"347.08 439.966 OFFCURVE",
"336.063 440 CURVE SMOOTH",
"251 440.269 LINE",
"251 524 LINE SMOOTH",
"251 597.291 OFFCURVE",
"248.591 680 OFFCURVE",
"336 680 CURVE SMOOTH",
"373.283 680 OFFCURVE",
"401.075 671.889 OFFCURVE",
"422 654.981 CURVE",
"422 0 LINE SMOOTH",
"422 -11.046 OFFCURVE",
"430.954 -20 OFFCURVE",
"442 -20 CURVE SMOOTH",
"453.046 -20 OFFCURVE",
"462 -11.046 OFFCURVE",
"462 0 CURVE SMOOTH",
"462 651.176 LINE SMOOTH",
"462 660.543 OFFCURVE",
"461.168 665.948 OFFCURVE",
"458.912 671.226 CURVE SMOOTH",
"456.659 676.5 OFFCURVE",
"453.503 680.934 OFFCURVE",
"446.135 686.829 CURVE SMOOTH",
"418.306 708.561 OFFCURVE",
"380.367 720 OFFCURVE",
"336 720 CURVE SMOOTH",
"289.987 720 OFFCURVE",
"260.898 704.214 OFFCURVE",
"242.513 680.607 CURVE",
"214.191 706.373 OFFCURVE",
"173.425 720 OFFCURVE",
"125 720 CURVE SMOOTH",
"-3.591 720 OFFCURVE",
"0 596.709 OFFCURVE",
"0 524 CURVE SMOOTH",
"0 0 LINE SMOOTH",
"0 -11.046 OFFCURVE",
"8.954 -20 OFFCURVE",
"20 -20 CURVE SMOOTH"
);
},
{
closed = 1;
nodes = (
"40 440.937 LINE",
"40 524 LINE SMOOTH",
"40 597.291 OFFCURVE",
"37.591 680 OFFCURVE",
"125 680 CURVE SMOOTH",
"166.064 680 OFFCURVE",
"195.614 670.161 OFFCURVE",
"217.157 649.565 CURVE SMOOTH",
"219.063 647.737 OFFCURVE",
"221.33 646.283 OFFCURVE",
"223.84 645.32 CURVE",
"210.16 606.162 OFFCURVE",
"211 559.165 OFFCURVE",
"211 524 CURVE SMOOTH",
"211 440.396 LINE"
);
}
);
width = 462;
},
{
layerId = "25139FCF-725A-49A6-A058-8DCF5AC16622";
paths = (
{
closed = 0;
nodes = (
"20 0 LINE",
"20 0 OFFCURVE",
"20 279 OFFCURVE",
"20 421 CURVE SMOOTH",
"20 524 LINE SMOOTH",
"20 597 OFFCURVE",
"17 700 OFFCURVE",
"125 700 CURVE SMOOTH",
"174 700 OFFCURVE",
"208 686 OFFCURVE",
"231 664 CURVE"
);
},
{
closed = 0;
nodes = (
"336 420 LINE",
"20 421 LINE"
);
},
{
closed = 0;
nodes = (
"231 0 LINE",
"231 0 OFFCURVE",
"231 279 OFFCURVE",
"231 421 CURVE SMOOTH",
"231 524 LINE SMOOTH",
"231 597 OFFCURVE",
"228 700 OFFCURVE",
"336 700 CURVE SMOOTH",
"385 700 OFFCURVE",
"419 686 OFFCURVE",
"442 664 CURVE",
"442 0 LINE"
);
}
);
width = 462;
},
{
layerId = "1AB63056-1127-463F-B001-FB2AC81901C9";
paths = (
{
closed = 0;
nodes = (
"20 0 LINE",
"20 0 OFFCURVE",
"20 279 OFFCURVE",
"20 421 CURVE SMOOTH",
"20 524 LINE SMOOTH",
"20 597 OFFCURVE",
"17 700 OFFCURVE",
"125 700 CURVE SMOOTH",
"174 700 OFFCURVE",
"208 686 OFFCURVE",
"231 664 CURVE"
);
},
{
closed = 0;
nodes = (
"336 420 LINE",
"20 421 LINE"
);
},
{
closed = 0;
nodes = (
"231 0 LINE",
"231 0 OFFCURVE",
"231 279 OFFCURVE",
"231 421 CURVE SMOOTH",
"231 524 LINE SMOOTH",
"231 597 OFFCURVE",
"228 700 OFFCURVE",
"336 700 CURVE SMOOTH",
"385 700 OFFCURVE",
"419 686 OFFCURVE",
"442 664 CURVE",
"442 0 LINE"
);
}
);
width = 462;
},
{
associatedMasterId = "6F4F10D2-8254-4335-A627-9F8D8891324D";
layerId = "80B668BE-1256-4BD9-9C1E-482ADA27B112";
name = path;
paths = (
{
closed = 0;
nodes = (
"20 0 LINE",
"20 0 OFFCURVE",
"20 279 OFFCURVE",
"20 421 CURVE SMOOTH",
"20 524 LINE SMOOTH",
"20 597 OFFCURVE",
"17 700 OFFCURVE",
"125 700 CURVE SMOOTH",
"174 700 OFFCURVE",
"208 686 OFFCURVE",
"231 664 CURVE"
);
},
{
closed = 0;
nodes = (
"336 420 LINE",
"20 421 LINE"
);
},
{
closed = 0;
nodes = (
"231 0 LINE",
"231 0 OFFCURVE",
"231 279 OFFCURVE",
"231 421 CURVE SMOOTH",
"231 524 LINE SMOOTH",
"231 597 OFFCURVE",
"228 700 OFFCURVE",
"336 700 CURVE SMOOTH",
"385 700 OFFCURVE",
"419 686 OFFCURVE",
"442 664 CURVE",
"442 0 LINE"
);
}
);
visible = 1;
width = 462;
},
{
associatedMasterId = "6F4F10D2-8254-4335-A627-9F8D8891324D";
layerId = "33A62B0A-9A05-407E-8CAC-2D9F60691953";
name = path;
paths = (
{
closed = 0;
nodes = (
"20 0 LINE",
"20 0 OFFCURVE",
"20 279 OFFCURVE",
"20 421 CURVE SMOOTH",
"20 524 LINE SMOOTH",
"20 597 OFFCURVE",
"17 700 OFFCURVE",
"125 700 CURVE SMOOTH",
"174 700 OFFCURVE",
"208 686 OFFCURVE",
"231 664 CURVE"
);
},
{
closed = 0;
nodes = (
"336 420 LINE",
"20 421 LINE"
);
},
{
closed = 0;
nodes = (
"231 0 LINE",
"231 0 OFFCURVE",
"231 279 OFFCURVE",
"231 421 CURVE SMOOTH",
"231 524 LINE SMOOTH",
"231 597 OFFCURVE",
"228 700 OFFCURVE",
"336 700 CURVE SMOOTH",
"385 700 OFFCURVE",
"419 686 OFFCURVE",
"442 664 CURVE",
"442 0 LINE"
);
}
);
width = 462;
}
);
},
{
color = 1;
glyphname = f_t;
lastChange = "2018-10-05 11:45:58 +0000";
layers = (
{
layerId = "6F4F10D2-8254-4335-A627-9F8D8891324D";
paths = (
{
closed = 1;
nodes = (
"31.046 -20 OFFCURVE",
"40 -11.046 OFFCURVE",
"40 0 CURVE SMOOTH",
"40 401.052 LINE",
"211 401.495 LINE",
"211 176 LINE SMOOTH",
"211 103.388 OFFCURVE",
"206.208 -20 OFFCURVE",
"336 -20 CURVE SMOOTH",
"385.691 -20 OFFCURVE",
"427.317 -5.652 OFFCURVE",
"455.708 21.437 CURVE SMOOTH",
"459.582 25.085 OFFCURVE",
"462 30.26 OFFCURVE",
"462 36 CURVE SMOOTH",
"462 47.046 OFFCURVE",
"453.046 56 OFFCURVE",
"442 56 CURVE SMOOTH",
"436.627 56 OFFCURVE",
"431.749 53.881 OFFCURVE",
"428.156 50.434 CURVE SMOOTH",
"406.613 29.839 OFFCURVE",
"377.063 20 OFFCURVE",
"336 20 CURVE SMOOTH",
"247.792 20 OFFCURVE",
"251 102.612 OFFCURVE",
"251 176 CURVE SMOOTH",
"251 401.598 LINE",
"406.052 402 LINE SMOOTH",
"417.074 402.028 OFFCURVE",
"426 410.971 OFFCURVE",
"426 422 CURVE SMOOTH",
"426 433.046 OFFCURVE",
"417.046 442 OFFCURVE",
"406 442 CURVE SMOOTH",
"251 441.599 LINE",
"251 651.176 LINE SMOOTH",
"251 660.543 OFFCURVE",
"250.168 665.948 OFFCURVE",
"247.912 671.226 CURVE SMOOTH",
"245.659 676.5 OFFCURVE",
"242.503 680.934 OFFCURVE",
"235.135 686.829 CURVE SMOOTH",
"207.306 708.561 OFFCURVE",
"169.367 720 OFFCURVE",
"125 720 CURVE SMOOTH",
"-3.591 720 OFFCURVE",
"0 596.709 OFFCURVE",
"0 524 CURVE SMOOTH",
"0 0 LINE SMOOTH",
"0 -11.046 OFFCURVE",
"8.954 -20 OFFCURVE",
"20 -20 CURVE SMOOTH"
);
},
{
closed = 1;
nodes = (
"40 524 LINE SMOOTH",
"40 597.291 OFFCURVE",
"37.591 680 OFFCURVE",
"125 680 CURVE SMOOTH",
"162.283 680 OFFCURVE",
"190.075 671.889 OFFCURVE",
"211 654.981 CURVE",
"211 441.495 LINE",
"40 441.052 LINE"
);
}
);
width = 462;
},
{
layerId = "25139FCF-725A-49A6-A058-8DCF5AC16622";
paths = (
{
closed = 0;
nodes = (
"406 422 LINE",
"20 421 LINE"
);
},
{
closed = 0;
nodes = (
"20 0 LINE",
"20 0 OFFCURVE",
"20 279 OFFCURVE",
"20 421 CURVE",
"20 524 LINE",
"20 597 OFFCURVE",
"17 700 OFFCURVE",
"125 700 CURVE",
"174 700 OFFCURVE",
"208 686 OFFCURVE",
"231 664 CURVE SMOOTH",
"231 664 OFFCURVE",
"231 421 OFFCURVE",
"231 279 CURVE",
"231 176 LINE",
"231 103 OFFCURVE",
"227 0 OFFCURVE",
"336 0 CURVE",
"385 0 OFFCURVE",
"419 14 OFFCURVE",
"442 36 CURVE SMOOTH"
);
}
);
width = 462;
},
{
layerId = "1AB63056-1127-463F-B001-FB2AC81901C9";
paths = (
{
closed = 0;
nodes = (
"406 422 LINE",
"20 421 LINE"
);
},
{
closed = 0;
nodes = (
"20 0 LINE",
"20 0 OFFCURVE",
"20 279 OFFCURVE",
"20 421 CURVE",
"20 524 LINE",
"20 597 OFFCURVE",
"17 700 OFFCURVE",
"125 700 CURVE",
"174 700 OFFCURVE",
"208 686 OFFCURVE",
"231 664 CURVE SMOOTH",
"231 664 OFFCURVE",
"231 421 OFFCURVE",
"231 279 CURVE",
"231 176 LINE",
"231 103 OFFCURVE",
"227 0 OFFCURVE",
"336 0 CURVE",
"385 0 OFFCURVE",
"419 14 OFFCURVE",
"442 36 CURVE SMOOTH"
);
}
);
width = 462;
},
{
associatedMasterId = "6F4F10D2-8254-4335-A627-9F8D8891324D";
layerId = "B6EC5363-0CFD-4271-ACC8-B967402AD500";
name = path;
paths = (
{
closed = 0;
nodes = (
"406 422 LINE",
"20 421 LINE"
);
},
{
closed = 0;
nodes = (
"20 0 LINE",
"20 0 OFFCURVE",
"20 279 OFFCURVE",
"20 421 CURVE",
"20 524 LINE",
"20 597 OFFCURVE",
"17 700 OFFCURVE",
"125 700 CURVE",
"174 700 OFFCURVE",
"208 686 OFFCURVE",
"231 664 CURVE SMOOTH",
"231 664 OFFCURVE",
"231 421 OFFCURVE",
"231 279 CURVE",
"231 176 LINE",
"231 103 OFFCURVE",
"227 0 OFFCURVE",
"336 0 CURVE",
"385 0 OFFCURVE",
"419 14 OFFCURVE",
"442 36 CURVE SMOOTH"
);
}
);
visible = 1;
width = 462;
},
{
associatedMasterId = "6F4F10D2-8254-4335-A627-9F8D8891324D";
layerId = "39D39D04-D8A2-40EE-8035-B997357FB18B";
name = path;
paths = (
{
closed = 0;
nodes = (
"406 422 LINE",
"20 421 LINE"
);
},
{
closed = 0;
nodes = (
"20 0 LINE",
"20 0 OFFCURVE",
"20 279 OFFCURVE",
"20 421 CURVE",
"20 524 LINE",
"20 597 OFFCURVE",
"17 700 OFFCURVE",
"125 700 CURVE",
"174 700 OFFCURVE",
"208 686 OFFCURVE",
"231 664 CURVE SMOOTH",
"231 664 OFFCURVE",
"231 421 OFFCURVE",
"231 279 CURVE",
"231 176 LINE",
"231 103 OFFCURVE",
"227 0 OFFCURVE",
"336 0 CURVE",
"385 0 OFFCURVE",
"419 14 OFFCURVE",
"442 36 CURVE SMOOTH"
);
}
);
width = 462;
}
);
},
{
glyphname = zero;
lastChange = "2018-10-05 11:45:58 +0000";
layers = (
{
layerId = "6F4F10D2-8254-4335-A627-9F8D8891324D";
paths = (
{
closed = 1;
nodes = (
"494.051 -20 OFFCURVE",
"534 229.408 OFFCURVE",
"534 350 CURVE SMOOTH",
"534 587.71 OFFCURVE",
"440.44 720 OFFCURVE",
"267 720 CURVE SMOOTH",
"20.81 720 OFFCURVE",
"0 500.948 OFFCURVE",
"0 350 CURVE SMOOTH",
"0 108.822 OFFCURVE",
"89.953 -20 OFFCURVE",
"267 -20 CURVE SMOOTH"
);
},
{
closed = 1;
nodes = (
"114.091 20 OFFCURVE",
"40 131.147 OFFCURVE",
"40 350 CURVE SMOOTH",
"40 499.052 OFFCURVE",
"57.19 680 OFFCURVE",
"267 680 CURVE SMOOTH",
"416.274 680 OFFCURVE",
"494 566.285 OFFCURVE",
"494 350 CURVE SMOOTH",
"494 232.592 OFFCURVE",
"459.949 20 OFFCURVE",
"267 20 CURVE SMOOTH"
);
}
);
width = 534;
},
{
layerId = "25139FCF-725A-49A6-A058-8DCF5AC16622";
paths = (
{
closed = 1;
nodes = (
"514 231 OFFCURVE",
"477 0 OFFCURVE",
"267 0 CURVE SMOOTH",
"39 0 OFFCURVE",
"20 231 OFFCURVE",
"20 350 CURVE SMOOTH",
"20 500 OFFCURVE",
"39 700 OFFCURVE",
"267 700 CURVE SMOOTH",
"477 700 OFFCURVE",
"514 496 OFFCURVE",
"514 350 CURVE SMOOTH"
);
}
);
width = 534;
},
{
layerId = "1AB63056-1127-463F-B001-FB2AC81901C9";
paths = (
{
closed = 1;
nodes = (
"514 231 OFFCURVE",
"477 0 OFFCURVE",
"267 0 CURVE SMOOTH",
"39 0 OFFCURVE",
"20 231 OFFCURVE",
"20 350 CURVE SMOOTH",
"20 500 OFFCURVE",
"39 700 OFFCURVE",
"267 700 CURVE SMOOTH",
"477 700 OFFCURVE",
"514 496 OFFCURVE",
"514 350 CURVE SMOOTH"
);
}
);
width = 534;
},
{
associatedMasterId = "6F4F10D2-8254-4335-A627-9F8D8891324D";
layerId = "6A46793A-FE78-43D2-906B-0BD7B2A4E6D8";
name = path;
paths = (
{
closed = 1;
nodes = (
"514 231 OFFCURVE",
"477 0 OFFCURVE",
"267 0 CURVE SMOOTH",
"39 0 OFFCURVE",
"20 231 OFFCURVE",
"20 350 CURVE SMOOTH",
"20 500 OFFCURVE",
"39 700 OFFCURVE",
"267 700 CURVE SMOOTH",
"477 700 OFFCURVE",
"514 496 OFFCURVE",
"514 350 CURVE SMOOTH"
);
}
);
visible = 1;
width = 534;
},
{
associatedMasterId = "6F4F10D2-8254-4335-A627-9F8D8891324D";
layerId = "64CD8116-8D36-4116-859A-ABD728A6F318";
name = path;
paths = (
{
closed = 1;
nodes = (
"514 231 OFFCURVE",
"477 0 OFFCURVE",
"267 0 CURVE SMOOTH",
"39 0 OFFCURVE",
"20 231 OFFCURVE",
"20 350 CURVE SMOOTH",
"20 500 OFFCURVE",
"39 700 OFFCURVE",
"267 700 CURVE SMOOTH",
"477 700 OFFCURVE",
"514 496 OFFCURVE",
"514 350 CURVE SMOOTH"
);
}
);
width = 534;
}
);
unicode = 0030;
},
{
glyphname = one;
lastChange = "2018-10-05 11:45:58 +0000";
layers = (
{
layerId = "6F4F10D2-8254-4335-A627-9F8D8891324D";
paths = (
{
closed = 1;
nodes = (
"172.046 -20 OFFCURVE",
"181 -11.046 OFFCURVE",
"181 0 CURVE SMOOTH",
"181 683.808 LINE SMOOTH",
"181 694.994 OFFCURVE",
"176.547 702.288 OFFCURVE",
"166.597 707.399 CURVE SMOOTH",
"163.755 708.86 LINE SMOOTH",
"153.806 713.971 OFFCURVE",
"145.283 713.344 OFFCURVE",
"136.19 706.83 CURVE SMOOTH",
"8.542 615.394 LINE SMOOTH",
"3.377 611.778 OFFCURVE",
"0 605.784 OFFCURVE",
"0 599 CURVE SMOOTH",
"0 587.954 OFFCURVE",
"8.954 579 OFFCURVE",
"20 579 CURVE SMOOTH",
"24.42 579 OFFCURVE",
"28.504 580.434 OFFCURVE",
"31.815 582.861 CURVE SMOOTH",
"141 661.072 LINE",
"141 0 LINE SMOOTH",
"141 -11.046 OFFCURVE",
"149.954 -20 OFFCURVE",
"161 -20 CURVE SMOOTH"
);
}
);
width = 181;
},
{
layerId = "25139FCF-725A-49A6-A058-8DCF5AC16622";
paths = (
{
closed = 0;
nodes = (
"161 0 LINE",
"161 700 LINE",
"20 599 LINE"
);
}
);
width = 181;
},
{
layerId = "1AB63056-1127-463F-B001-FB2AC81901C9";
paths = (
{
closed = 0;
nodes = (
"161 0 LINE",
"161 700 LINE",
"20 599 LINE"
);
}
);
width = 181;
},
{
associatedMasterId = "6F4F10D2-8254-4335-A627-9F8D8891324D";
layerId = "42DAE4EA-5DB5-4E18-AB0D-086BC37373E3";
name = path;
paths = (
{
closed = 0;
nodes = (
"161 0 LINE",
"161 700 LINE",
"20 599 LINE"
);
}
);
visible = 1;
width = 181;
},
{
associatedMasterId = "6F4F10D2-8254-4335-A627-9F8D8891324D";
layerId = "D236E5AC-D308-468D-8FA7-A3AE03602A50";
name = path;
paths = (
{
closed = 0;
nodes = (
"161 0 LINE",
"161 700 LINE",
"20 599 LINE"
);
}
);
width = 181;
}
);
unicode = 0031;
},
